<svg viewBox="0 0 20 20" xmlns="http://www.w3.org/2000/svg">
 <title>Bobun icon</title>
<path d="M6.1144 5.27349C5.96457 5.27349 5.70166 5.46384 5.5801 5.47992C5.56031 5.47992 5.54335 5.48529 5.52639 5.47188C4.08746 4.26545 2.69659 3.01075 1.20112 1.86598C0.731838 1.64614 0.369986 2.09655 0.152309 2.42899C-0.0879841 2.7936 -0.0427532 2.99199 0.279522 3.27617C1.46685 4.3137 2.87751 5.21183 4.08463 6.23059C4.10159 6.244 4.12138 6.25204 4.144 6.25472L4.11855 6.31102C2.97363 7.09655 1.94744 8.17161 1.78065 9.56035C1.68453 10.3512 1.96157 11.8231 2.18208 12.6113C2.73899 14.6086 4.01395 16.2654 5.8317 17.3941C5.82605 17.7292 5.8317 18.0161 6.01263 18.3217C7.00207 19.9813 10.663 20.1502 12.4044 19.9142C13.767 19.7292 16.0258 19.0563 15.9042 17.4183C17.7361 16.3217 19.0506 14.5979 19.5991 12.6086C19.8591 11.6622 20.1616 9.99199 19.8987 9.05365C19.6952 8.32443 19.2231 7.63274 18.6577 7.10995C19.1072 6.30834 19.3107 5.4263 19.2683 4.51746C19.257 4.26545 19.2203 3.93033 19.1581 3.68904C19.1213 3.55231 19.0732 3.34856 18.8838 3.34051C18.7171 3.33515 18.31 3.6247 18.163 3.72657C17.5778 4.13408 17.0491 4.62738 16.5968 5.16089C16.5431 5.16893 16.5685 5.15016 16.5572 5.12872C16.3085 4.60057 16.0371 4.18502 15.5735 3.7936C15.3416 3.59789 15.09 3.36732 14.895 3.75874C14.7225 4.10459 14.6603 4.59789 14.5868 4.97322C14.1119 4.8633 13.6455 4.71585 13.1649 4.63006C11.6411 4.35392 10.0269 4.39413 8.50036 4.63006C8.22615 4.67295 7.95758 4.73462 7.68337 4.78287L3.7256 0.126037C3.56446 -0.0133734 3.36658 -0.0294591 3.16586 0.0402459C2.99624 0.0965462 2.58633 0.391452 2.47043 0.52282C2.1114 0.930326 2.48174 1.26813 2.75312 1.58448C3.71147 2.70512 4.78572 3.78287 5.78364 4.87671C5.87128 4.97322 6.02111 5.12067 6.09178 5.21451C6.10592 5.23327 6.1257 5.23864 6.11722 5.27349H6.1144ZM8.82264 7.07242C8.64171 7.11531 8.61627 7.05901 8.50319 6.94373C6.60346 5.04829 4.93555 2.93033 3.06126 1.01076L2.99059 0.898155C3.07257 0.812364 3.27046 0.605929 3.39485 0.694401L8.82264 7.07242ZM0.675299 2.82041C0.638548 2.76143 0.921246 2.33783 1.03998 2.48797L6.0409 6.70244C5.89672 6.70244 5.74689 6.78019 5.62533 6.66491L0.675299 2.82041ZM16.1106 8.19306C16.0823 6.71317 16.9361 5.46384 18.0923 4.54963L18.6209 4.17429C18.6209 4.63006 18.6464 5.08314 18.5644 5.53354C18.4004 6.42899 17.8633 7.4129 17.1283 8.00271C17.0774 8.04293 16.7664 8.27617 16.724 8.23596C16.9728 7.71317 17.2951 7.22523 17.575 6.71853C17.6739 6.5389 18.0357 5.90888 18.0273 5.75338C18.0103 5.4129 17.5863 5.47188 17.4817 5.74534L16.1615 8.16089L16.1078 8.19038L16.1106 8.19306ZM15.2992 4.41022C15.3473 4.3995 15.3473 4.42899 15.3671 4.45043C15.7544 4.81236 16.0286 5.29494 16.1332 5.80164C15.7742 6.38609 15.5819 7.05365 15.5197 7.72657L15.3784 7.45311C15.0052 6.47724 15.09 5.4129 15.2992 4.41022ZM8.1583 5.34588C9.61985 5.06169 11.1464 4.9759 12.6249 5.18502C13.2638 5.27617 13.8914 5.43167 14.5105 5.60325C14.5105 6.04829 14.5049 6.49333 14.5868 6.93301C13.6426 6.11531 12.4016 5.53622 11.0899 5.77751C10.9146 5.80968 10.5245 5.97054 10.4114 5.9759C10.3351 5.97858 10.0213 5.87134 9.9082 5.84722C9.45588 5.75606 9.02335 5.72121 8.56821 5.83113L8.1583 5.34588ZM6.08895 5.95177L6.61477 5.79092L7.19713 6.40754L7.23671 6.49065L6.96814 6.72121L6.09178 5.95177H6.08895ZM11.2595 6.39681C12.6758 6.13408 14.0356 7.15821 14.9176 8.10191C14.9374 8.12335 15.0957 8.29762 15.0759 8.31102L14.2872 8.32175C13.7472 7.7507 13.0744 7.27885 12.2998 7.02952L11.2595 6.39413V6.39681ZM9.0177 6.39681H9.47284C9.81491 6.39681 10.5499 6.7373 10.8637 6.89815L13.572 8.49869L12.8709 8.7078C11.7344 8.24132 10.8043 7.33247 9.58309 7.05901L9.01487 6.39413L9.0177 6.39681ZM2.71355 10.3083C2.69376 10.4638 2.71355 10.681 2.71355 10.8445C2.71355 10.8579 2.77857 10.9437 2.71355 10.9491C2.61177 10.681 2.47043 10.4343 2.44216 10.1421C2.30646 8.64346 3.45421 7.47188 4.67547 6.70244L5.0034 6.9196C5.0147 6.96786 4.98926 6.94909 4.9723 6.95982C4.84791 7.04025 4.71787 7.09923 4.59914 7.1877C4.02526 7.61665 3.7143 8.24668 3.64362 8.93301C3.16304 9.19574 2.77857 9.78555 2.71355 10.3057V10.3083ZM7.54202 7.09655C7.5194 7.06974 7.66358 6.93033 7.6975 6.93569L8.13003 7.36732L8.03109 7.41558C7.88691 7.29226 7.71729 7.16625 7.53919 7.09923L7.54202 7.09655ZM4.33906 8.68368C4.5115 7.8499 5.33415 7.28421 6.22465 7.32711C7.4035 7.38609 8.71804 8.50941 8.12155 9.68636C7.99434 9.93569 7.72295 10.2091 7.4459 10.2923C7.11515 9.46116 6.20203 8.80432 5.28327 8.66491C4.98926 8.61933 4.62741 8.60325 4.34188 8.681L4.33906 8.68368ZM19.1892 10.6703L18.8782 10.1582C18.4287 9.55231 17.7955 9.10191 17.1198 8.74266C17.5721 8.43167 17.9849 8.09118 18.3128 7.65687C19.1496 8.42362 19.5623 9.59252 19.1863 10.6703H19.1892ZM12.1472 9.08046L11.4546 9.44507C10.6065 8.93033 9.8347 8.10727 8.72087 8.27617L8.4523 7.83113C9.51242 7.26545 10.6093 8.1877 11.4828 8.6944C11.5365 8.72657 12.1698 9.05097 12.1443 9.08046H12.1472ZM8.84525 9.57108C8.91027 9.3566 8.88483 9.13408 8.90462 8.91692C8.94985 8.85526 9.27213 8.91692 9.35694 8.93569C9.92516 9.06974 10.3549 9.51478 10.8411 9.7936L10.1428 10.0805C9.75837 9.79628 9.34846 9.5818 8.84525 9.57108ZM7.5194 13.866C7.34696 13.1207 7.56181 12.4612 8.08197 11.8955C8.96681 10.9384 10.1089 10.8928 11.2086 10.3298C11.9069 9.97322 12.4412 9.53891 13.2158 9.26545C14.8667 8.68368 16.9558 8.93569 18.1403 10.2467C18.3354 10.4612 18.7821 11.1368 18.6803 11.4129C18.652 11.4933 18.4598 11.7024 18.3976 11.7882C18.2817 11.1368 17.6937 10.5175 17.1396 10.1448C16.1275 9.46116 14.5557 9.40217 13.4165 9.80968C12.6221 10.0939 12.003 10.6488 11.2482 11C10.2248 11.4746 8.99226 11.5684 8.29117 12.5148C7.98585 12.925 7.81906 13.4585 7.9067 13.9598L7.51658 13.8633L7.5194 13.866ZM3.73691 9.65419C4.62175 8.81236 6.25292 9.42094 6.78156 10.3727C7.63814 11.9142 6.01828 13.0939 4.49454 12.3083C3.57012 11.8311 2.88034 10.4692 3.73691 9.65419ZM8.60213 14.1019C8.39294 13.2011 8.87635 12.6113 9.71031 12.2708C10.6262 11.8955 11.3669 11.7132 12.2433 11.1931C13.2751 10.5818 13.8801 10.1019 15.2116 10.1797C16.4329 10.252 17.7276 11.0724 17.8944 12.2815L17.5636 12.5148C17.0661 11.2386 15.6752 10.6006 14.2815 10.8874C13.3062 11.0885 12.656 11.7561 11.7797 12.1582C11.1803 12.4343 10.5471 12.5657 9.95343 12.807C9.35976 13.0483 8.96964 13.4826 9.06576 14.1502L8.59931 14.1019H8.60213ZM8.53146 10.2065C8.82829 10.1421 9.0912 10.2011 9.36542 10.3083C9.38803 10.3164 9.42196 10.3083 9.41348 10.3432C8.7661 10.5845 8.14982 10.9223 7.66641 11.3941L7.62965 10.9491C7.9802 10.7721 8.34771 10.5469 8.53429 10.2065H8.53146ZM9.70748 14.2199V13.8821C9.70748 13.4129 10.9655 13.1555 11.3386 13.0242C12.2659 12.6971 12.7097 12.3566 13.5126 11.8847C14.5529 11.2735 15.9862 11.2949 16.7382 12.3083C16.8088 12.4049 17.0011 12.7534 16.9982 12.8579C16.9982 12.9223 16.6731 13.0751 16.594 13.0992C16.1643 12.3083 15.3049 11.941 14.3946 12.2065C13.8518 12.3673 13.4023 12.7748 12.9189 13.0483C12.574 13.244 12.2037 13.4049 11.8277 13.5309C11.3669 13.6837 10.6489 13.7507 10.4962 14.2654L9.71031 14.2225L9.70748 14.2199ZM2.66549 12L3.37789 12.689C6.39992 15.2762 12.2405 15.4263 15.8957 14.118C17.1763 13.6595 18.0386 13.0617 18.9856 12.1448C18.9997 12.1314 18.9856 12.0992 19.0422 12.1153C18.4457 14.866 16.2943 16.9169 13.4956 17.7266C9.38803 18.9142 4.60762 17.1636 3.06692 13.2413C2.90578 12.8338 2.80401 12.4102 2.66549 11.9973V12ZM11.6298 14.244C12.2207 14.0885 12.8058 13.8553 13.326 13.5523C13.9649 13.1797 14.6519 12.4665 15.4717 12.8526C15.6865 12.9545 15.8957 13.1555 15.9834 13.3673C15.9721 13.4451 14.8695 13.7507 14.7141 13.7909C14.0243 13.9705 13.2921 14.1207 12.5797 14.1931C12.2913 14.2225 12.0002 14.2306 11.7118 14.2574C11.6835 14.2574 11.627 14.2842 11.6327 14.2413L11.6298 14.244ZM5.47267 13.1931C5.50094 13.2011 5.51791 13.2145 5.55183 13.2118C5.89955 13.1823 6.24161 13.1207 6.55823 12.9732C6.67131 12.9196 6.76177 12.8392 6.87768 12.7963C6.81266 13.0885 6.81266 13.3888 6.85224 13.6837L5.50377 13.2467L5.47267 13.1931ZM15.2003 17.7695C15.1635 18.1368 14.7678 18.4156 14.454 18.5898C12.7097 19.5603 9.60571 19.5657 7.76535 18.8311C7.26498 18.6327 6.62043 18.2788 6.50735 17.7346L7.60987 18.2065C9.65942 18.933 12.0539 18.9223 14.1063 18.2118C14.4794 18.0831 14.8413 17.9223 15.2003 17.7668V17.7695Z" />
<path d="M4.39488 10.0217C4.29593 10.0136 4.18568 10.078 4.13762 10.1638C3.88602 10.6142 4.82175 11.1745 4.98289 10.8018C5.10727 10.5123 4.70019 10.0458 4.39488 10.0217Z" />
<path d="M5.57662 11.3296C5.41266 11.3055 5.24869 11.3457 5.11583 11.4395C4.65503 11.7747 5.113 12.209 5.60207 11.973C5.94413 11.8068 5.97805 11.3859 5.57662 11.3296Z" />
<path d="M5.87322 10.1153C5.48875 10.0376 5.40394 10.488 5.60749 10.74C5.97499 11.1958 6.41035 10.6864 6.09938 10.2735C6.05415 10.2119 5.95238 10.1287 5.87322 10.1127V10.1153Z" />
<path d="M6.29453 8.23344C6.71293 8.62218 7.10022 8.13961 6.679 7.78572C6.28888 7.45864 5.9242 7.89028 6.29453 8.23344Z" />
<path d="M7.34913 8.76123C6.82049 8.68348 6.70741 9.34568 7.28976 9.34836C7.7336 9.34836 7.79297 8.82557 7.34913 8.76123Z" />
<path d="M5.57658 7.96508C5.19211 7.93291 5.05642 8.55221 5.51156 8.5683C5.9243 8.5817 5.96105 7.99725 5.57658 7.96508Z" />
</svg>
