 <title>Boisson icon</title>
<svg  viewBox="0 0 16 20" fill="none" xmlns="http://www.w3.org/2000/svg">
<path d="M3.69549 4.4378C3.68201 4.34308 3.48524 3.73686 3.43942 3.72875C3.34777 3.76663 3.25613 3.80994 3.17257 3.85594C3.01623 3.94255 2.66312 4.22942 2.52835 4.25648C2.40436 4.28084 2.21029 4.26731 2.07012 4.28625C1.62806 4.34579 1.20218 4.45404 0.792468 4.62995C0.498662 4.75715 0.105123 5.10356 0 4.565L2.20759 0.616464C2.06743 0.391839 2.15099 0.0454284 2.45827 0.0968487C2.69817 0.134737 2.67121 0.445965 2.75747 0.489267L7.081 1.81266C7.29125 1.98316 7.24542 2.22403 6.99744 2.32416C6.488 2.52443 6.09985 2.5975 5.62275 2.93038C5.51763 3.00345 5.24539 3.27138 5.16452 3.29573C5.01627 3.33903 4.70899 3.29303 4.53378 3.30926C4.45561 3.31738 3.97851 3.42022 3.95156 3.46082L4.21032 4.28625C4.6389 4.19423 5.07288 4.0941 5.51224 4.04539C6.9004 3.88571 8.16728 3.9642 9.55005 4.02103C9.63361 4.02374 9.71987 4.02103 9.80343 4.01832L10.3722 1.94798C10.6148 1.32552 11.108 1.08466 11.7091 0.906042C12.8709 0.554219 14.1054 0.337712 15.2779 0.00212709C15.7469 -0.0384679 15.9383 0.510917 15.9922 0.887098C16.065 1.38236 15.6122 1.51497 15.2429 1.61781C14.1135 1.93445 12.9544 2.14825 11.8358 2.50007L11.3345 4.29437C11.3345 4.31873 11.7603 4.40262 11.8277 4.42427C12.3237 4.56771 12.9517 4.8221 12.9329 5.43103C12.914 6.03995 12.7765 6.79773 12.7118 7.43642C12.4099 10.4459 12.1215 13.458 11.8008 16.4647C11.7253 17.1711 11.6822 18.0019 11.5501 18.6866C11.3452 19.7556 9.4611 19.9288 8.59316 19.9749C7.47993 20.0371 5.18878 20.0398 4.29658 19.2956C3.96773 19.0222 3.9273 18.8111 3.87609 18.4025C3.61193 16.3078 3.4529 14.1941 3.23187 12.094C2.99467 9.82882 2.72782 7.56362 2.52296 5.29571C2.65773 4.77339 3.24265 4.58936 3.69819 4.4351L3.69549 4.4378ZM15.4127 1.04406C15.5017 0.935811 15.3911 0.629996 15.2968 0.535274L11.5447 1.47437C11.2698 1.55556 11.0568 1.74771 10.8924 1.97775C10.5501 3.18207 10.2104 4.39992 9.89507 5.61506C9.8762 5.69084 9.7576 6.12656 9.77917 6.15362L10.3506 6.0589L11.3156 2.40264C11.418 2.10495 11.577 2.03188 11.8601 1.94527C12.4504 1.76395 13.1215 1.62322 13.7253 1.47708C14.1836 1.36612 14.7415 1.29034 15.1782 1.15232C15.2348 1.13337 15.3777 1.08195 15.41 1.04136L15.4127 1.04406ZM6.11602 2.05353L3.51759 1.24975L5.04322 2.69493L6.11602 2.05082V2.05353ZM4.38284 2.78965L2.87337 1.39589L2.81677 1.38506L2.67391 3.54742C3.21031 3.23078 3.76827 2.92226 4.38284 2.78965ZM2.1402 3.74498L2.29654 1.53932L0.897592 4.00479L0.908374 4.03727C1.29652 3.8803 1.72241 3.80182 2.1402 3.74498ZM9.66865 4.52711C8.0918 4.38097 6.49608 4.38638 4.93541 4.66784C4.75211 4.70032 4.56613 4.74091 4.38284 4.78422L4.83028 6.0616C6.28045 6.29164 7.75756 6.31329 9.2212 6.19692L9.66865 4.52711ZM10.8897 5.97771C11.259 5.89381 11.6417 5.82345 11.9921 5.66919C12.1081 5.61777 12.4369 5.47974 12.3911 5.33089C12.3129 5.07921 11.4477 4.83293 11.2024 4.77339L10.8924 5.97771H10.8897ZM4.25076 5.95335L3.86261 4.93036C3.68471 4.9926 3.50411 5.04673 3.33969 5.13874C2.98389 5.33901 2.98928 5.46892 3.33969 5.6746C3.61193 5.83427 3.94617 5.88569 4.25076 5.95335ZM12.1781 7.80448L12.3345 6.11032C12.0272 6.27811 11.6822 6.36471 11.3398 6.43778C11.2401 6.45943 10.7846 6.51085 10.7468 6.55686L10.5582 7.24698C11.1107 7.35252 11.7361 7.43371 12.1781 7.80448ZM4.42327 6.51627C3.97582 6.45402 3.53376 6.34847 3.11596 6.17798L3.2723 7.78283C3.28308 7.79636 3.48794 7.66105 3.52298 7.64481C3.88687 7.4716 4.31814 7.38229 4.71438 7.31464L4.42327 6.51627ZM9.06756 6.73548C8.05137 6.78961 7.02979 6.80855 6.01359 6.73548C5.68475 6.71112 5.3532 6.6597 5.02436 6.63535L5.22113 7.19014C5.51493 7.20909 5.82491 7.13602 6.12411 7.11437C6.84919 7.06024 7.57427 7.06836 8.30205 7.06836L8.96513 7.11437L9.06756 6.73277V6.73548ZM10.2024 6.62452C10.1026 6.65158 9.65787 6.65429 9.61474 6.71383L9.02713 8.94385L9.60127 8.89513L10.2051 6.62452H10.2024ZM8.8681 7.56091C8.391 7.53655 7.9139 7.50949 7.43411 7.5149C7.15917 7.51761 6.86806 7.54467 6.59042 7.56091C6.19419 7.58256 5.79796 7.60421 5.40172 7.65022C5.44485 7.87485 5.70362 8.20231 5.49876 8.40529C5.39903 8.50813 5.21304 8.4946 5.12409 8.38364C5.06209 8.30786 4.89228 7.74494 4.85454 7.73682C4.49335 7.80719 4.00547 7.90732 3.69549 8.10759C3.58767 8.17525 3.48255 8.22667 3.59306 8.34033C4.07286 8.84101 6.53921 9.00068 7.25621 9.0088C7.57697 9.0115 8.08102 9.01962 8.3883 8.98174C8.41795 8.97903 8.44491 8.9682 8.47456 8.96279L8.8681 7.55821V7.56091ZM10.1565 8.83018C10.6121 8.77335 11.0757 8.68945 11.507 8.52437C11.728 8.44047 12.1081 8.33492 11.7765 8.08594C11.4638 7.85049 10.825 7.79095 10.4449 7.69352L10.1565 8.83018ZM8.33709 9.49864C7.081 9.49864 5.78718 9.49864 4.55804 9.22531C4.26963 9.16035 3.94617 9.07375 3.67393 8.95197C3.63619 8.93573 3.39629 8.795 3.38551 8.80853L4.36127 18.1264C4.83028 17.872 5.36668 17.7394 5.8896 17.642C7.07831 17.4255 8.45839 17.4309 9.64709 17.6447C10.1458 17.734 10.6741 17.8666 11.1107 18.1237L12.0649 8.84912C11.4288 9.16306 10.7253 9.27943 10.0245 9.36333L8.57968 14.6786C8.29396 15.6014 6.99475 15.1386 7.07022 14.278L8.33439 9.49594L8.33709 9.49864ZM9.46919 9.43369C9.34789 9.47158 8.9247 9.41475 8.87349 9.51488L7.58236 14.3917C7.61201 14.6461 8.0352 14.7462 8.11606 14.4837L9.46919 9.43369ZM7.06483 17.9992C6.47452 18.0317 5.74944 18.1481 5.18339 18.3159C4.78446 18.435 4.10251 18.6136 4.78985 19.0006C5.4125 19.3524 6.64973 19.4634 7.36942 19.4877C8.13223 19.5121 10.3695 19.4038 10.9005 18.8409C10.9194 18.822 10.9948 18.711 10.9948 18.6948C10.7927 18.4512 10.4369 18.3456 10.1431 18.2617C9.19425 17.9938 8.04867 17.9478 7.06483 17.9992Z" />
<path d="M5.53384 10.1756C7.16191 9.98072 7.45841 12.2189 5.98668 12.4814C4.30471 12.7818 4.04594 10.3542 5.53384 10.1756ZM5.66592 10.7087C4.72251 10.8251 5.06753 12.2513 5.95434 11.9807C6.67672 11.7615 6.45839 10.6113 5.66592 10.7087Z" />
<path d="M6.13249 15.1231C7.02738 15.0555 7.52605 15.9783 7.16216 16.7605C6.79827 17.5426 5.56374 17.4993 5.1729 16.7199C4.83058 16.0379 5.39932 15.18 6.13249 15.1231ZM6.08936 15.6806C5.46671 15.7862 5.47749 16.8552 6.21605 16.8119C6.95461 16.7686 6.9007 15.5426 6.08936 15.6806Z" />
<path d="M9.90867 13.6063C10.8332 13.471 11.3615 14.7348 10.5152 15.2165C9.45584 15.82 8.67145 14.3316 9.5987 13.7389C9.68495 13.682 9.80894 13.6225 9.91137 13.6063H9.90867ZM10.0192 14.1178C9.73077 14.1611 9.63374 14.4777 9.76851 14.7159C9.9545 15.0433 10.5772 14.7538 10.3777 14.3262C10.3184 14.199 10.1594 14.0961 10.0192 14.1178Z" />
</svg>
