<svg width="21" height="22" viewBox="0 0 21 22" fill="none" xmlns="http://www.w3.org/2000/svg">
<g clip-path="url(#clip0_90_378)">
<path d="M15.5302 4.20105C15.9782 6.19943 16.5088 8.18301 16.8036 10.2169C16.892 10.8179 17.0217 11.5788 17.0512 12.1709C17.06 12.3278 17.0748 12.4462 16.9451 12.5528C16.7712 12.6979 16.5 12.6801 16.3673 12.4906C16.217 11.8541 16.1964 11.1762 16.1021 10.5219C15.7984 8.42578 15.206 6.36226 14.7638 4.29282L3.95172 4.32243C4.28186 7.11425 4.50293 9.91791 4.74464 12.7186L4.68274 20.4161L9.41966 20.1408C10.4219 20.0697 11.43 19.975 12.4351 19.9572C12.4941 19.9572 12.5501 19.9246 12.6179 19.9246C12.8272 19.9306 13.007 20.1644 13.0011 20.3687C12.9922 20.6855 12.6768 20.6973 12.4351 20.721C10.0947 20.949 7.63632 21.0112 5.27817 21.1503C4.9333 21.171 4.58547 21.2095 4.24354 21.2421C3.65106 21.0289 3.06741 20.7921 2.48377 20.5612C1.98562 20.3628 1.23101 20.123 0.785912 19.8802C0.441033 19.6908 0.502934 19.3118 0.50883 18.9625C0.553045 16.6739 0.573679 14.3588 0.691586 12.0791C0.80065 10.0156 1.12195 7.94617 1.42851 5.90337C1.48451 5.53034 1.7498 4.34907 1.69085 4.06782C1.66727 3.95828 1.5641 3.76288 1.52283 3.62373C1.20448 2.4928 1.28996 0.352304 2.73727 0.0592074C6.76086 -0.0592154 10.808 0.0444045 14.8434 0.00591713C15.7365 0.0680891 16.2317 0.843759 16.4499 1.63719C16.7152 2.59642 16.6857 3.91387 15.5302 4.20105ZM4.37913 3.52604C7.43882 3.49051 10.5044 3.57341 13.5641 3.52604C14.0505 3.51715 14.7461 3.5438 15.2089 3.49347C16.1345 3.39281 15.7808 1.77634 15.4742 1.24048C15.1146 0.612834 14.5693 0.808232 13.9591 0.802311C13.6348 0.79935 13.3106 0.802311 12.9864 0.802311C9.98562 0.802311 6.98488 0.79639 3.98414 0.802311C4.45872 1.58094 4.65327 2.64675 4.37913 3.52604ZM3.67758 3.2211C3.77781 2.65859 3.64221 1.24048 3.14405 0.897049C2.78149 0.648361 2.41303 1.11317 2.29218 1.41811C2.07699 1.95397 2.07699 2.7326 2.23027 3.28327C2.32755 3.62966 2.44251 3.68887 2.43072 4.09447C2.3924 5.25797 2.07994 6.57246 1.91487 7.73893C1.70854 9.22217 1.49335 10.7321 1.42261 12.2301C1.32239 14.3528 1.38429 16.4993 1.3047 18.6279C1.3047 18.6694 1.22806 18.924 1.31944 18.8855L2.81686 17.5739C3.19122 17.423 3.42998 17.7989 3.20596 18.1187C2.78444 18.545 2.27744 18.9151 1.85297 19.3296C1.82055 19.3621 1.78223 19.3829 1.79402 19.4361L3.93993 20.2947L3.95761 12.538C3.7896 9.68402 3.48304 6.8478 3.19122 4.00565C3.11458 3.68591 2.3187 2.75925 3.00257 2.61714C3.4005 2.53424 3.48893 2.99313 3.68053 3.2211H3.67758Z" fill="white"/>
<path d="M18.2097 17.1121L20.3998 20.0697C20.5354 20.3036 20.5413 20.647 20.388 20.875C20.2554 21.0674 19.2502 21.8283 19.0262 21.923C18.6901 22.0651 18.3954 22.0207 18.1212 21.778L15.9576 18.9477C15.5685 19.451 15.3268 20.0816 14.9761 20.6085C14.6607 21.0822 14.1625 21.1651 13.8324 20.6677L11.5774 11.5818C11.4713 11.0962 11.8427 10.5929 12.3526 10.8031L19.9783 15.4423C20.2612 15.6703 20.3261 16.1055 20.0402 16.3631C19.9458 16.4489 19.7631 16.5229 19.6422 16.5762C19.1794 16.7805 18.6813 16.9285 18.2097 17.1121Z" fill="white"/>
<path d="M12.7771 7.29778C12.8861 7.43101 12.8213 7.57312 12.8154 7.70338C12.7977 8.29254 12.7505 8.88169 12.7181 9.47084C12.6002 9.80835 12.0667 9.78762 12.0225 9.41755L12.1227 7.49614C12.1109 7.15864 12.6149 7.10239 12.7771 7.29778Z" fill="white"/>
<path d="M9.54932 8.12378C9.66133 8.09714 9.81166 8.10602 9.8942 8.19188L11.0762 9.66624C11.2472 10.0097 10.8434 10.3442 10.5604 10.1222L9.39015 8.69517C9.23687 8.51754 9.31056 8.17707 9.54637 8.12378H9.54932Z" fill="white"/>
<path d="M8.20814 10.8149L10.1742 11.2442C10.525 11.3775 10.4071 11.9044 10.0328 11.8985L8.11382 11.4751C7.78662 11.3626 7.86326 10.8445 8.20519 10.8149H8.20814Z" fill="white"/>
</g>
<defs>
<clipPath id="clip0_90_378">
<rect width="20" height="22" fill="white" transform="translate(0.5)"/>
</clipPath>
</defs>
</svg>
