<svg width="15" height="20" viewBox="0 0 15 20" fill="none" xmlns="http://www.w3.org/2000/svg">
<g clip-path="url(#clip0_90_687)">
<path d="M4.13586 14.8154C4.75775 15.5526 5.32378 16.3291 5.82987 17.1393C6.26194 17.9012 6.44206 18.4179 6.75782 19.336C6.95147 19.8432 7.12649 19.9946 7.50278 19.9946C7.91282 19.9946 8.09885 19.7371 8.24258 19.3388C8.54106 18.4717 8.77526 17.8101 9.14475 17.1848C9.86979 15.9777 10.7707 14.9051 11.656 13.8742C11.8956 13.5824 13.4451 11.8826 14.1426 10.5414C14.1426 10.5414 15 9.06814 15 7.01054C15 5.08585 14.1545 3.75098 14.1545 3.75098L11.7202 4.3573L10.2419 7.97861L9.87612 8.47795L9.80299 8.56842L9.70573 8.68166L9.53499 8.86253L9.291 9.0894L7.97458 10.0869L4.68336 11.8543L4.13586 14.8154Z" fill="#34A853"/>
<path d="M0.739014 10.2938C1.54228 12.0002 3.09126 13.5003 4.13927 14.8167L9.70573 8.68404C9.70573 8.68404 8.92151 9.63794 7.49897 9.63794C5.91442 9.63794 4.63433 8.4611 4.63433 6.97717C4.63433 5.95957 5.29257 5.2605 5.29257 5.2605L1.51392 6.20219L0.739014 10.2938Z" fill="#FBBC04"/>
<path d="M9.7679 0.31543C11.6167 0.869817 13.199 2.03369 14.1562 3.74993L9.70743 8.68061C9.70743 8.68061 10.3657 7.96889 10.3657 6.95761C10.3657 5.43913 8.99089 4.30475 7.50571 4.30475C6.10128 4.30475 5.29468 5.25706 5.29468 5.25706V2.1508L9.7679 0.31543Z" fill="#4285F4"/>
<path d="M1.75867 2.49401C2.86287 1.26529 4.80583 0 7.48451 0C8.78412 0 9.76322 0.31733 9.76322 0.31733L5.29041 5.25973H2.12136L1.75867 2.49401Z" fill="#1A73E8"/>
<path d="M0.738984 10.2937C0.738984 10.2937 0 8.94779 0 6.99793C0 5.15504 0.770273 3.54414 1.75869 2.4939L5.29295 5.26005L0.738984 10.2937Z" fill="#EA4335"/>
</g>
<defs>
<clipPath id="clip0_90_687">
<rect width="15" height="20" fill="white"/>
</clipPath>
</defs>
</svg>
