 <title>Plats icon</title>
<svg  viewBox="0 0 30 20" fill="none" xmlns="http://www.w3.org/2000/svg">

<path d="M10.0078 0.00759254C11.7954 -0.075562 13.4236 0.444824 14.8253 1.64118L16.7697 1.67873C21.1688 1.67873 28.9763 4.10362 29.9024 9.53012C30.8286 14.9539 24.8933 18.197 20.8701 19.2726C14.9473 20.8526 5.82527 20.0612 1.54062 14.8332C-1.09341 11.6197 -0.142368 7.55856 2.80784 5.08806C3.14394 4.80641 4.16966 4.17873 4.34643 3.90244C4.46344 3.72004 4.55556 3.44107 4.67257 3.24257C5.89498 1.13957 7.70991 0.114889 10.0078 0.00759254ZM4.05265 7.0194C4.00037 6.97111 3.968 6.81553 3.85597 6.84772C3.80369 6.86113 3.59954 7.16693 3.60203 7.23935C3.60701 7.33592 3.82859 7.57734 3.82112 7.75706C3.81116 7.9797 3.52485 8.15673 3.55224 8.3606C3.57215 8.50813 3.86344 8.59128 3.89581 8.78442C3.9207 8.93731 3.7539 9.17873 3.8485 9.39332C3.94311 9.60791 4.3539 9.46575 4.50576 9.46575C5.10576 9.47379 5.71821 9.74472 5.89747 10.4019C5.92485 10.4985 5.88004 10.6567 5.99954 10.6675C6.04435 10.6701 6.66178 10.3885 6.81614 10.3456C7.43854 10.1766 8.08834 10.1712 8.71821 10.0371C8.91738 9.95931 8.96469 9.73667 9.0817 9.56768C9.67174 8.71467 10.7199 8.51618 11.661 8.60738C11.7655 8.61811 12.0917 8.73077 12.1414 8.71467C12.2186 8.69322 12.2908 8.24794 12.3531 8.11918C12.7489 7.29837 14.0136 7.10523 14.7829 7.19107C15.4502 7.26618 15.9083 7.95019 16.6925 7.93141C17.2053 7.918 16.8195 7.58807 16.7871 7.31446C16.7647 7.12937 16.8742 6.78334 16.8369 6.70019C16.7174 6.42927 16.1398 6.78603 16.1224 6.41585C16.1049 6.01886 16.8842 6.43731 16.8543 5.89547C16.8419 5.66746 16.5356 4.98077 16.4311 4.73935C15.0369 1.52047 12.2186 -0.0916564 8.92983 0.570897C6.94311 0.970575 5.52153 2.23667 4.69249 4.20019C4.50576 4.64279 4.00037 6.05373 4.11489 6.48023C4.15473 6.62776 4.5929 7.00867 4.26427 7.14279C4.21697 7.14279 4.09 7.05695 4.05016 7.0194H4.05265ZM4.0402 4.71253C1.97132 6.02691 0.143939 8.32304 0.46759 11.0859C1.07008 16.2013 7.95141 18.6315 11.9796 19.1492C16.9838 19.7957 24.2858 18.7388 27.8809 14.5516C31.5008 10.3375 28.7547 6.14761 24.7489 4.07948C21.8659 2.59075 18.5049 2.07573 15.3257 2.09182C15.3107 2.1562 15.3506 2.16693 15.378 2.20448C15.5821 2.48882 15.846 2.75437 16.0502 3.05212C16.3414 3.47594 16.5456 3.95609 16.8369 4.37455C16.8717 4.37455 17.0311 3.77637 17.0659 3.68785C17.1083 3.58592 17.3149 3.18892 17.3771 3.12455C17.6634 2.8268 18.2933 2.95287 18.6419 3.06285C19.217 3.24525 19.7099 3.61274 20.2053 3.95877C20.4269 4.00706 20.5663 3.81392 20.7755 3.75223C21.2809 3.6047 21.8062 3.80588 22.2692 4.01779C23.6734 4.65352 26.7257 6.8504 27.1091 8.49472C27.1639 8.7254 27.1788 8.85416 27.1166 9.08753C27.0668 9.26725 26.8975 9.43356 26.8875 9.55427C26.8726 9.72058 26.9497 9.94053 26.9622 10.1149C27.1639 13.2667 23.7556 15.6138 21.3531 16.4963C16.5605 18.2613 7.99622 18.0575 4.33398 13.7656C3.2485 12.4942 2.29 10.4207 3.5124 8.88098C3.35307 8.70395 3.17132 8.6342 3.13896 8.35255C3.09415 7.94214 3.37049 7.90727 3.38045 7.71682C3.38543 7.60952 3.24103 7.50759 3.21365 7.37616C3.10161 6.79139 3.52236 6.7592 3.64933 6.40513C3.71904 6.20931 3.74643 5.89815 3.80618 5.67551C3.84352 5.52798 4.09249 4.78764 4.0402 4.70985V4.71253ZM17.7132 3.40888C17.3298 3.52959 17.6361 4.34236 17.7531 4.58646C18.3979 5.9357 20.7531 8.39279 22.1398 8.72809C23.0585 8.95073 22.8394 8.0253 22.5556 7.45663C21.8585 6.05641 19.7 3.60201 18.1813 3.41424C18.0692 3.40083 17.8103 3.37937 17.7107 3.41424L17.7132 3.40888ZM26.6385 9.11704C26.9448 8.83807 26.4344 8.02798 26.2601 7.76779C25.8294 7.13206 25.1746 6.52583 24.5946 6.043C23.8402 5.418 21.8385 4.00974 20.9024 4.15191C20.7904 4.168 20.6211 4.2592 20.7058 4.39332C21.1813 4.84128 21.6269 5.32412 22.0278 5.85255C22.558 6.55266 22.8668 7.23935 23.5414 7.81607C24.0792 8.27744 24.7439 8.67444 25.3888 8.92927C25.6751 9.04193 26.3871 9.34236 26.6385 9.11435V9.11704ZM17.4991 5.01028C17.4269 5.13367 17.2302 5.36972 17.2377 5.51188C17.2427 5.57894 17.6012 6.16907 17.6361 6.16907C17.7207 6.01349 17.8875 5.69429 17.8626 5.51725C17.8502 5.43946 17.5514 4.99418 17.4991 5.01028ZM19.0775 7.92873L19.3514 7.28495C19.334 7.18839 18.9207 6.80749 18.8709 6.84504L18.597 7.52905C18.6518 7.61757 19.0053 7.98238 19.0775 7.92873ZM13.4759 9.77691C13.8568 10.1551 13.8419 10.6755 14.2875 10.9438C15.0319 11.389 16.9116 11.9282 17.7107 11.6358C18.0319 11.5205 18.2809 11.212 18.607 11.0671C19.2319 10.7855 19.9265 10.8391 20.5763 10.9786C20.6908 11.0028 21.0917 11.1557 21.1464 11.1503C21.4327 11.1208 21.4327 10.3375 21.4053 10.1229C21.3531 9.68839 20.9448 9.22701 20.5738 9.07143C19.9365 8.80856 19.4037 9.12776 18.8361 8.96146C18.4327 8.84075 18.2012 8.38206 17.8053 8.27744C17.3398 8.15405 16.8095 8.40083 16.2966 8.33377C15.6369 8.24794 15.261 7.64976 14.5141 7.59611C13.7672 7.54246 12.1962 8.04676 12.7315 9.14118C12.9257 9.53549 13.2145 9.5194 13.4759 9.77959V9.77691ZM24.2112 9.42015C24.2336 9.29139 24.4825 9.0768 24.4576 8.96682C24.4452 8.91049 23.8402 8.50008 23.8004 8.52959C23.8004 8.67444 23.519 8.93731 23.5713 9.05266C23.6087 9.13313 24.1215 9.47648 24.2087 9.42015H24.2112ZM13.2668 10.1498C13.1149 9.97809 12.9033 9.9298 12.7414 9.79837C12.4576 9.57304 12.3805 9.19483 11.9697 9.09558C11.3224 8.93731 9.38294 9.11972 9.31821 10.0773C9.27838 10.6943 9.92817 10.756 10.2842 11.0242C10.5431 11.22 10.7199 11.4776 10.8145 11.7994C10.8767 12.0113 10.9016 12.3976 10.9788 12.5559C11.0012 12.5988 11.0161 12.6417 11.0709 12.6417C11.9049 12.242 12.7116 11.778 13.5854 11.4776C13.6253 11.043 13.5556 10.477 13.2643 10.1498H13.2668ZM25.5232 9.43356L25.2269 9.9298C25.2419 9.99418 25.6377 10.1766 25.7149 10.1578C25.8493 10.1256 25.9414 9.68839 26.0908 9.59719L25.5207 9.43624L25.5232 9.43356ZM5.61614 10.6862C5.44684 10.5012 5.42942 10.2276 5.19788 10.0693C4.78211 9.78495 4.16966 9.9915 3.69166 9.86006C3.62444 9.84128 3.52236 9.68839 3.42278 9.81178C3.36303 9.88689 3.37049 10.4046 3.37796 10.5333C3.56718 13.7388 7.15224 15.7023 9.68668 16.4212C10.6427 16.6921 11.6684 16.8906 12.6543 16.947C12.5746 16.7404 12.3157 16.5312 12.1215 16.4534C11.5863 16.2415 10.6626 16.4051 10.2742 15.8633C9.9929 15.4716 10.1971 15.1471 10.2244 14.7233C10.2319 14.5999 10.2543 14.1331 10.1547 14.0848C10.1124 14.0634 9.70659 14.2914 9.61697 14.3289C8.94228 14.6026 8.22776 14.8359 7.52568 14.5221C7.32651 14.4336 7.15224 14.2673 6.96054 14.16C6.43025 13.8622 6.05431 13.8676 5.74809 13.2211C5.41946 12.521 5.41199 11.499 5.81531 10.8338C5.81531 10.8204 5.65348 10.7265 5.61614 10.6862ZM8.92236 10.4556C8.73315 10.4368 8.30742 10.5575 8.08834 10.587C7.7124 10.6353 7.4012 10.6406 7.02278 10.7479C6.38543 10.9303 5.82278 11.2039 5.96966 12.0462C5.99207 12.0891 6.03191 12.1026 6.06676 12.1294C6.31323 12.3091 7.7373 13.0575 7.98626 13.0897C8.56635 13.1648 10.0676 12.91 10.334 12.2581C10.6825 11.4051 9.42029 11.2469 9.11655 10.7479C9.05182 10.6433 9.05431 10.4663 8.92236 10.4529V10.4556ZM16.4037 17.0221C16.5157 17.065 16.6153 17.0623 16.7323 17.0596C19.217 16.9738 22.924 15.7667 24.7738 13.9373C25.6701 13.0494 26.5589 11.8128 26.5439 10.4395C25.6975 11.0135 24.6319 10.587 23.6958 10.6272L24.2485 10.9867C25.2294 11.9094 25.3489 13.0924 24.2858 14.0151C23.6535 14.5623 22.8543 14.3799 22.3912 14.7796C22.0477 15.08 21.9132 15.4019 21.4601 15.6487C20.4593 16.1932 19.0053 16.2549 17.9746 15.7989C17.8377 15.7399 17.5614 15.5253 17.4319 15.5736C17.3497 15.6031 17.1132 16.2388 17.0062 16.389C16.8444 16.6197 16.5854 16.8155 16.4012 17.0274L16.4037 17.0221ZM22.6576 12.9046C23.3746 13.0843 24.7439 13.0655 24.3506 11.8853C24.1365 11.2415 23.28 10.6943 22.6701 10.6272C22.5157 10.6111 21.9829 10.595 21.856 10.6406C21.6966 10.697 21.7738 10.8418 21.7489 10.9759C21.724 11.1101 21.6767 11.2469 21.6568 11.3863C21.6692 11.4615 22.0576 11.7002 22.1522 11.786C22.456 12.065 22.6875 12.4539 22.6576 12.9046ZM19.3141 11.3086C18.6344 11.3756 18.4551 11.7002 17.9423 12.0757C17.8128 12.1696 17.0211 12.6793 16.9987 12.7436C16.9489 12.8939 17.0634 13.0226 17.1481 13.1299C17.3722 13.4196 17.8377 13.9615 18.1489 14.109C18.5746 14.3129 18.9107 14.117 19.3365 14.1385C19.6576 14.1546 20.0037 14.3102 20.3273 14.2351C20.651 14.16 20.8975 13.8461 21.1539 13.6664C21.3282 13.5457 22.2045 13.0521 22.2518 12.9421C22.324 12.7732 22.2095 12.5478 22.1249 12.4057C21.6618 11.6251 20.1207 11.2254 19.3116 11.3059L19.3141 11.3086ZM13.9315 11.9067C13.5182 11.9497 12.8062 12.2554 12.4029 12.4298C11.7904 12.6954 10.4236 13.3955 10.7971 14.3289C10.934 14.6723 11.2402 14.4255 11.4892 14.4014C12.5622 14.3075 13.1249 15.7265 14.0261 15.823C15.6269 15.9974 18.7788 14.7474 16.2767 12.9502C15.9307 12.7007 14.9597 12.0435 14.6012 11.9497C14.3821 11.8933 14.158 11.8826 13.934 11.9067H13.9315Z" />
<path d="M11.1511 3.29685C11.3304 3.24588 11.8856 3.65361 11.8557 3.8682C11.7984 4.29202 11.0441 3.70457 11.0192 3.53022C11.0067 3.43901 11.069 3.31831 11.1511 3.29416V3.29685Z" />
<path d="M7.71537 3.24586C7.67553 3.27 7.52367 3.26464 7.47885 3.23513C7.21246 3.06614 7.83238 2.30434 7.96931 2.33384C8.10624 2.36335 8.12865 2.5377 8.09628 2.66378C8.08881 2.69865 7.74524 3.22708 7.71537 3.24318V3.24586Z" />
<path d="M9.98844 8.10878C9.76935 7.80299 10.3121 7.08142 10.571 7.34966C10.6208 7.40063 10.6034 7.42209 10.5909 7.4811C10.5785 7.54011 10.3121 8.03636 10.2723 8.0766C10.1826 8.1678 10.093 8.17853 9.98844 8.10878Z" />
<path d="M9.27624 3.70719C9.37333 3.68841 9.48786 3.74474 9.51524 3.84936C9.54512 3.97006 9.25134 4.46899 9.12935 4.48777C8.63391 4.56556 8.98744 3.76352 9.27873 3.70719H9.27624Z" />
<path d="M5.83804 3.48453C6.18907 3.37724 6.63223 4.27048 6.24633 4.26779C6.16916 4.26779 5.75837 3.85202 5.726 3.77691C5.6787 3.66425 5.73098 3.51672 5.83804 3.48453Z" />
<path d="M8.11369 8.81967C8.08132 8.7848 8.06141 8.66677 8.01659 8.60776C7.9195 8.47364 7.68796 8.34756 7.7751 8.15711L7.89709 8.06055C8.12614 8.08201 8.50705 8.45486 8.43983 8.72042C8.40249 8.87063 8.21327 8.92428 8.11618 8.82235L8.11369 8.81967Z" />
<path d="M5.23596 8.84381C5.14633 8.91355 5.17372 9.0128 4.98699 8.95647C4.4343 8.78479 5.42019 8.0069 5.57455 8.43608C5.63679 8.6158 5.36293 8.74456 5.23596 8.84381Z" />
<path d="M6.52545 6.15084C6.74205 6.17229 6.68728 6.38957 6.5603 6.50759C6.51549 6.54783 6.1545 6.81071 6.11715 6.81875C6.01508 6.84558 5.90802 6.73828 5.88064 6.63635C5.85823 6.4003 6.34122 6.13206 6.52545 6.15084Z" />
<path d="M17.1586 8.79559C17.2407 8.77144 17.6889 9.02091 17.8283 9.07187C18.0623 9.15503 18.2988 9.18722 18.5328 9.28647C18.7146 9.36157 19.1055 9.52252 18.9835 9.79344C18.8789 10.0268 18.6299 9.75857 18.498 9.69956C18.2988 9.60835 18.0748 9.58958 17.8706 9.51447C17.7187 9.45814 17.1088 9.1443 17.0441 9.01822C17.0017 8.93507 17.0864 8.81973 17.1586 8.79827V8.79559Z" />
<path d="M16.2224 9.3962C16.8597 9.31841 16.4091 10.2599 15.9585 9.73687C15.9062 9.5491 16.0631 9.41498 16.2224 9.3962Z" />
<path d="M14.4849 8.35027C14.5894 8.32613 14.7114 8.33418 14.7911 8.41733C14.8658 8.68557 14.7064 8.86529 14.45 8.78482C14.2658 8.72581 14.2782 8.40124 14.4849 8.35295V8.35027Z" />
<path d="M17.4724 10.4454C17.6542 10.3864 17.8185 10.5044 17.8234 10.7083C17.6019 11.2367 17.0815 10.5688 17.4724 10.4454Z" />
<path d="M14.7985 9.80678C15.0126 9.77728 15.2716 10.067 15.0624 10.2065C14.7687 10.405 14.3803 9.86043 14.7985 9.80678Z" />
<path d="M19.5561 9.84449C19.9594 9.7667 19.9171 10.4051 19.5661 10.2683C19.3544 10.1852 19.3345 9.88741 19.5561 9.84449Z" />
<path d="M13.7578 13.5542C14.0018 13.5221 14.9454 13.573 14.8707 14.0076C14.8283 14.2544 14.3055 13.9781 14.1611 13.9593C13.9395 13.9325 13.5312 14.0371 13.3719 13.9486C13.2848 13.8976 13.2922 13.7876 13.3445 13.7098C13.3993 13.6267 13.6582 13.5677 13.7553 13.5542H13.7578Z" />
<path d="M14.0865 15.1046C13.9122 14.9168 14.2085 14.5279 14.4077 14.7773C14.6068 15.0268 14.2359 15.2628 14.0865 15.1046Z" />
<path d="M13.0282 12.9157C13.1502 13.0499 13.083 13.3074 12.844 13.2832C12.473 13.2484 12.824 12.6904 13.0282 12.9157Z" />
<path d="M15.926 13.8144C16.0928 13.632 16.3965 13.9324 16.1949 14.1229C15.9932 14.3133 15.7816 13.9727 15.926 13.8144Z" />
<path d="M19.2226 4.75614C19.3396 4.55496 19.845 5.04316 19.9471 5.14241C20.3056 5.48844 20.7139 6.01151 21.0226 6.41655C21.0998 6.51848 21.5653 7.14348 21.5678 7.19981C21.5678 7.29638 21.4185 7.38758 21.3388 7.35003C21.1944 7.28565 20.6467 6.4702 20.4873 6.28243C20.1014 5.82374 19.6458 5.40797 19.2525 4.95732C19.2176 4.91172 19.2002 4.79638 19.2251 4.75346L19.2226 4.75614Z" />
<path d="M20.0442 12.6905C20.2782 12.9426 19.7454 13.2538 19.6184 12.9802C19.5263 12.779 19.8998 12.5349 20.0442 12.6905Z" />
<path d="M17.9924 12.5403C18.2289 12.5001 18.3608 12.9185 18.0795 12.9776C17.7982 13.0366 17.7235 12.5859 17.9924 12.5403Z" />
<path d="M22.6905 5.75888C22.7627 5.68109 23.1685 5.96811 23.2581 6.02712C23.7361 6.34096 24.2664 6.78356 24.717 7.14836C24.8141 7.22615 25.1079 7.43002 25.1229 7.53731C25.1602 7.80287 24.9112 7.66875 24.7768 7.60974C24.3834 7.43806 23.2283 6.48849 22.8996 6.15051C22.7876 6.03785 22.6556 5.94128 22.693 5.7562L22.6905 5.75888Z" />
<path d="M11.5866 10.2976C11.7011 10.1742 12.0596 10.2707 11.9899 10.5229C11.98 10.5578 11.8505 10.7026 11.8206 10.7187C11.5841 10.8367 11.4397 10.4585 11.5866 10.2976Z" />
<path d="M10.6657 10.2198C10.9321 10.142 11.0641 10.6704 10.6583 10.5899C10.4915 10.5551 10.5064 10.268 10.6657 10.2198Z" />
<path d="M7.33216 11.5694C7.50893 11.7598 7.20768 12.0629 7.04586 11.8591C6.85664 11.6203 7.17283 11.4004 7.33216 11.5694Z" />
<path d="M8.65134 12.0736C8.57416 12.1541 8.40487 12.1273 8.3501 12.0226C8.36006 11.7651 8.56918 11.5666 8.72354 11.8483C8.7335 11.8939 8.67873 12.0441 8.64885 12.0736H8.65134Z" />
<path d="M22.7328 11.3064C23.0141 11.0033 23.5295 11.7973 22.7602 11.6524C22.6631 11.6015 22.6731 11.3735 22.7328 11.3064Z" />
</g>

</svg>
