 <title>Side icon</title>
<svg viewBox="0 0 26 20" fill="none" xmlns="http://www.w3.org/2000/svg">

<path d="M22.2655 15.365C22.2249 15.4105 22.1788 15.5281 22.1354 15.5897C19.6178 19.1173 15.9484 20.3476 11.6476 19.9117C8.60427 19.6041 6.15711 18.3738 4.21402 16.0524C4.02974 15.833 3.85901 15.5228 3.6395 15.3436C3.23028 15.012 2.78042 14.7525 2.37662 14.3861C-1.225 11.1393 -0.542076 6.614 3.14898 3.78704C6.74519 1.03229 11.5799 0.588324 15.9837 1.04834L17.0433 0.0347004C17.1327 -0.00541724 17.2005 -0.00809174 17.298 0.00528082C17.4091 0.0186534 18.0623 0.224591 18.1354 0.280756C18.4932 0.564254 17.8156 1.09381 17.6774 1.34521V1.4201C20.0867 2.00849 22.4525 3.10237 24.1436 4.93441C27.0053 8.03417 26.4552 12.1395 23.2113 14.6964C22.9864 14.8729 22.4119 15.2019 22.2655 15.365ZM9.27635 7.66776C9.58801 7.75602 9.89695 7.86032 10.1869 8.00742C10.4986 7.75067 10.7533 7.40833 11.0379 7.11681C12.4335 5.68594 14.2086 4.8194 15.5826 3.34575C16.3739 2.49525 16.9891 1.50301 17.7289 0.612395C17.8048 0.510764 17.3848 0.39576 17.3278 0.393085C17.2682 0.393085 17.2032 0.433203 17.1571 0.465297C16.9891 0.58565 16.7127 0.949384 16.5501 1.1152C15.5365 2.14222 14.4552 3.26819 13.2818 4.11066C12.5257 4.65358 11.7154 5.11895 11.0162 5.74478C10.504 6.19945 9.7208 7.00715 9.32784 7.5581C9.30345 7.59287 9.27364 7.62229 9.27906 7.66776H9.27635ZM15.6558 1.44417C15.6503 1.41207 15.6232 1.40138 15.5934 1.39603C15.1544 1.32649 14.6503 1.36928 14.2059 1.29707C10.6178 1.15532 6.76416 1.70894 3.79397 3.81111C0.181501 6.37062 -0.98923 10.5455 2.57446 13.779C6.02703 16.9135 12.1002 17.7614 16.5772 16.943C20.2086 16.2797 25.3848 13.8539 25.5826 9.66294C25.7885 5.33291 21.2005 2.62095 17.4525 1.78651L17.3848 1.79185L16.2736 3.20667C16.3495 3.20667 16.4227 3.21737 16.4959 3.1933C16.6341 3.14783 17.0596 2.78677 17.2438 2.68247C17.4444 2.57014 17.6341 2.44978 17.8265 2.66642C18.0514 2.92317 17.8265 3.31365 17.84 3.58378C17.84 3.6132 17.8644 3.66936 17.8888 3.68273C17.9024 3.69076 18.1734 3.7175 18.2221 3.72018C19.1869 3.77099 20.1707 3.78437 21.1192 3.97158C21.4498 4.03577 21.6774 4.08391 21.6368 4.49044C21.6016 4.8301 21.1192 4.76859 20.9159 4.94243C21.3495 5.14034 21.7479 5.45326 22.0704 5.80095C22.1409 5.87583 22.1652 6.01758 22.2709 5.95072C22.4335 5.84374 22.6422 5.55222 22.8048 5.44791C22.924 5.37303 23.0514 5.36768 23.1815 5.41582C23.2736 5.45059 23.7045 5.73141 23.756 5.80362C23.8509 5.932 23.9159 6.19143 23.8238 6.33318L23.1219 7.18635C24.3278 9.83411 22.6666 12.3642 20.4742 13.8325C17.3658 15.9133 13.4254 16.376 9.78855 15.5923C6.86985 14.9638 3.07039 12.99 2.50399 9.79934C1.86443 6.1941 5.57988 4.01705 8.62595 3.3404L8.92405 2.8991C8.73164 2.6156 8.52296 2.18233 8.97554 2.01919C9.10291 1.97372 9.68015 1.84 9.80752 1.83465C10.0162 1.82662 10.1327 1.90151 10.2655 2.04326C10.5121 2.31071 10.7127 2.67979 10.9484 2.96329L11.0243 3.01143L11.9376 2.96329C12.0053 2.78142 12.0623 2.57549 12.2601 2.49258C12.4444 2.41234 12.9566 2.35885 13.1598 2.3749C13.5419 2.40432 13.6205 2.66375 13.6964 2.98469C13.8184 2.97934 13.9647 3.05422 14.0785 2.99004L15.653 1.44417H15.6558ZM9.81565 2.21175L9.1273 2.38827C9.67202 3.3511 10.2872 4.27648 10.9728 5.14569C10.9999 5.17244 11.0324 5.17244 11.0677 5.16441C11.2059 5.12965 11.523 4.78196 11.6829 4.7151L11.7045 4.62149C11.3495 4.16415 10.981 3.71483 10.6314 3.25481C10.4146 2.97131 10.2113 2.61828 9.98096 2.3535C9.94573 2.31338 9.86172 2.21175 9.81565 2.21175ZM13.1436 2.69851C13.0243 2.70654 12.5934 2.79212 12.4823 2.83224C12.4417 2.84561 12.3983 2.85899 12.382 2.90713L12.504 3.95553L12.588 4.11333C12.8427 3.95821 13.1246 3.81646 13.3143 3.58378C13.3251 3.47145 13.2384 2.73596 13.1978 2.70386C13.1788 2.68782 13.1625 2.69851 13.1409 2.69851H13.1436ZM16.523 3.67471H17.3062C17.3062 3.67471 17.3956 3.61052 17.4037 3.59982C17.4823 3.50622 17.5257 3.16923 17.5311 3.03818C17.5311 3.00608 17.5582 3.00341 17.504 3.01411C17.3983 3.03283 17.1625 3.19865 17.0623 3.26284C16.8753 3.38586 16.691 3.52761 16.523 3.67471ZM6.3712 7.52066C6.56904 7.48589 6.77771 7.45915 6.97825 7.44845C7.14085 7.43775 7.37662 7.47519 7.52296 7.44845C7.56362 7.44042 7.58801 7.41903 7.60969 7.38961C8.15169 6.15131 8.8021 4.9665 9.43082 3.77099C9.49044 3.69878 9.18963 3.29226 9.15982 3.28691C9.12459 3.27888 9.11917 3.3083 9.10291 3.32702C8.88069 3.56238 8.60969 3.96356 8.40914 4.23368C7.87256 4.95313 7.33597 5.72874 6.88611 6.50434C6.81836 6.61935 6.33326 7.47787 6.36849 7.52601L6.3712 7.52066ZM21.1896 4.43427C21.1815 4.38881 21.1381 4.39415 21.1029 4.38346C20.9376 4.33799 20.7018 4.31392 20.5284 4.28985C18.8671 4.05984 17.1951 4.04647 15.5203 4.06786C15.4688 4.07589 15.4281 4.10263 15.3848 4.12938C15.1842 4.24973 14.6232 4.73382 14.439 4.91034C14.3848 4.96115 14.3035 5.01464 14.3143 5.09488L16.5338 5.04406C16.6991 5.01464 16.6856 4.62951 16.8807 4.55195C17.2032 4.42892 17.401 4.73649 17.5446 4.96383C18.775 4.95848 20.0053 4.74719 21.1896 4.42892V4.43427ZM9.71267 4.11601C9.67473 4.1267 9.35765 4.73649 9.31158 4.82475C9.00535 5.41849 8.89695 5.95072 8.78584 6.60865C8.74519 6.85203 8.67744 7.21577 8.66931 7.45112C8.6666 7.55543 8.76145 7.52333 8.83462 7.48857C8.95115 7.4324 9.317 6.94029 9.43624 6.80924C9.54735 6.68354 9.79939 6.50434 9.83462 6.34655C9.90779 6.03631 9.88069 5.5121 9.89424 5.18046C9.90237 4.97185 9.97825 4.48776 9.89966 4.31927C9.87527 4.26578 9.775 4.09728 9.71267 4.11601ZM16.2764 10.484C16.2926 10.5027 16.4661 10.3904 16.4986 10.3717C16.672 10.2674 17.065 10.016 17.168 9.85551C17.2899 9.66294 17.2303 9.45433 17.2465 9.2484C17.3306 8.17057 17.5203 7.03122 17.569 5.96677C17.588 5.54954 17.4471 5.35965 17.1598 5.07348C17.1219 5.03604 17.0541 4.95045 17.0162 5.03069C16.962 5.14837 16.9186 5.37838 16.8861 5.51478C16.4877 7.1382 16.214 8.8071 16.2791 10.4867L16.2764 10.484ZM15.0352 7.32275C14.8942 7.03657 14.7208 6.7611 14.5501 6.49097C14.4037 6.26096 14.2465 6.01491 14.0894 5.7956C14.0352 5.71804 13.859 5.44256 13.7831 5.43454L13.1869 5.82769L13.1734 5.86514C13.5961 6.33318 14.1517 6.76645 14.6801 7.12216C14.7289 7.15425 15.0053 7.34682 15.0352 7.32275ZM16.9701 14.1829C17.0677 14.2631 17.4579 13.7282 17.5121 13.6506C18.8129 11.8427 19.6232 9.45968 19.7262 7.23716C19.7479 6.77714 19.5474 6.02561 19.3414 5.60838C19.2601 5.43989 19.1788 5.51745 19.1002 5.64048C18.7479 6.19143 18.6558 7.8202 18.5257 8.52895C18.4119 9.14944 18.2438 9.75388 18.0731 10.361C17.7181 11.6367 17.2899 12.8964 16.9674 14.1829H16.9701ZM15.7479 5.66455C15.7072 5.67257 15.6856 5.69664 15.6558 5.72071C15.5528 5.7956 15.1219 6.21817 15.046 6.3198C15.0243 6.34922 14.9999 6.37864 14.9972 6.41609C14.9918 6.4669 15.4037 7.11413 15.4498 7.12751C15.5419 7.14355 15.5717 6.98843 15.6016 6.91622C15.6856 6.70761 15.9566 5.9534 15.9322 5.77153C15.9186 5.66455 15.8536 5.64315 15.7506 5.66722L15.7479 5.66455ZM21.1165 8.47546C21.1598 8.48616 21.1652 8.45674 21.1896 8.43802C21.6829 8.06893 22.3414 7.4324 22.7669 6.98041C22.8807 6.86006 23.4606 6.21282 23.4688 6.10584C23.4742 6.047 23.0921 5.78223 23.0026 5.84107L21.1273 7.46717L21.065 7.67846L21.1165 8.47279V8.47546ZM19.4281 13.9876C19.4579 14.0117 19.8969 13.7362 19.962 13.6934C20.0867 13.6159 20.336 13.4661 20.4335 13.3752C20.4606 13.3484 20.4932 13.3324 20.4959 13.2896C20.588 12.4016 20.6395 11.511 20.6693 10.6204C20.7154 9.26444 20.7669 7.65706 20.5934 6.31445C20.5772 6.18073 20.5663 6.09514 20.4064 6.0791C20.3333 6.07375 19.9999 6.14329 19.9782 6.2155C20.0568 6.50969 20.0894 6.78784 20.0758 7.09274C20.0487 7.70253 19.9132 8.36313 19.8536 8.97827C19.7533 10.0053 19.7127 11.0376 19.6287 12.0647C19.5772 12.7065 19.5067 13.3511 19.4308 13.9876H19.4281ZM12.794 6.12724C12.7587 6.13794 12.2222 6.56586 12.2032 6.60063C12.168 6.66214 12.168 6.68889 12.2032 6.7504C12.2574 6.84133 12.588 7.11413 12.6883 7.20239C13.4877 7.87904 14.7479 8.69744 15.6856 9.16816C15.7235 9.18688 15.8156 9.24839 15.8509 9.227C15.878 9.19758 15.8915 9.16281 15.8997 9.12537C15.9186 9.01839 15.9647 8.5557 15.9457 8.47011C15.9376 8.43267 15.9159 8.40592 15.8915 8.37918C14.8427 7.7052 13.7614 7.0446 12.8888 6.14863C12.8617 6.12189 12.8292 6.11922 12.794 6.12991V6.12724ZM17.9511 6.19678C17.9051 6.19678 17.8698 6.52307 17.8644 6.57656C17.8373 6.80656 17.8156 7.1596 17.84 7.38426C17.8482 7.46984 18.1029 8.27755 18.1517 8.27755C18.1923 8.24278 18.1951 8.18394 18.2059 8.1358C18.2601 7.88974 18.382 7.11948 18.3631 6.89482C18.3441 6.67016 18.0758 6.38132 17.9539 6.19678H17.9511ZM12.4037 7.96195C12.439 7.92719 12.0243 7.14355 11.962 7.06332C11.8997 6.98308 11.859 6.91622 11.7452 6.98308C11.71 7.0018 11.2736 7.4324 11.2655 7.46717C11.252 7.51531 11.2655 7.52333 11.3035 7.54473C11.4037 7.60357 11.7208 7.67043 11.8644 7.7266C12.0487 7.79881 12.2194 7.89777 12.4037 7.96463V7.96195ZM7.01077 7.79613C5.66931 7.87102 2.98367 8.72687 3.67202 10.5375C4.22486 11.9924 6.53922 12.4471 7.92405 12.3696C9.30887 12.292 11.8129 11.2382 11.1381 9.46503C10.5826 8.00742 8.3712 7.71857 7.01348 7.79613H7.01077ZM10.9322 7.81753C10.8563 7.83358 10.5907 8.15184 10.5907 8.21871C10.6016 8.28557 10.6801 8.30429 10.7262 8.35243C10.8807 8.50221 11.0704 8.74024 11.2222 8.86594C11.4173 9.02641 11.7371 9.17886 11.962 9.33665C12.9132 10.0133 13.756 10.9093 14.5338 11.7705C14.6503 11.7357 15.1978 11.3318 15.2059 11.2543L15.1923 11.1954C14.1598 9.93307 12.9891 8.46744 11.3766 7.92986C11.2818 7.89777 11.0053 7.80148 10.9295 7.81753H10.9322ZM13.4579 8.25615C13.4362 8.25615 13.2953 8.59581 13.3333 8.64663L14.2276 9.50515C14.2872 9.50515 14.3983 9.01036 14.3875 8.9328C14.3848 8.90606 14.3766 8.88199 14.3604 8.86059L13.4579 8.25882V8.25615ZM15.653 9.55596C15.5528 9.54259 15.3766 9.38212 15.2899 9.42491L14.775 10.0213C14.7289 10.147 14.9566 10.2888 15.0487 10.3637C15.0894 10.3958 15.0867 10.4867 15.1869 10.4198C15.2465 10.3048 15.7154 9.63887 15.653 9.55596ZM17.8129 9.87156C17.7506 9.86086 17.7127 9.90633 17.6666 9.93574C17.5257 10.0267 17.3793 10.1711 17.2411 10.2754C15.2628 11.7437 12.8265 13.2628 11.1734 15.0655C11.1409 15.1029 10.8861 15.3837 10.9132 15.4078C11.0514 15.4105 11.2113 15.472 11.3468 15.4586C11.4281 15.4506 11.5067 15.3864 11.5799 15.3463C12.0324 15.0895 12.504 14.7499 12.9403 14.461C14.439 13.4661 15.9268 12.4364 17.3495 11.3425L17.8102 9.87423L17.8129 9.87156ZM12.3035 10.1417C12.1002 10.698 11.8753 11.2489 11.7018 11.8133C11.6558 11.9657 11.5528 12.2438 11.5392 12.3909C11.5365 12.4337 11.5365 12.4444 11.5717 12.4712C11.6097 12.4792 12.0731 12.1101 12.1409 12.054C12.3875 11.848 12.7669 11.5271 12.9268 11.2623C12.981 11.174 13.111 10.9387 13.0921 10.8478C13.0731 10.7568 12.6232 10.353 12.5257 10.2781C12.4904 10.2513 12.3333 10.123 12.3035 10.1444V10.1417ZM20.943 12.6156C21.1083 12.4926 21.2276 12.3321 21.3495 12.1716C21.5934 11.8534 21.8563 11.4415 22.0324 11.0804C22.1165 10.9093 22.4715 10.1604 21.9864 10.5455C21.7804 10.7087 21.4959 10.9628 21.3035 11.1446C21.2005 11.2409 21.0975 11.3372 21.0324 11.4656L20.9457 12.6156H20.943ZM19.2791 11.1954L19.2086 11.2356L18.6856 12.4578C18.7831 12.8269 18.943 13.1853 19.1192 13.5223L19.2791 11.1954ZM13.5121 11.2971C13.4633 11.3104 13.0704 11.733 12.9837 11.8079C11.9999 12.6744 10.9051 13.5276 9.88069 14.3567C9.60698 14.576 9.32242 14.782 9.05142 15.0066C9.07039 15.0387 9.1002 15.0387 9.13001 15.0494C9.29803 15.1109 9.89153 15.266 10.0623 15.2821C10.0948 15.2848 10.1083 15.2901 10.1409 15.2741C10.1761 15.258 10.3712 15.0628 10.4281 15.0173C11.6558 14.0384 12.8536 13.0221 14.1273 12.1021C14.1571 12.0807 14.168 12.054 14.1652 12.0165C14.1598 11.971 13.6205 11.3078 13.5745 11.2944C13.5501 11.289 13.5338 11.289 13.5121 11.2944V11.2971ZM6.84275 14.1588L6.58529 12.7119C6.04058 12.5675 5.49315 12.4926 4.98096 12.2358C4.75061 12.1208 4.55277 11.9497 4.31158 11.856C4.2899 11.8774 4.43082 12.4097 4.45521 12.4605C4.56091 12.6798 5.53109 13.3564 5.78313 13.5249C6.12459 13.7549 6.48231 13.9582 6.84275 14.1561V14.1588ZM16.9918 14.6268C16.8455 14.6215 16.7045 14.5573 16.6449 14.4182C16.5446 14.1909 16.6747 13.9529 16.6503 13.7041C16.6314 13.5276 16.3712 12.9392 16.2655 12.7868C16.2222 12.7253 16.1544 12.6985 16.0812 12.7253C16.0514 12.736 15.6232 13.0596 15.5717 13.105C15.5392 13.1318 15.4986 13.1719 15.4959 13.2147L16.1327 15.1724C16.1761 15.234 16.2682 15.2126 16.336 15.2045C16.5663 15.1751 16.84 15.0414 17.0758 15.0039C17.1354 14.9638 17.0108 14.6964 16.9972 14.6268H16.9918ZM18.1381 14.6001C18.2628 14.5573 18.9349 14.3139 18.9539 14.2176C18.8726 14.0705 18.4932 12.9258 18.4227 12.9098C18.382 12.9018 18.3712 12.9419 18.3577 12.966C18.298 13.0542 17.8997 13.664 17.8915 13.7068C17.8509 13.9234 18.1192 14.3621 18.1381 14.6001ZM12.7018 15.5308C12.7371 15.5656 13.401 15.5602 13.5094 15.5576C13.8915 15.5442 14.3414 15.5014 14.7235 15.4586C15.0379 15.4238 15.3522 15.365 15.6612 15.3062C15.71 15.2901 15.7072 15.2447 15.7045 15.2019C15.7045 15.1484 15.5799 14.7365 15.5501 14.691C15.5013 14.6081 15.4281 14.6215 15.3414 14.6268L13.0324 15.1644C12.8671 15.2313 12.7804 15.3891 12.6991 15.5335L12.7018 15.5308ZM17.5148 17.3923C15.3712 17.9272 13.1246 18.0074 10.924 17.7828C9.29803 17.6169 7.68015 17.2265 6.17066 16.6193C5.67473 16.4188 5.19505 16.1834 4.70454 15.9721C6.40914 18.0047 8.84817 19.1361 11.4932 19.4249C12.588 19.5453 15.0677 19.6308 16.0135 19.112C16.6774 18.7456 17.1896 18.0609 17.5094 17.3923H17.5148Z" />
<path d="M6.96211 8.09049C7.86184 8.03433 8.81306 8.10386 9.63962 8.47027C11.1356 9.13623 11.4608 10.5564 9.94314 11.4497C8.65588 12.2092 6.73989 12.2868 5.36862 11.7064C3.7426 11.0164 3.2277 9.63368 4.94856 8.62807C5.51496 8.29643 6.30629 8.13328 6.96211 8.09049ZM7.15995 9.97602C6.53393 10.0161 5.70466 10.2221 5.15453 10.5189C4.97295 10.6152 4.77241 10.7383 4.66401 10.9121C5.14369 11.3534 5.82932 11.5674 6.46618 11.677C7.70737 11.8883 9.16537 11.7305 10.141 10.888C9.95669 10.6206 9.63962 10.436 9.34423 10.3077C8.68027 10.0215 7.88352 9.93056 7.16266 9.97602H7.15995Z" />
<path d="M6.86163 10.7113C6.90228 10.7568 6.92667 10.8477 6.91583 10.9066C6.85621 11.2035 5.99442 11.1098 6.21393 10.7301C6.32776 10.5348 6.72613 10.5616 6.86163 10.7113Z" />
<path d="M8.2763 10.4624C8.57983 10.425 8.91587 11.1203 8.3305 10.9866C8.05408 10.9224 8.01343 10.4945 8.2763 10.4624Z" />
<path d="M7.57963 11.2488C7.90484 11.1792 7.9753 11.6125 7.66636 11.6553C7.35741 11.6981 7.34386 11.2996 7.57963 11.2488Z" />
</g>

</svg>
