<svg width="21" height="20" viewBox="0 0 21 20" fill="none" xmlns="http://www.w3.org/2000/svg">
<g clip-path="url(#clip0_90_892)">
<path d="M11.79 2.05005C16.5 2.05005 20.7101 6.27005 19.09 11.21C18.4 13.04 17 14.5 15.22 15.31C15.1 15.21 15 15.12 14.85 15.04C13.83 14.5 12.57 14.92 12.05 15.94H8.50005C8.44005 15.8 8.35005 15.67 8.24005 15.55C7.47005 14.69 6.16005 14.61 5.31005 15.37C3.82005 14.93 2.50005 14 1.55005 12.79C4.50005 12.79 3.93005 9.50005 4.31005 7.50005C4.90005 4.50005 7.86005 2.50005 10.73 2.12005C11.08 2.07005 11.44 2.05005 11.79 2.05005ZM15.39 10.12C15.39 9.92005 15.28 9.75005 15.1 9.65005C14.85 9.50005 14.53 9.62005 14.39 9.88005C14 10.96 12.96 11.66 11.82 11.6C11.26 11.65 10.7 11.5 10.23 11.18C9.76005 10.87 9.41005 10.4 9.24005 9.86005C9.18005 9.58005 8.90005 9.40005 8.62005 9.45005C8.34005 9.50005 8.15005 9.79005 8.21005 10.07H8.18005C8.61005 11.64 10.08 12.71 11.71 12.64H11.82C12.66 12.63 13.47 12.36 14.16 11.88C14.76 11.45 15.2 10.83 15.39 10.12ZM14.16 8.29005C14.75 8.27005 15.18 7.80005 15.16 7.25005C15.13 6.61005 14.62 6.16005 14.04 6.19005C13.46 6.23005 13 6.73005 13.04 7.31005C13.07 7.90005 13.58 8.34005 14.16 8.31005V8.29005ZM10.41 7.64005C10.46 7.52005 10.48 7.38005 10.47 7.25005C10.44 6.61005 9.93005 6.16005 9.35005 6.19005C8.77005 6.23005 8.32005 6.73005 8.35005 7.31005C8.38005 7.90005 8.89005 8.34005 9.47005 8.31005L9.50005 8.29005C9.64005 8.29005 9.77005 8.26005 9.89005 8.20005C10.01 8.15005 10.12 8.07005 10.21 7.97005C10.3 7.88005 10.37 7.76005 10.41 7.64005Z" fill="white"/>
<path d="M20.3899 7.82C20.5999 9.07 20.4999 10.34 20.0799 11.54C19.6899 12.71 18.9999 13.77 18.0799 14.6C17.4199 15.24 16.6499 15.77 15.8199 16.18C16.2299 17.25 15.6899 18.45 14.6199 18.86C14.3799 18.95 14.1299 19 13.8799 19C13.3499 19 12.8299 18.79 12.4499 18.42C12.0599 18.04 11.8399 17.54 11.8099 17H8.73994C8.62994 18.14 7.60994 19 6.46994 18.87C5.40994 18.77 4.60994 17.89 4.58994 16.83C4.59994 16.64 4.62994 16.44 4.68994 16.26C3.10994 15.73 1.70994 14.74 0.689944 13.41C0.359944 12.97 0.459944 12.34 0.919944 12C1.09994 11.86 1.31994 11.78 1.54994 11.78C2.26994 11.78 2.54994 11.53 2.71994 11.15C2.95994 10.43 3.09994 9.68 3.10994 8.92C3.13994 8.39 3.19994 7.87 3.27994 7.35C3.63994 5.62 4.59994 4.07 5.99994 3C7.65994 1.7 9.68995 1 11.7899 1C13.2199 1 14.6299 1.35 15.8999 2C17.1499 2.62 18.2199 3.52 19.0399 4.63C19.7299 5.57 20.1899 6.67 20.3899 7.82ZM19.0899 11.21C20.7099 6.27 16.4999 2.05 11.7899 2.05C11.4399 2.05 11.0799 2.07 10.7299 2.12C7.85994 2.5 4.89994 4.5 4.30994 7.5C3.92994 9.5 4.49994 12.79 1.54994 12.79C2.49994 14 3.81994 14.93 5.30994 15.37C6.15994 14.61 7.46994 14.69 8.23994 15.55C8.34994 15.67 8.43994 15.8 8.49994 15.94H12.0499C12.5699 14.92 13.8299 14.5 14.8499 15.04C14.9999 15.12 15.0999 15.21 15.2199 15.31C16.9999 14.5 18.3999 13.04 19.0899 11.21Z" fill="black"/>
<path d="M15.1001 9.64998C15.2801 9.74998 15.3901 9.91998 15.3901 10.12C15.2001 10.83 14.7601 11.45 14.1601 11.88C13.4701 12.36 12.6601 12.63 11.8201 12.64H11.7101C10.0801 12.71 8.61005 11.64 8.18005 10.06H8.21005C8.15005 9.78998 8.34005 9.49998 8.62005 9.44998C8.90005 9.39998 9.18005 9.57998 9.24005 9.85998C9.41005 10.4 9.76005 10.87 10.2301 11.18C10.7001 11.5 11.2601 11.65 11.8201 11.6C12.9601 11.66 14.0001 10.96 14.3901 9.87998C14.5301 9.61998 14.8501 9.49998 15.1001 9.64998Z" fill="black"/>
<path d="M15.16 7.24989C15.18 7.79989 14.75 8.26989 14.16 8.28989V8.30989C13.58 8.33989 13.07 7.89989 13.04 7.30989C13 6.72989 13.46 6.22989 14.04 6.18989C14.62 6.15989 15.13 6.60989 15.16 7.24989Z" fill="black"/>
<path d="M10.47 7.24989C10.48 7.37989 10.46 7.51989 10.41 7.63989C10.37 7.75989 10.3 7.87989 10.21 7.96989C10.12 8.06989 10.01 8.14989 9.89005 8.19989C9.77005 8.25989 9.64005 8.28989 9.50005 8.28989L9.47005 8.30989C8.89005 8.33989 8.38005 7.89989 8.35005 7.30989C8.32005 6.72989 8.77005 6.22989 9.35005 6.18989C9.93005 6.15989 10.44 6.60989 10.47 7.24989Z" fill="black"/>
</g>
<defs>
<clipPath id="clip0_90_892">
<rect width="20.5" height="18.5" fill="white" transform="translate(0.25 0.75)"/>
</clipPath>
</defs>
</svg>
