 <title>Burger icon</title>
<svg viewBox="0 0 24 24" fill="none" xmlns="http://www.w3.org/2000/svg">
<path d="M19.3462 7.42471C19.6217 7.6877 20.0209 8.21637 19.9977 8.62696C19.9642 9.1932 19.5419 9.58768 19.0346 9.70844C19.3745 10.4196 19.2252 11.3937 18.5247 11.7909C18.9677 12.1103 19.2355 12.8375 19.1943 13.385C19.1814 13.5674 19.0346 13.8573 19.0372 13.9727C19.0372 14.0532 19.2149 14.335 19.2535 14.4423C19.6938 15.6284 19.2947 16.9515 18.4707 17.8317C16.9076 19.5009 13.3514 19.8792 11.2115 19.9705C8.82435 20.0751 5.99432 19.9249 3.71536 19.1386C1.55742 18.3952 -0.14214 16.4604 1.05013 14.0263C0.741119 13.4064 0.710217 12.5047 1.21236 11.9841C1.29476 11.8983 1.42094 11.8446 1.49305 11.7775C1.51622 11.756 1.51622 11.756 1.5085 11.7185C1.22781 11.646 1.05528 11.3374 0.960002 11.0744C0.800346 10.6396 0.797771 10.1566 1.02695 9.74602C1.02695 9.71918 0.707642 9.60915 0.65099 9.57963C0.156571 9.31396 -0.041711 8.8658 0.00721585 8.29151C0.063868 7.6394 0.64069 7.23954 1.15828 6.98729C1.11966 6.8048 1.03983 6.66794 1.02438 6.47204C0.869873 4.44324 2.52051 2.59425 4.06042 1.60669C8.01577 -0.929299 15.2621 -0.599218 18.1411 3.57376C18.7926 4.51839 19.2741 5.86286 18.8492 7.00339C18.8595 7.06243 19.2715 7.35225 19.3462 7.42203V7.42471ZM9.31104 0.793565C6.62779 0.930428 2.72137 2.48154 1.91794 5.44959C1.71193 6.20636 1.6939 6.71356 2.35828 7.18319C3.71793 8.14391 6.49904 8.38544 8.12392 8.47668C10.5625 8.61086 13.5085 8.56255 15.8775 7.91581C16.5445 7.73332 18.1926 7.18319 18.2698 6.32444C18.3342 5.61597 17.9299 4.70087 17.5514 4.13195C15.8106 1.51813 12.2106 0.643284 9.31104 0.793565ZM0.952277 8.97046C1.01923 9.03486 1.10678 9.05633 1.19691 9.06438C1.81236 9.12611 2.55141 8.73699 3.00463 9.44545C3.27759 9.87483 3.08188 10.4545 3.85184 10.374C4.72479 10.2854 5.06728 9.48302 6.11792 9.75407C6.7823 9.92582 6.93423 10.5028 7.49817 10.7228C8.59002 11.1468 8.98916 10.0332 10.0604 10.0546C10.9025 10.0734 11.2733 10.8839 12.2029 10.8007C12.7411 10.7524 12.96 10.2022 13.3874 9.93923C13.7711 9.70308 14.1625 9.64672 14.5977 9.75675C15.3805 9.95533 15.8209 10.6933 16.6578 10.1002C17.075 9.80505 16.9771 9.25492 17.3505 9.00266C17.8784 8.64574 18.378 9.12611 18.9059 8.97314C19.3642 8.83896 19.1943 8.39617 18.9677 8.11439C18.8698 7.99363 18.5273 7.68502 18.378 7.69575C18.2981 7.70112 17.7625 8.10098 17.6286 8.17612C16.1531 9.0134 13.1479 9.22272 11.4509 9.28981C9.18229 9.38105 6.87758 9.29249 4.64239 8.86311C3.5145 8.64574 2.44068 8.38007 1.5497 7.58304C1.25099 7.79505 0.746269 8.06877 0.769445 8.50888C0.77717 8.63501 0.862148 8.88727 0.954852 8.97314L0.952277 8.97046ZM2.8321 10.7604C2.74454 10.6745 2.63639 10.5135 2.56944 10.4035C2.50249 10.2935 2.31193 9.83189 2.25785 9.80505C2.07244 9.71113 1.65785 10.0868 1.60378 10.272C1.46987 10.7524 1.93081 11.0341 2.29648 11.1629C3.4424 11.5682 4.64497 11.6594 5.83724 11.8365C6.22093 11.8929 6.57114 11.9224 6.91878 12.1076C7.17114 12.2418 7.45955 12.4457 7.69903 12.6094C8.26555 13.0012 8.91448 13.6184 9.481 13.9405C9.77714 14.1095 9.92134 14.0398 10.184 13.868C10.9437 13.3689 11.6235 12.5584 12.4836 12.1827C13.3436 11.807 14.4896 11.8875 15.4449 11.7453C16.0629 11.654 17.7702 11.3079 18.2132 10.9107C18.4913 10.6611 18.5505 10.425 18.3445 10.1002C18.2054 9.88019 18.0071 9.70308 17.7419 9.70576C17.6389 10.4357 16.8715 11.0663 16.1737 11.1066C15.4758 11.1468 15.1436 10.7497 14.5617 10.5726C13.7145 10.3149 13.5239 11.0073 12.9007 11.3615C12.1823 11.7694 11.6724 11.6111 10.9797 11.2542C10.6012 11.0583 10.2716 10.7094 9.82349 10.8382C8.7471 11.1415 8.19603 12.0566 6.95225 11.3427C6.55569 11.1146 6.16427 10.543 5.72908 10.4894C5.5205 10.4625 4.81235 10.8704 4.55226 10.9644C4.19432 11.0932 3.98317 11.1656 3.5969 11.0905C3.33682 11.0395 3.02266 10.9483 2.82952 10.7577L2.8321 10.7604ZM7.17114 13.1756C6.85955 13.0415 6.62007 12.8295 6.2853 12.7409C5.82951 12.6201 5.34282 12.6282 4.8793 12.5557C4.16342 12.4457 3.44497 12.3169 2.74197 12.1398C2.71622 12.1747 2.8939 12.392 2.92995 12.435C3.77458 13.4145 5.69303 13.5057 6.8544 13.2776C6.94968 13.2588 7.11191 13.2508 7.17114 13.1756ZM12.002 13.3984C12.2364 13.4762 12.4758 13.546 12.7205 13.5862C14.0672 13.817 15.8981 13.5674 16.9411 12.5745C16.9874 12.5289 17.2938 12.18 17.2629 12.1398C16.3153 12.3867 15.3471 12.5074 14.3788 12.6148C13.7042 12.6899 13.1608 12.6604 12.5402 13.02L12.0046 13.3984H12.002ZM1.56 14.7133C1.26129 15.5265 1.42094 16.4174 1.96171 17.0749C3.0072 18.3415 5.09303 18.7843 6.62007 18.9883C9.44752 19.364 13.3153 19.3479 16.0217 18.3899C17.5642 17.8451 19.1453 16.5274 18.4784 14.6301C17.4741 15.4862 16.0578 15.8082 14.796 16.0229C12.1565 16.4738 9.21834 16.5355 6.56084 16.2215C5.26814 16.0685 3.72566 15.7868 2.53081 15.2474C2.18832 15.0944 1.88961 14.8744 1.55742 14.7107L1.56 14.7133Z" />
<path d="M8.74469 1.9693C8.92752 2.14642 8.79361 2.54896 8.61851 2.70192C8.4846 2.82 7.91551 3.15008 7.75843 3.12325C7.53954 3.08568 7.49319 2.81195 7.55242 2.6241C7.658 2.28597 8.43825 1.67143 8.74469 1.9693Z" />
<path d="M11.2864 1.96891C11.5697 1.66834 12.4091 2.33119 12.4555 2.64517C12.4864 2.84912 12.4169 3.13358 12.1748 3.12822C11.9019 3.12285 11.3225 2.69616 11.2349 2.43317C11.1886 2.29362 11.1783 2.08162 11.2864 1.96622V1.96891Z" />
<path d="M9.90072 3.42073C10.0784 3.36437 10.2973 3.51465 10.3591 3.68909C10.4621 3.98428 10.4904 4.45659 10.2587 4.69007C9.73333 5.2241 9.4269 4.01917 9.74879 3.57101C9.77196 3.53881 9.87239 3.43146 9.90072 3.42341V3.42073Z" />
</svg>
