 <title>Dessert icon</title>
<svg viewBox="0 0 24 24" fill="none" xmlns="http://www.w3.org/2000/svg">
<path d="M21.8835 2.178C18.9858 0.473906 15.3212 -0.116811 11.9798 0.0192988C8.09059 0.177186 3.03191 1.69073 0.898342 5.17787C-0.66007 7.72585 -0.0986035 10.4862 1.87885 12.604C2.06783 12.8055 2.45949 13.0913 2.59096 13.2819C2.75255 13.5187 2.90866 14.0032 3.06752 14.2945C3.49204 15.0622 4.49994 16.3144 5.04771 16.9949C5.88581 18.0348 6.6609 18.4758 7.92626 19.0829C9.30664 19.7416 10.9171 19.9621 12.2646 20.0002C16.3647 19.7716 20.2977 18.3724 22.6339 14.7301C22.927 14.2727 23.1981 13.6221 23.4885 13.2165C23.6309 13.0151 23.9239 12.8027 24.0992 12.6067C27.542 8.74939 26.0082 4.60076 21.8835 2.178ZM16.707 16.4995C16.6632 16.9323 15.9922 17.8361 15.6553 18.1246C14.19 19.385 11.2403 19.0475 9.49836 18.5711C7.31001 17.9722 5.34625 16.6982 4.04255 14.8444C3.97682 14.7518 3.59886 14.2237 3.66185 14.1584C3.72211 14.1502 3.76867 14.1611 3.82071 14.1856C4.08911 14.2972 4.4972 14.6185 4.793 14.7736C7.53734 16.2164 11.4649 16.9078 14.5488 16.6247C15.1623 16.5675 15.9593 16.3362 16.5181 16.3198C16.6851 16.3144 16.7207 16.3307 16.7043 16.5049L16.707 16.4995ZM23.2009 12.7565C18.2298 17.18 8.30696 17.2399 3.17433 13.075C-0.566949 10.0424 -0.265674 5.84753 3.60707 3.109C5.94606 1.4539 9.19709 0.63996 12.0482 0.525628C15.5896 0.384074 19.7335 1.14085 22.6175 3.26961C26.0959 5.83664 26.5039 9.81377 23.1981 12.7565H23.2009Z" />
<path d="M12.4236 1.67452C15.3405 1.57652 18.5724 2.15907 21.0373 3.76517C24.5431 6.04637 24.8964 9.68323 21.5879 12.37C17.1427 15.977 8.57554 15.8871 4.20979 12.1849C1.86533 10.1977 1.32851 7.40203 3.47852 5.00922C5.62852 2.6164 9.36981 1.77524 12.4236 1.67452ZM7.88808 3.32962C7.71827 3.51201 7.71279 3.71345 7.99764 3.75428C8.35369 3.80328 8.94528 3.51473 9.30955 3.41129C9.64095 3.31601 10.6598 3.13362 10.8296 2.89679C11.1446 2.45852 10.3558 2.45579 10.1011 2.47485C9.63547 2.51024 8.19757 3.00023 7.88808 3.32962ZM15.5459 2.58101C15.2693 2.58374 14.8722 3.47662 15.4227 3.3024C15.6418 3.23162 15.8034 2.57829 15.5459 2.58101ZM13.2042 3.36229C11.5143 3.45756 9.16165 4.04284 7.68541 4.86494C6.06126 5.77143 4.01807 7.08353 3.41826 8.92918C3.03482 10.1133 3.35527 10.6986 4.20979 11.5044C8.27152 15.3536 16.9948 15.487 21.2811 11.959C22.6259 10.8511 23.3435 9.69957 22.6067 7.94103C21.5742 5.47743 18.2821 3.93395 15.776 3.52017C15.6226 3.52834 15.5569 3.90128 15.1735 3.81417C14.9297 3.75973 14.9133 3.37862 14.7571 3.34867C14.2395 3.35684 13.7219 3.32962 13.2042 3.35684V3.36229Z" />
<path d="M12.4919 4.23852C13.3054 4.18135 13.9189 4.54341 14.6556 4.60057C15.784 4.69041 17.3589 3.77575 18.3942 4.66591C19.0077 5.19129 18.6681 5.69762 18.071 6.00251C17.8409 6.12228 16.9015 6.33461 16.8522 6.51428C16.8029 6.69394 17.0905 6.9335 17.2329 7.00155C17.9998 7.37449 19.5472 6.91172 19.9416 7.85632C20.1963 8.4661 19.8156 8.98876 19.2268 9.17387C18.3257 9.4597 17.1233 9.2147 16.1565 9.32903C15.7813 9.37259 15.8114 9.71286 16.0661 9.81631C16.4222 9.95786 17.1425 9.79453 17.5753 9.83809C18.1559 9.89525 18.8214 10.2573 18.4298 10.9161C18.1723 11.3489 17.5342 11.5231 17.0658 11.5857C16.5181 11.6592 15.4444 11.5585 15.3568 12.3207C15.3075 12.7454 15.7019 12.8488 15.5403 13.2463C15.1678 14.1582 13.215 14.3107 12.3906 14.1827C11.7524 14.0847 10.4131 13.6492 10.5008 12.8271C10.5172 12.6692 10.7829 12.1737 10.5419 12.103C10.4296 12.0703 9.56957 12.3235 9.35046 12.3561C8.72874 12.4541 7.40861 12.5685 7.62498 11.5531C7.69619 11.221 8.27409 10.8045 8.57263 10.6711C8.6767 10.6248 9.52849 10.4179 9.22174 10.2083C9.07658 10.1103 8.27957 10.1212 8.07142 10.1375C7.1895 10.2083 6.32676 10.701 5.41198 10.4179C4.6451 10.1811 4.57663 9.30998 5.17096 8.84176C5.91319 8.25377 7.41409 8.46337 8.36721 8.30549C8.63836 8.25921 9.83524 8.01966 9.99136 7.89171C10.1776 7.73927 10.1201 7.41533 9.87085 7.36905C9.00263 7.38811 7.11281 7.94616 6.39249 7.41805C5.94058 7.08594 6.11587 6.48978 6.51574 6.19306C7.03887 5.80651 7.73454 5.88273 8.3453 5.81467C8.95607 5.74662 10.2406 5.66495 10.7582 5.44446C11.0732 5.31107 11.0212 5.06879 11.1882 4.82379C11.4621 4.42091 12.0345 4.27119 12.5002 4.23852H12.4919ZM17.6547 4.84557C17.4767 4.70129 16.7919 4.76935 16.8878 5.08513C16.9563 5.30835 17.8957 5.27023 17.6547 4.84557ZM12.5577 4.98168C12.3879 4.99257 12.0209 5.05246 12.1414 5.30835C12.1578 5.34646 12.2509 5.41723 12.292 5.42812C12.4645 5.47984 12.8754 5.45262 13.089 5.47984C13.3492 5.51523 13.8696 5.72484 14.0887 5.61868C14.2174 5.55879 14.2119 5.39546 14.1133 5.30562C13.9107 5.12051 12.8507 4.9599 12.5604 4.97896L12.5577 4.98168ZM16.0908 5.79017C15.9812 5.64045 15.2938 5.96167 15.5184 6.24206C15.6115 6.35911 15.9511 6.24478 16.0497 6.15495C16.173 6.04062 16.1264 5.93173 16.0935 5.79017H16.0908ZM10.1776 6.16312C9.89002 6.2475 10.1256 6.72117 10.3994 6.65856C10.7117 6.48706 10.5282 6.06239 10.1776 6.16312ZM12.8754 6.26112C12.733 6.42173 12.9192 6.77289 13.0945 6.79739C13.6039 6.86817 13.2506 6.14134 12.8754 6.26112ZM7.80027 6.72117C7.87696 6.64222 7.83587 6.45439 7.74275 6.40811C7.6332 6.35639 7.06078 6.44895 7.00052 6.54967C6.89644 6.72117 7.02791 6.89811 7.21415 6.90083C7.29632 6.90083 7.75097 6.77289 7.80027 6.72389V6.72117ZM15.7128 7.57866C15.4033 7.68483 16.0305 8.2456 16.2524 8.08227C16.529 7.8781 15.9758 7.48883 15.7128 7.57866ZM12.8945 7.64671C12.7165 7.70933 12.733 8.1966 12.9877 8.18299C13.3821 8.16121 13.3026 7.50788 12.8945 7.64671ZM11.0924 7.81277C10.8294 8.07138 11.495 8.4171 11.6456 8.19388C11.8237 7.92166 11.2786 7.7801 11.0924 7.81277ZM17.8409 8.25649C17.7095 8.3926 17.8163 8.65665 18.0491 8.65121C18.1669 8.65121 18.8132 8.48243 18.9091 8.42526C19.0652 8.33271 19.0953 8.12854 18.92 8.03327C18.7694 7.95432 17.956 8.13671 17.8409 8.25649ZM14.2558 8.79821C13.7545 8.85809 13.8148 9.3862 14.2667 9.24737C14.4612 9.18748 14.6611 8.75193 14.2558 8.79821ZM8.10976 9.39164C8.23027 9.13576 7.66059 8.70021 7.49899 8.90437C7.3374 9.10854 7.87422 9.60398 8.10976 9.39164ZM9.73664 9.09765C9.67913 9.11398 9.61066 9.22015 9.61066 9.27731C9.61613 9.47331 10.2899 9.72375 10.3994 9.45153C10.4844 9.24192 9.87906 9.05137 9.7339 9.09493L9.73664 9.09765ZM5.67217 9.2637C5.52154 9.59853 6.05835 9.87892 6.28842 9.75914C6.65816 9.56314 5.88581 9.13031 5.67217 9.2637ZM12.3879 9.97692C12.3331 9.97692 12.1523 10.0368 12.1003 10.064C11.7826 10.2301 11.8593 10.5595 12.2619 10.4615C12.5467 10.3934 12.6426 9.96331 12.3879 9.97692ZM10.4515 10.5513C10.2379 10.5676 9.81059 10.7745 9.8462 11.0304C9.8955 11.3897 11.0759 10.9515 10.8021 10.6248C10.7089 10.5622 10.5638 10.5431 10.4515 10.5513ZM14.5954 10.7201C14.4174 10.5431 13.7874 11.0195 13.9901 11.2727C14.1736 11.5041 14.809 10.9324 14.5954 10.7201ZM11.5552 11.583C11.673 11.7001 12.2235 11.6973 12.1879 11.4469C12.1605 11.2645 11.747 11.2155 11.6045 11.2591C11.4731 11.2999 11.4758 11.5041 11.5552 11.583ZM13.9874 12.6665C14.2421 12.3153 13.2999 12.0893 13.2506 12.3561C13.2123 12.5603 13.8258 12.74 13.9874 12.6665ZM14.3571 12.8461C14.2585 12.8543 14.0421 13.0122 13.9244 13.0584C13.6806 13.1537 13.2889 13.2381 13.026 13.2463C12.8754 13.2517 12.2701 13.1564 12.2071 13.2436C12.0702 13.4341 12.4919 13.6083 12.6261 13.641C12.9165 13.7145 13.1602 13.69 13.4505 13.6356C13.6998 13.5893 14.6337 13.3171 14.5543 12.9713C14.5242 12.8869 14.4502 12.8379 14.3571 12.8461Z" />
<path d="M9.56698 4.67676C9.69023 4.66043 10.1312 4.71488 10.2325 4.77476C10.4105 4.87821 10.312 5.11504 10.1641 5.20487C9.95864 5.32737 9.5752 5.27837 9.38074 5.15043C9.15341 5.00071 9.32596 4.70943 9.56698 4.67676Z" />
<path d="M19.9279 6.63691C20.1415 6.5988 20.6592 6.67774 20.6729 6.95541C20.6948 7.38007 19.7143 7.21946 19.7061 6.8193C19.7362 6.70769 19.8183 6.65597 19.9279 6.63691Z" />
<path d="M19.7578 10.2464C20.0454 10.279 20.1851 10.671 20.1331 10.9242C20.1057 11.0603 19.9715 11.2863 19.8181 11.1501C19.6784 11.0249 19.4374 10.3172 19.7578 10.2437V10.2464Z" />
<path d="M9.36432 13.252C9.60534 13.233 9.88197 13.3909 9.69299 13.6495C9.567 13.821 8.99184 13.8591 8.91241 13.6821C8.78369 13.399 9.14248 13.2684 9.36159 13.252H9.36432Z" />
<path d="M14.2558 4.12164C14.1353 4.24141 13.5492 4.14069 13.489 3.93653C13.3575 3.49825 14.2367 3.5282 14.2969 3.87936C14.3079 3.93925 14.2969 4.07808 14.2558 4.12164Z" />
<path d="M6.13791 11.2947C6.64186 11.243 6.483 11.752 6.06122 11.8282C5.34364 11.9616 5.50249 11.36 6.13791 11.2947Z" />
<path d="M21.5246 8.77921C21.4342 8.87449 20.9906 8.8391 20.8783 8.77921C20.7523 8.71388 20.7167 8.53966 20.7687 8.41443C20.8865 8.13677 21.8232 8.46071 21.5219 8.77649L21.5246 8.77921Z" />
<path d="M18.638 11.8007C19.0927 11.7272 18.9913 12.4377 18.4984 12.4241C18.0054 12.4105 18.1916 11.8742 18.638 11.8007Z" />
<path d="M16.6687 12.4433C17.0659 12.3889 17.4356 12.7292 17.0056 12.9143C16.4743 13.1429 16.0744 12.525 16.6687 12.4433Z" />
<path d="M21.4233 9.43788C21.6561 9.39433 22.1162 9.47871 21.9601 9.79993C21.8697 9.98504 21.0042 10.0395 21.2124 9.59849C21.2617 9.49505 21.3082 9.45694 21.426 9.43788H21.4233Z" />
<path d="M5.38713 7.51369C5.5186 7.49192 5.7377 7.46469 5.76783 7.6253C5.88012 8.19152 4.73802 8.13436 5.0256 7.69608C5.06668 7.63075 5.3077 7.53003 5.38713 7.51642V7.51369Z" />
<path d="M18.5008 5.92653C18.8239 5.8612 19.3389 6.23414 18.9609 6.41653C18.7062 6.53903 18.3529 6.36481 18.2734 6.10348C18.2734 6.02453 18.4323 5.94014 18.5008 5.92653Z" />
<path d="M4.30284 10.282C4.73832 10.2221 4.76571 10.7611 4.35762 10.8128C3.85915 10.8754 3.89475 10.3364 4.30284 10.282Z" />
<path d="M19.8596 12.0379C20.0623 11.9944 20.5964 12.0679 20.4567 12.3592C20.3526 12.5769 19.657 12.4789 19.698 12.1822C19.709 12.1087 19.7884 12.0516 19.8596 12.0352V12.0379Z" />
</g>

</svg>
