 <title>Kid icon</title>
<svg viewBox="0 0 24 24" fill="none" xmlns="http://www.w3.org/2000/svg">
<path d="M16.246 1.97055C17.7075 2.78886 18.9268 4.11116 19.58 5.65295C20.2332 7.19473 20.3965 9.0427 19.9502 10.7173C21.2783 11.5247 21.1967 13.4431 20.5299 14.6598C19.8631 15.8764 18.5539 16.5863 17.2176 16.2016C16.1562 18.1173 14.1367 19.296 12.0247 19.7512C9.41462 20.3148 6.39085 19.9463 4.18903 18.3855C1.72865 16.6405 0.901268 13.557 2.9153 11.1074L3.04594 10.0561C2.57237 10.2485 1.58168 10.6035 1.10539 10.3596C0.759742 10.1835 0.857721 9.64153 1.26325 9.58463C1.85657 9.50334 2.37096 9.45998 2.89897 9.12399L3.14936 8.96141C2.56692 9.16192 1.45649 9.21341 0.95298 8.82322C0.62638 8.57122 0.669927 8.08349 1.09178 8.04284C1.27141 8.02659 1.68783 8.19187 1.91645 8.21355C2.25665 8.24336 2.64041 8.20813 2.96973 8.12413C3.02961 8.11059 3.13847 8.09433 3.17385 8.04284C1.48915 7.77188 -0.263602 6.371 0.0330587 4.50406C0.229018 3.26847 1.35579 2.4637 2.52338 2.23339C3.79711 1.98139 5.03819 2.32551 6.233 2.74009C8.08101 1.12243 10.5931 0.453155 13.0208 0.902955C12.9909 0.0954831 13.9571 -0.0399987 14.583 0.00877474C15.5139 0.0792253 16.8829 0.905664 16.246 1.97326V1.97055ZM13.8781 1.06553C14.1285 1.14682 14.3871 1.21185 14.6375 1.29314C14.8062 1.34733 15.1709 1.52617 15.3125 1.54514C15.3642 1.55327 15.4458 1.53701 15.4649 1.48282C15.552 1.22811 14.9886 0.986953 14.8008 0.93547C14.5885 0.875858 13.9435 0.797279 13.821 1.01676C13.7883 1.07637 13.889 1.01134 13.8781 1.06824V1.06553ZM15.5438 8.29213C15.7289 7.25705 15.8105 6.19758 15.7697 5.14353C15.7452 4.50406 15.5247 2.62357 14.9423 2.26048C14.76 2.14668 14.2102 2.0112 13.9816 1.94887C11.8369 1.38256 9.63235 1.49365 7.72447 2.68319C7.64826 2.72925 7.14748 3.06795 7.14748 3.10318C8.73148 3.87001 10.2284 4.79128 11.679 5.78301C12.4193 6.28971 13.1596 6.90209 13.9081 7.37085C14.4279 7.69872 15.024 7.95614 15.5465 8.28942L15.5438 8.29213ZM19.1418 10.4517C19.9148 7.67162 18.6574 4.44987 16.2215 2.91621C16.8665 4.80483 16.6842 6.86686 16.3249 8.79612C17.0135 9.31637 17.6449 9.90165 18.2192 10.5411C18.5213 10.4598 18.8288 10.4436 19.1418 10.4517ZM11.4722 6.64738C11.4667 6.61487 11.4286 6.5959 11.4042 6.57693C10.9769 6.24094 10.3672 5.88056 9.89363 5.59062C8.09733 4.48509 5.31852 2.84305 3.16025 2.98937C0.324276 3.17905 0.0357805 6.07836 2.65946 7.0457C2.86631 7.12157 3.59027 7.32479 3.77806 7.28957C3.86515 7.27331 4.07744 7.13512 4.18087 7.09176C6.1323 6.24094 8.15721 6.13255 10.2529 6.4279C10.6584 6.4848 11.0667 6.56338 11.4695 6.64738H11.4722ZM9.07713 7.12699C8.93288 7.34376 8.78047 7.56053 8.66344 7.79627C8.5573 8.01033 8.39944 8.58206 8.23614 8.68774C8.00208 8.83948 7.66731 8.68774 7.64826 8.40323C7.62104 7.99136 7.95581 7.47111 8.10006 7.09718C7.55845 7.32479 7.00867 7.63369 6.68479 8.13768C6.51333 8.40323 6.44801 8.82593 6.02343 8.72838C5.36207 8.57393 6.09419 7.51989 6.35003 7.2706C6.04793 7.33292 5.7431 7.39524 5.44372 7.47653C5.23687 7.53343 4.70615 7.66079 4.57823 7.80982C4.43126 7.98052 4.21625 8.65251 4.14276 8.89367C3.88148 9.75804 3.75629 10.6576 3.69369 11.5572C1.36123 14.1856 3.14392 17.2204 5.97444 18.4289C9.39829 19.8894 14.5341 19.2336 16.4746 15.7463C16.6325 15.4645 16.6161 15.2342 17.0543 15.283C17.3401 15.3155 17.6395 15.4537 17.9552 15.4564C19.3949 15.47 20.3802 13.6979 20.1597 12.4135C19.9774 11.354 18.9731 10.9747 18.0695 11.5139C17.8164 11.6656 17.5252 12.0504 17.2067 11.7469C16.9482 11.503 17.1414 11.1454 17.4081 11.0018V10.9503C16.5508 10.0236 15.5384 9.16192 14.4388 8.53329C13.2685 7.86401 11.9022 7.53614 10.5795 7.30041C10.0841 7.2137 9.58336 7.13241 9.07985 7.12428L9.07713 7.12699Z" />
<path d="M13.1136 13.3727C13.413 13.3185 13.7069 13.5325 13.6607 13.8414C13.5899 14.3021 12.9503 15.0418 12.5965 15.3453C10.9281 16.776 7.92341 16.8356 6.21149 15.4564C5.82229 15.142 5.35688 14.5812 5.19359 14.107C5.06567 13.7385 5.36505 13.4241 5.74336 13.5325C5.98559 13.603 6.05635 13.9688 6.1761 14.1693C7.39541 16.2124 11.4779 16.0281 12.6482 14.004C12.7734 13.7872 12.8306 13.4241 13.1109 13.3699L13.1136 13.3727Z" />
<path d="M6.86689 9.44118C8.27126 9.23795 7.86846 12.3486 6.83423 12.4922C5.44074 12.6846 5.78367 9.59563 6.86689 9.44118Z" />
<path d="M11.8152 9.466C12.863 9.30071 12.7923 10.9021 12.5963 11.5389C12.433 12.0672 11.9186 12.8612 11.2736 12.4087C10.5469 11.8992 10.8871 9.61503 11.8152 9.46871V9.466Z" />
<path d="M7.93147 12.3812C8.0485 12.262 8.25807 12.1509 8.42137 12.1103C8.83506 12.01 9.98632 12.1455 9.7577 12.7958C9.5563 13.3675 8.78335 12.7199 8.49757 12.934C8.38326 13.0207 8.54656 13.186 8.54656 13.3052C8.54656 13.7062 8.01584 13.8282 7.77089 13.5057C7.52594 13.1833 7.6593 12.6576 7.92875 12.3839L7.93147 12.3812Z" />
<path d="M18.5619 12.354C18.9674 12.3025 19.2206 12.7767 18.9048 13.0449C18.5891 13.3132 18.4775 13.3565 18.2625 13.725C18.0992 14.0014 18.0312 14.416 17.5821 14.2372C17.2201 14.0936 17.397 13.6356 17.5304 13.3945C17.7073 13.0666 18.1727 12.4055 18.5619 12.3567V12.354Z" />
</svg>
