 <title>Nem icon</title>
<svg viewBox="0 0 24 24" fill="none" xmlns="http://www.w3.org/2000/svg">
<path d="M2.70663 17.8632C3.30866 18.4451 4.00271 18.9894 4.73093 19.3969C5.60112 19.8822 6.72633 20.3407 7.61755 19.6436L9.70758 17.2653L9.77068 17.3109C10.4884 18.0375 11.5032 19.8635 12.5653 19.9788C13.8561 20.1155 15.3914 19.0189 16.3379 18.2037C17.1607 17.4959 18.5593 16.0587 18.4226 14.8735C18.3543 14.2783 17.4105 13.2379 17.0109 12.7553C16.5403 12.1842 16.0382 11.6345 15.5702 11.0607L19.6083 6.49176C19.9948 6.07348 20.0947 5.49699 19.9106 4.95269C19.4769 3.66298 17.2659 1.84773 16.1118 1.18008C15.3678 0.751068 14.2767 0.171904 13.5117 0.834189C12.376 2.03005 11.3034 3.28759 10.2018 4.51831C10.1729 4.52368 10.0546 4.37084 10.0257 4.33599C9.70758 3.9606 9.39999 3.56913 9.0924 3.18838C8.38784 2.31696 7.67276 1.27124 6.93664 0.458805C6.41085 -0.123041 5.82722 -0.0640516 5.13054 0.158497C3.61362 0.646497 1.33167 2.31159 0.416789 3.64421C-0.0511682 4.32526 -0.179989 4.92319 0.316887 5.6391C1.053 6.69554 2.04149 7.82706 2.85648 8.84864C3.34809 9.46534 3.87915 10.0499 4.33133 10.6987L1.56565 13.8091C0.214357 15.1792 1.67607 16.8711 2.70663 17.8686V17.8632ZM1.06877 4.01423C1.85747 3.09722 2.81704 2.2526 3.84497 1.62249C4.29978 1.34364 5.40395 0.740343 5.9166 0.793969C6.25837 0.831507 6.16373 1.05137 6.0796 1.29806L5.24358 3.15889C3.82131 3.22592 2.39903 3.5021 1.06877 4.01423ZM14.8078 3.50478C14.6395 2.92025 14.3319 2.35449 14.1505 1.78069C14.0848 1.57423 13.9902 1.38118 14.2741 1.33291C14.8656 1.23102 16.0618 2.03005 16.5534 2.38399C17.2817 2.90953 18.1492 3.68174 18.7013 4.39497C18.7276 4.42983 18.9143 4.66847 18.8932 4.68724C17.6234 4.02227 16.2064 3.74073 14.8078 3.50478ZM17.1765 14.2113H16.7085C16.0881 14.2113 14.8683 14.9379 14.3635 15.3213C13.2698 16.1525 12.2025 17.3699 11.958 18.7775L5.10951 10.4413C4.64681 9.53773 4.77037 7.60987 4.94914 6.6151C5.2725 4.83203 6.10063 3.16693 6.80782 1.52329L17.1765 14.2113ZM13.4013 2.05419L13.4565 2.07296C13.9455 3.35731 14.4871 4.63093 14.7841 5.98231C15.0786 7.32297 15.1864 8.8111 14.8577 10.1518L10.7145 5.17524L13.4039 2.05687L13.4013 2.05419ZM4.03426 9.08459L0.821651 4.98218C1.78911 4.50759 2.91169 4.21801 3.97379 4.05177C4.29453 4.00082 4.62052 3.98205 4.94125 3.93111C4.71253 4.5773 4.47855 5.22082 4.32344 5.89115C4.15519 6.62315 4.0658 7.42486 4.03689 8.17563C4.02374 8.47862 4.04477 8.78428 4.03689 9.08459H4.03426ZM15.1049 4.32258C16.5035 4.63093 18.023 4.88029 19.1956 5.76781L15.7358 9.78442C15.6911 9.79246 15.7069 9.7442 15.7095 9.7147C15.791 8.67703 15.8384 7.76539 15.7069 6.71967C15.6017 5.89651 15.3441 5.1082 15.1075 4.32258H15.1049ZM2.22289 14.2113L4.81769 11.3262L9.22648 16.6352L7.45455 18.6676C7.02077 16.9998 5.5538 15.4929 4.08158 14.7127C3.82394 14.5759 3.04313 14.2139 2.78549 14.2139H2.22289V14.2113ZM12.7178 19.1368C12.6704 18.9465 12.7151 18.7534 12.7677 18.5657C13.1883 17.1044 15.0286 15.4795 16.4351 15.0505C16.8242 14.9325 17.3369 14.8226 17.7076 15.0264C17.7522 15.0988 17.6497 15.4098 17.6155 15.4983C17.1239 16.7505 14.7631 18.6864 13.517 19.1047C13.2488 19.1958 12.9833 19.2816 12.7204 19.1368H12.7178ZM1.76282 15.0023C1.92582 14.8333 2.5226 14.9352 2.7408 14.9862C4.20514 15.3321 6.17161 17.0749 6.64746 18.5389C6.76576 18.9062 6.87881 19.2441 6.36879 19.236C5.64845 19.2253 4.19988 18.1957 3.63991 17.7104C3.07994 17.2251 1.89427 16.0131 1.7602 15.2865C1.74968 15.2275 1.72602 15.0425 1.76545 15.0023H1.76282Z" />
</svg>
