 <title>Sandwich icon</title>
<svg viewBox="0 0 24 24" fill="none" xmlns="http://www.w3.org/2000/svg">

<path d="M0.982695 16.3388C0.556653 16.2802 0.175165 15.8365 0.0609971 15.4402C-0.136708 14.7593 0.152888 14.3017 0.726513 13.9528C0.478685 13.5957 0.54273 13.1659 0.773851 12.8171C0.823973 12.7417 1.1442 12.4264 1.11914 12.3901C0.587284 12.0943 0.386793 11.4748 0.422993 10.886C0.528807 9.11958 2.89014 6.70295 4.22674 5.64812C4.5943 5.3579 4.75302 5.37464 5.14008 5.19884C5.63017 4.97559 5.87243 4.43422 6.382 4.10493C7.05866 3.67239 7.8467 3.27892 8.55955 2.91615C8.77675 2.91894 8.98559 2.91057 9.19722 2.85755C9.84603 2.69849 10.1161 2.21014 10.6925 1.92829C11.4806 1.54319 12.4496 1.19995 13.2822 0.940428C14.0591 1.06042 14.6216 0.566492 15.34 0.390687C16.504 0.106049 18.3975 -0.0781289 19.5865 0.0307033C21.1932 0.175813 23.2566 1.01856 23.4515 2.83801L23.2677 3.61379C23.6353 3.63612 23.9862 3.6696 24.3064 3.86215C24.9552 4.25004 25.2448 5.11233 24.738 5.74021C24.5848 5.92717 24.3036 6.21181 24.0558 6.22576C24.1282 6.37366 24.2869 6.44622 24.3871 6.57459C24.8689 7.18014 24.3927 7.96708 23.8135 8.29078C24.4484 9.39027 23.9806 10.8721 23.329 11.8599C22.1539 13.6403 19.2496 15.1528 17.3783 16.1602C15.3539 17.2513 13.2042 18.2838 11.0239 19.0233C8.84358 19.7628 5.44638 20.5804 3.21593 19.3777C2.03527 18.7415 1.35304 17.7173 1.47835 16.336C1.31963 16.322 1.13028 16.3555 0.977126 16.336L0.982695 16.3388ZM7.93859 4.19144C8.58461 4.4398 9.23063 4.72444 9.77084 5.16535C10.2804 5.58114 11.4499 6.85364 10.7733 7.50384C10.2387 8.01731 9.01065 7.4592 8.4426 7.19409C7.55988 6.78388 5.88635 5.6816 4.92845 6.17274C4.08751 6.60249 2.55598 8.36892 2.02134 9.18098C1.6148 9.80048 0.790558 11.2209 1.64821 11.7539C2.87343 12.5157 5.86407 11.6618 7.20346 11.246C10.1412 10.3335 13.4688 8.91029 16.2227 7.52896C17.5482 6.8648 19.024 6.12251 20.2576 5.31604C20.8646 4.91978 21.998 4.19144 22.3377 3.57472C22.8918 2.56733 22.3906 1.97573 21.5246 1.46506C20.2019 0.689277 18.6203 0.733926 17.1528 0.973915C17.1389 1.02415 17.1723 1.03531 17.1973 1.066C17.3004 1.19437 17.5259 1.34506 17.654 1.49017C18.0271 1.91434 18.4949 2.72081 18.4587 3.29846C18.4114 4.04633 17.7849 4.13563 17.1862 3.90401C16.1169 3.49101 14.914 1.76644 13.8363 1.73295C13.6052 1.72458 12.5471 2.00643 12.4608 2.20456C13.3128 2.56733 14.1705 3.20916 14.6661 4.00168C15.2871 4.99512 15.0031 5.93555 13.686 5.53091C12.5443 5.1793 11.4416 4.34213 10.35 3.86494C9.57035 3.52449 9.03571 3.53287 8.27831 3.93471C8.23097 3.95982 7.90239 4.13563 7.94694 4.19423L7.93859 4.19144ZM15.1507 1.45668C15.5823 1.6576 15.8969 2.03712 16.2561 2.3385C16.4928 2.53384 17.3533 3.23707 17.6234 3.21753C17.6596 3.21753 17.6763 3.20079 17.6958 3.17009C17.5176 2.29106 16.3592 1.03252 15.3985 1.26413C15.3512 1.2753 15.1005 1.38413 15.1507 1.45668ZM13.5328 3.80913C12.8979 3.17567 12.1266 2.71802 11.1966 2.79337C11.1186 2.79895 10.6591 2.91336 10.6369 2.94685C10.6257 2.96359 10.6369 3.03615 10.6675 3.05289C11.6282 3.56635 12.6473 4.39236 13.6971 4.69374C14.0591 4.79699 14.2317 4.8556 14.0062 4.44538C13.8837 4.22493 13.711 3.99052 13.5328 3.81192V3.80913ZM23.354 4.35329C23.2956 4.32539 22.9141 4.33097 22.8612 4.37562C22.8361 4.39794 22.5382 4.71886 22.527 4.74118C22.4658 4.87792 22.4853 5.17651 22.4296 5.31046C22.4156 5.34395 22.1984 5.50859 22.1762 5.60626C22.5827 5.8295 23.045 6.14484 23.1619 6.62203C23.2482 6.98201 23.1647 7.29455 23.1758 7.65454C23.6102 7.67686 23.9388 7.21921 23.6854 6.82295C23.5991 6.689 23.3847 6.56342 23.3206 6.42948C23.2427 6.26762 23.2677 6.00252 23.2399 5.82113C23.4292 5.67044 24.2228 5.31325 24.2312 5.05931C24.2451 4.71328 23.9555 4.43701 23.6297 4.38678C23.4766 4.36446 23.5072 4.42585 23.3485 4.35329H23.354ZM7.05309 4.92815C6.84981 4.95327 6.17594 5.18767 6.53516 5.43045C6.69666 5.53928 7.08094 5.64812 7.28421 5.743C7.86897 6.01647 8.44538 6.38762 9.03293 6.63319C9.47289 6.82016 10.57 7.21642 9.84881 6.33181C9.2724 5.623 7.99428 4.80537 7.05309 4.92815ZM21.2712 5.67881L18.9683 7.0741L19.0853 7.09642L19.1354 7.0434C19.528 7.36711 20.3133 7.47594 20.6836 7.0741C20.8702 6.87039 21.2211 6.14205 21.2768 5.87415C21.2907 5.79881 21.2823 5.75137 21.2768 5.67881H21.2712ZM18.1497 7.53175C18.1775 7.84708 18.5562 7.95871 18.7372 8.20149C18.843 8.3466 18.8876 8.51403 18.9655 8.67309C20.046 8.62565 21.3603 8.66193 22.1344 7.77453C22.2291 7.6657 22.4491 7.3699 22.4769 7.23595C22.5437 6.91783 22.2541 6.43227 21.9116 6.40994C21.6694 7.18014 21.2461 8.00336 20.3467 8.07591C19.9095 8.11219 19.4083 8.00057 18.999 7.84708C18.8625 7.79685 18.236 7.44245 18.1497 7.52896V7.53175ZM14.8165 9.08052C14.7441 9.15865 15.0393 9.20051 15.0755 9.2033C15.7466 9.24795 16.8409 9.15028 17.0163 8.32427C17.0275 8.27683 17.0609 8.06475 16.969 8.09545C16.2673 8.45543 15.5767 8.86006 14.8165 9.08331V9.08052ZM14.8778 9.90094C14.8444 10.1884 14.6578 10.233 15.017 10.3558C15.4876 10.5149 16.5931 10.607 17.0609 10.4646C17.6039 10.3 18.3334 9.56608 18.2054 8.95215C18.1886 8.87122 17.8601 8.24335 17.757 8.35218C17.7069 9.83397 16.0557 10.1102 14.8778 9.90094ZM22.4546 8.65635C22.1845 8.74565 21.9478 8.91866 21.6889 9.02749C20.9064 9.3512 19.9541 9.41817 19.1131 9.48515C18.9043 9.5298 18.8987 9.80606 19.0741 9.87862C19.1131 9.89536 19.4083 9.87862 19.4696 9.87862C20.1156 9.83118 21.5413 9.63305 22.0704 9.29539C22.2625 9.1726 22.4825 8.90471 22.4546 8.66193V8.65635ZM6.80805 17.3294C5.60789 17.7955 4.2156 17.8959 3.12404 17.1118C2.88178 16.936 2.68686 16.6904 2.42511 16.5341C2.14944 16.7127 2.336 17.2625 2.44739 17.5136C2.94026 18.6131 4.4133 19.1238 5.52992 19.1935C9.21393 19.4196 14.1482 17.0253 17.3533 15.2812C19.4194 14.1566 22.8667 12.4013 23.2649 9.84792C23.2789 9.75862 23.3847 8.95494 23.1536 9.114C22.9475 9.58282 22.5911 9.93164 22.1205 10.1298C21.9339 10.2079 21.6777 10.2163 21.5636 10.3921C21.4215 10.607 21.3575 10.8051 21.1681 11.0283C20.3077 12.0329 19.5364 12.0357 18.3223 12.1864C16.6655 12.3929 16.8353 13.0543 15.8941 14.0952C15.1813 14.8849 14.4796 14.9547 13.4688 14.9463C12.9341 14.9407 12.3689 14.8096 11.9567 15.2226C10.8234 16.3583 9.82097 18.0131 7.95808 17.8262C7.40395 17.7703 7.32041 17.4773 6.925 17.3127C6.78298 17.2541 6.83311 17.3211 6.80805 17.3322V17.3294ZM13.1207 10.3558C13.6776 10.4507 14.2429 10.1102 14.0591 9.47678L13.2182 9.84792L13.1207 10.3558ZM12.2296 10.2386C11.6142 10.5316 10.9766 10.7772 10.3389 11.0172C8.4955 11.712 6.59363 12.3901 4.65556 12.7613C4.54418 12.8171 4.68619 13.0934 4.75302 13.1659C5.05654 13.4785 6.2567 13.4478 6.64097 13.2943C7.02524 13.1408 7.57938 12.5436 7.99706 12.2869C8.91598 11.7176 10.0298 11.5948 11.0573 11.313C11.4583 11.2041 11.9317 10.9251 12.1767 10.5818C12.2185 10.5232 12.3828 10.2219 12.2268 10.2358L12.2296 10.2386ZM20.394 10.5679C20.1239 10.5818 19.8594 10.6628 19.5921 10.6879C19.4668 10.7018 19.2635 10.7186 19.1382 10.7186C18.8013 10.7242 18.3947 10.5958 18.1135 10.7549C17.9603 10.8414 17.835 10.9865 17.6707 11.0702C17.3031 11.2544 16.8019 11.2879 16.3982 11.2962L16.4594 11.3716C16.3118 11.5641 16.1921 11.8571 16.0195 12.0246C15.7744 12.2618 15.3317 12.3734 15.0504 12.6022C14.8277 12.7836 14.6606 13.1185 14.4601 13.3473C14.1538 13.6961 13.8809 13.8301 13.5412 14.0952C13.5078 14.1203 13.4771 14.1259 13.491 14.1817C13.6665 14.2096 13.8447 14.2235 14.0229 14.2124C15.4709 14.1287 15.5433 12.8589 16.4455 12.086C17.3477 11.313 18.1608 11.5195 19.1939 11.3186C19.6478 11.2293 20.1852 11.0004 20.3996 10.5679H20.394ZM15.4542 11.2683C15.2593 11.2404 15.0421 11.1902 14.8555 11.126C14.7051 11.0758 14.3877 10.886 14.2652 10.9111C14.1426 10.9362 13.9756 11.0786 13.8196 11.059L13.6971 11.6757C13.7305 11.779 14.1259 11.7623 14.2262 11.7567C14.5213 11.7427 14.9 11.6813 15.159 11.5362C15.2008 11.5139 15.5015 11.3158 15.4514 11.2683H15.4542ZM12.9341 11.1483C12.9341 11.1483 12.7921 11.1121 12.7559 11.1288C12.6724 11.1651 12.3577 11.5474 12.238 11.645C11.2578 12.4152 8.92155 12.2283 8.19477 13.1799C8.17249 13.2106 8.13629 13.2189 8.15022 13.2719C8.86028 13.3473 9.57035 13.3389 10.2832 13.2385C11.1381 13.1185 12.1934 12.6776 12.6612 11.9157C12.7253 11.8097 13.0121 11.2376 12.9369 11.1511L12.9341 11.1483ZM13.8781 12.605C13.7166 12.5855 13.3574 12.4432 13.2182 12.5045C13.1875 12.5185 12.8589 12.9231 12.7726 13.0013C12.664 13.1017 12.5304 13.1882 12.4162 13.2803L11.152 13.911C12.0097 13.9528 12.9091 13.618 13.5467 13.0459C13.6108 12.9873 13.9282 12.6776 13.8809 12.605H13.8781ZM2.05198 12.7613C1.90996 12.9092 1.37811 13.1938 1.33912 13.3864C1.28343 13.6543 1.74846 14.0421 1.71783 14.3519C1.37532 14.6226 0.629052 14.6589 0.865742 15.2756C1.08294 15.8449 1.76516 15.3621 2.09096 15.1667C2.82052 14.7286 3.46376 14.1789 4.12092 13.6487C4.00954 13.3864 3.84803 13.1882 3.82297 12.8896C3.23542 12.8031 2.63952 12.8869 2.05476 12.7585L2.05198 12.7613ZM10.0604 14.0924C9.59542 14.0868 9.14431 14.1259 8.68207 14.0924C8.21983 14.0589 7.59608 13.9166 7.13663 13.9417C7.06423 13.9445 6.81083 14.098 6.68831 14.1314C6.15924 14.2821 5.60232 14.2012 5.07603 14.0924C5.01756 14.098 4.12928 14.6505 4.06245 14.7175C3.89259 14.8793 4.08472 14.8877 4.22674 14.8821C4.95351 14.8542 5.73041 14.5556 6.47111 14.5779C7.15055 14.5975 7.74924 14.8821 8.38969 14.9937C9.09976 15.1193 9.88223 14.8458 10.0604 14.0924ZM4.63607 15.6411C5.30715 15.8755 6.07292 15.9872 6.72729 16.2662C7.63785 16.6541 7.92466 17.3964 9.09976 16.8802C9.50074 16.7043 10.4364 15.7974 10.7594 15.4458C10.8708 15.3258 11.1492 15.03 11.2272 14.9128C11.255 14.8709 11.2829 14.8347 11.2717 14.7816L10.7622 14.6142C10.6396 14.9016 10.4224 15.136 10.1746 15.3174C8.89092 16.2579 7.91074 15.5211 6.56022 15.4012C5.88078 15.3398 5.46588 15.4709 4.81985 15.5993C4.75581 15.6132 4.66948 15.5435 4.63607 15.6439V15.6411ZM3.67817 15.9621C3.6197 15.9035 3.58907 15.8393 3.51388 15.7779C3.34681 15.6411 3.09619 15.4542 2.9152 15.6579C2.96532 15.8979 3.14353 16.0904 3.31896 16.2467C3.97612 16.8355 4.91731 17.0615 5.75826 16.763L5.52157 16.682C4.90617 16.562 4.11535 16.4113 3.67817 15.9648V15.9621Z"/>
</g>

</svg>
