<svg width="278" height="284" viewBox="0 0 278 284" fill="none" xmlns="http://www.w3.org/2000/svg">
<path d="M275.835 147.946C270.144 142.112 265.921 136.721 270.16 147.639C272.107 159.444 254.194 166.1 253.887 147.584C264.336 144.458 266.095 128.539 257.096 123.09C256.22 116.864 255.886 110.097 252.443 104.816C241.331 87.6455 225.657 77.6203 233.422 53.3643C231.55 49.6753 224.878 59.5623 223.983 59.8635C222.338 59.2971 219.253 57.4982 218.32 56.4675C218.866 53.0907 217.262 49.9738 214.235 48.9182C216.654 40.6118 218.524 36.127 208.271 29.2382C204.046 27.0966 199.895 27.8786 196.203 29.3874C193.79 23.2225 178.215 17.6849 179.165 21.092C181.269 22.7555 184.324 24.6097 183.628 27.2265C174.286 31.902 172.855 26.4031 168.307 19.1356C167.034 16.668 157.25 11.2272 157.706 14.8277C169.039 23.6343 151.83 27.1187 150.935 19.1854C150.366 5.27507 144.901 12.9266 138.832 0.6604C135.438 8.7181 133.98 5.85812 128.575 11.4869C126.399 14.5984 127.811 18.5526 126.339 21.3822C124.516 24.3306 115.555 24.618 116.527 20.2575C116.502 17.3064 126.946 8.43072 111.764 16.9831C106.92 20.0475 107.506 27.1408 101.875 28.5777C83.9699 29.1497 103.537 19.937 97.2386 19.9204C91.3319 21.7939 84.8149 23.065 82.1032 28.948C70.2538 24.2726 55.2537 36.5691 64.4548 48.2633C62.2788 49.924 60.5612 50.275 59.7769 52.7591C59.2495 59.5872 59.2826 55.8982 54.6406 59.7944C52.1774 59.5789 42.9321 46.3428 44.9231 55.6081C54.9499 84.009 22.0832 94.1613 21.2686 119.39C22.3759 124.682 16.7481 124.521 15.7153 129.139C13.0643 137.122 17.154 145.119 24.2178 147.777C22.9779 160.781 12.9815 163.821 7.67675 151.8C6.47829 147.937 9.55177 143.917 9.40265 141.51C-0.28725 146.768 -1.4222 153.447 2.09311 164.755C7.71541 183.854 25.1291 175.1 24.331 181.917C29.7214 193.592 25.35 185.623 23.9996 195.949C24.2095 200.359 27.6061 202.824 31.2181 203.377C40.8969 219.349 57.1066 227.962 30.6768 239.717C35.7164 245.075 58.6337 236.42 64.4741 230.697C69.5248 233.828 73.4267 237.034 79.1678 235.367C75.4232 230.369 77.7401 227.992 83.379 229.744C89.2305 236.34 87.5902 244.961 77.2237 243.486C74.048 244.486 87.2201 255.694 96.0402 256.001C97.9456 260.461 98.0643 263.608 102.422 266.2C114.335 274.744 128.645 268.021 137.561 283.042C138.528 284.551 140.303 283.247 140.734 282.376C149.118 266.092 176.898 276.946 181.159 257.308C182.181 253.171 188.002 259.598 201.16 244.765C201.732 241.867 196.112 244.525 193.864 242.715C190.018 241.068 190.622 232.983 194.102 230.217C200.37 227.03 202.085 230.929 198.603 235.356C203.924 236.793 208.53 234.281 212.25 231.258C214.222 228.061 224.453 244.467 247.536 240.46C223.459 227 233.3 224.107 245.31 205.093C247.337 201.083 250.794 204.756 253.23 198.577C255.798 189.326 247.967 193.133 253.125 182.594C253.931 173.937 264.22 185.551 274.446 168.261C276.917 161.541 279.64 154.232 275.835 147.948V147.946ZM260.067 133.005C260.653 138.13 252.04 152.795 250.546 131.22C255.803 128.235 257.11 119.594 260.067 133.005ZM228.291 61.2258C224.229 89.5825 262.08 103.305 248.535 123.267C246.067 125.591 245.064 119.967 240.486 118.738C238.061 117.353 239.583 113.656 238.528 111.879C237.432 105.137 228.087 97.4855 228.658 90.8288C226.922 84.2328 213.995 89.6074 223.287 65.7907C224.66 63.301 228.424 57.1113 228.291 61.2286V61.2258ZM240.555 162.425C238.321 169.201 233.949 164.417 238.89 170.01C238.868 174.224 219.137 181.378 218.803 177.095C225.795 176.941 232.643 169.038 236.302 163.622C233.135 163.945 216.66 181.464 216.097 171.091C223.757 168.098 233.513 161.853 234.756 153.909C228.399 159.333 222.92 166.487 214.639 168.079C210.643 164.431 227.325 163.309 231.555 146.44C225.709 154.243 224.566 157.001 212.344 164.592C210.151 163.89 220.645 157.451 219.479 150.786C216.588 151.206 212.521 163.707 208.111 161.978C208.442 158.565 210.916 155.625 210.831 151.881C210.527 143.002 206.846 160.582 204.076 161.817C199.851 166.302 203.112 150.093 202.994 148.766C198.821 151.19 200.163 173.351 195.905 169.27C195.093 165.561 196.272 162.671 196.098 159.267C196.159 157.25 195.413 158.924 195.234 159.206C192.288 163.992 193.605 168.25 192.934 173.172C188.27 186.955 189.112 175.824 189.093 169.228C187.102 159.93 187.298 180.345 184.412 182.243C180.48 188.98 183.338 171.939 181.91 170.599C179.568 178.969 182.051 186.206 173.584 191.166C171.563 191.757 167.603 193.844 167.365 190.821C167.462 188.256 171.138 188.58 172.576 186.753C178.251 182.265 178.56 171.71 175.04 166.415C173.827 163.724 177.086 166.255 177.624 166.407C180.781 161.762 180.532 164.075 183.161 166.341C185.746 165.747 180.444 160.903 188.184 162.096C187.488 156.589 189.192 158.814 192.136 157.41C193.218 153.461 193.254 153.522 196.165 152.184C196.941 149.336 197.694 147.144 200.265 147.136C201.243 145.005 202.124 142.994 204.706 142.695C208.442 144.27 207.857 138.744 211.513 143.621C213.476 145.834 214.901 140.548 216.931 144.632C218.201 149.429 220.512 140.131 224.398 149.468C225.698 143.718 222.092 143.585 230.028 142.488C233.383 141.245 234.582 138.885 235.554 143.143C236.689 146.241 238.517 148.001 237.302 150.947C242.883 155.757 236.932 155.13 240.552 162.428L240.555 162.425ZM224.757 141.872C222.158 145.133 218.552 143.411 216.168 141.405C213.2 141.341 212.186 141.656 209.842 140.062C197.871 142.01 203.493 141.587 195.894 147.106C194.069 154.005 194.331 149.206 191.393 153.149C189.951 157.407 191.048 155.445 187.913 156.896C182.78 164.741 181.33 159.267 177.903 163.135C171.949 164.967 167.827 158.41 161.757 159.104C153.724 160.129 165.374 160.087 167.363 162.685C175.144 167.888 175.55 180.373 168.459 185.529C163.742 188.16 160.663 188.803 156.182 186.684C159.893 195.073 117.665 193.973 121.912 187.264C100.533 192.437 97.559 161.618 119.162 159.958C114.371 157.233 109.198 160.98 105.382 163.18C103.231 162.456 102.027 163.79 100.456 163.528C98.0892 159.681 92.627 162.975 91.3927 158.689C90.9039 156.976 89.4624 156.625 87.6647 156.266C86.3365 153.323 86.6098 152.312 83.6606 151.275C80.9599 144.185 80.8688 147.979 77.29 142.577C74.7881 141.303 68.5224 139.321 66.9097 140.584C63.2646 143.215 62.7537 138.893 59.5256 143.56C50.4653 143.933 55.9109 141.435 49.3884 141.228C42.6946 139.589 56.6178 133.383 59.6885 133.057C66.7965 131.457 74.0591 133.231 80.5899 134.331C82.9951 139.946 84.7127 145.558 90.3102 148.764C96.123 153.094 103.488 153.787 109.629 150.888C112.592 154.199 113.476 155.174 117.637 155.721C123.428 156.017 129.037 153.456 134.256 152.972C142.659 158.457 129.365 157.916 126.259 158.532C133.242 160.82 138.992 163.989 151.454 158.465C148.127 157.299 136.841 159.676 142.568 153.309C147.842 151.745 162.414 161.088 167.393 151.322C175.401 152.58 177.53 153.881 185.409 150.297C191.448 146.907 195.391 141.267 196.753 134.787C216.475 127.26 240.732 140.64 224.762 141.875L224.757 141.872ZM138.793 199.392C147.947 199.381 159.628 200.743 162.718 190.735C164.971 190.29 164.165 194.476 164.055 195.584C162.715 202.993 153.18 202.252 148.024 203.324C148.024 203.297 148.019 203.269 148.019 203.244C139.853 204.736 105.807 204.565 115.053 190.536C118.328 201.213 129.976 199.168 138.793 199.392ZM119.206 191.915C130.39 195.875 146.964 197.508 158.244 191.558C161.194 196.579 147.171 199.047 144.385 198.759C143.813 198.856 143.032 198.353 142.256 198.787C136.437 198.66 119.559 199.751 119.206 191.915ZM93.4002 182.34C89.7524 175.645 89.7966 151.651 88.529 179.955C81.6972 174.962 87.4079 162.876 81.7607 158.297C81.6751 160.825 83.5943 175.86 79.3362 167.479C77.5882 161.021 78.8971 153.693 74.824 148.512C78.1433 169.911 73.3052 164.321 67.7934 149.208C63.9301 149.783 77.8119 177.579 59.8321 151.532C54.7732 148.156 62.9332 162.378 65.0098 162.934C70.7647 168.571 49.5402 155.898 46.7263 145.84C45.793 154.992 57.9985 161.226 63.8252 166.664C63.3309 173.279 44.5172 155.172 43.0481 153.776C43.0812 160.206 55.2592 169.325 61.6133 170.729C61.8038 181.903 44.8789 164.031 41.9656 163.787C45.4643 169.773 51.7024 176.233 58.6972 177.059C59.9619 180.953 47.1295 176.178 45.5168 175.332C41.1454 172.881 36.2881 171.801 41.4437 166.954C37.5114 165.191 35.9512 162.674 38.7734 159.043C38.4862 154.34 36.6747 154.135 40.5517 150.922C39.6764 147.387 41.9849 142.402 43.7081 140.772C50.3576 143.837 55.0051 141.615 52.992 148.147C53.1715 151.325 54.9665 145.608 55.8225 145.486C59.6526 143.569 59.3627 149.101 61.5663 143.859C65.5152 141.225 63.5739 147.667 67.6746 142.049C69.9804 140.894 70.3947 142.369 70.9525 142.814C78.5851 142.604 74.9786 146.655 79.9769 147.802C82.3407 151.347 80.1481 151.601 84.4697 153.704C86.4165 158.446 85.08 157.297 89.1725 158.272C90.4952 159.007 89.4376 160.742 89.595 161.693C93.4058 162.091 94.6898 161.558 93.8586 165.935C96.3495 167.286 97.1392 160.621 99.434 165.318C99.8372 166.57 100.345 166.302 100.887 166.142C107.95 161.859 94.665 172.362 103.731 185.272C105.586 187.684 108.03 188.298 110.132 189.607C112.228 195.745 100.627 191.122 98.161 184.001C96.3909 179.452 97.6888 174.647 95.9656 170.533C94.364 172.801 97.3905 189.019 93.4058 182.337L93.4002 182.34ZM83.9395 117.862C83.9395 117.353 84.0113 116.851 84.1604 116.364C84.721 114.538 84.9143 111.095 86.0134 111.307C97.2 115.64 105.876 101.907 117.331 112.219C120.636 114.615 123.378 117.74 122.064 121.576C121.443 125.798 127.576 128.133 129.39 124.328C130.448 121.31 128.114 119.644 127.805 122.703C124.42 125.237 123.925 119.354 125.927 117.721C129.606 112.672 136.139 121.319 133.129 128.514C128.515 135.757 119.181 131.93 118.899 124.259C116.359 111.644 100.652 108.492 92.3398 118.326C87.0103 127.381 89.9733 148.57 112.802 141.582C113.727 148.346 84.4918 155.343 83.2271 126.389C83.158 123.352 83.934 120.481 83.9395 117.87V117.862ZM90.1114 100.235C90.2356 102.459 90.4041 103.858 91.7406 105.347C99.5969 110.835 109.367 92.6415 120.338 107.58C122.321 115.66 111.778 105.538 108.179 106.555C102.538 105.308 86.5408 116.035 85.5356 106.513C85.1242 103.974 87.9547 97.0986 90.1141 100.238L90.1114 100.235ZM162.721 110.592C171.82 103.938 181.485 114.333 190.879 111.827C194.19 109.146 194.24 123.405 194.767 126.389C194.745 126.389 194.726 126.389 194.704 126.392C195.806 142.151 176.848 155.857 165.239 142.726C163.974 138.857 171.093 143.574 172.378 143.138C185.384 145.685 193.295 125.03 183.882 116.596C178.991 111.874 166.937 110.448 162.171 117.398C158.156 121.764 160.186 129.05 154.696 131.507C136.827 136.851 145.161 107.605 152.849 118.923C153.832 121.321 152.962 124.146 150.465 123.024C148.98 119.539 148.168 120.827 148.251 123.225C148.878 127.652 154.978 126.807 155.679 123.203C154.911 116.248 156.996 115.035 162.721 110.589V110.592ZM167.526 101.534C169.856 101.534 171.035 102.059 172.861 102.866C193.58 114.419 184.616 93.371 190.68 100.586C198.219 118.019 178.389 106.704 170.483 106.524C167.796 106.787 165.344 107.099 163.375 108.411C153.133 116.395 156.422 102.213 167.526 101.534ZM138.848 149.653C130.434 149.885 104.609 158.62 115.71 140.888C116.055 140.336 116.577 139.899 117.201 139.711C120.578 138.694 112.656 150.242 134.775 144.447C143.819 141.828 158.465 152.488 160.095 139.617C169.655 143.599 161.285 156.852 160.302 149.41C160.172 149.396 160.186 149.396 160.056 149.383C157.83 154.793 156.45 151.676 157.604 148.23C154.285 155.691 150.153 149.344 138.851 149.653H138.848ZM91.8704 127.58C93.4196 110.036 117.168 112.396 118.361 129.111C118.563 142.461 93.6156 149.584 91.8704 127.58ZM148.842 140.233C153.125 139.335 150.728 134.897 153.07 135.221C164.433 146.929 146.569 143.989 139.696 142.74C133.991 142.842 128.854 144.784 123.801 143.961C118.181 143.37 124.42 130.811 126.292 137.022C125.093 142.698 144.092 139.822 148.842 140.236V140.233ZM172.397 115.582C172.4 115.538 172.405 115.496 172.408 115.452C191.119 114.944 189.28 140.897 173.424 141.853C155.367 140.501 155.118 118.263 172.397 115.582ZM149.952 115.03C146.169 114.734 142.764 118.345 142.463 121.454C137.821 136.392 161.912 138.973 130.826 136.68C133.403 130.905 136.713 132.64 135.783 123.104C135.319 111.551 119.7 117.149 126.446 110.882C128.371 108.851 124.127 111.86 124.141 110.255C124.665 98.9113 128.772 99.2871 137.953 92.4619C139.831 91.55 149.366 97.9884 152.247 102.437C154.326 105.499 154.826 115.8 149.952 115.03ZM207.315 129.769C204.327 129.352 199.848 132.272 197.755 131.001C198.658 126.29 194.798 92.0778 186.58 97.4551C182.28 115.436 172.427 89.6599 157.706 104.327C155.635 106.162 155.56 103.576 154.953 102.68C151.683 96.2282 144.702 93.6998 139.05 90.5055C131.928 93.7772 124.632 97.6623 121.589 105.076C116.152 101.68 113.89 97.8779 105.465 100.547C96.5483 103.929 94.4855 108.091 91.1386 97.3639C83.1498 93.5395 79.1567 124.148 80.311 130.426C80.5264 132.999 72.579 129.037 63.8583 129.313C77.6931 119.757 78.679 113.778 82.3296 96.9743C86.1128 89.0851 100.566 92.553 106.512 96.4299C108.933 97.4551 109.251 91.9064 111.101 90.9725C114.741 87.5819 114.738 88.8862 117.22 91.4698C118.527 83.5558 127.01 93.0421 138.97 81.149C149.118 93.2687 164.386 82.2654 169.152 95.0206C169.461 97.0157 170.795 96.8168 171.958 96.1342C198.821 84.5727 195.596 100.069 198.818 111.465C204.319 128.487 223.652 129.664 207.321 129.769H207.315ZM199.575 96.9024C194.002 85.421 181.504 85.9378 172.104 91.5113C167.73 78.7146 152.735 88.5408 140.464 79.7508C137.876 78.032 136.824 80.7124 134.681 81.2982C130.105 83.6829 124.878 83.7907 120.363 84.2273C110.516 83.705 109.742 85.5841 105.241 91.5085C95.996 85.2497 77.3093 82.912 76.0611 110.047C73.8851 120.567 56.8166 135.389 46.3618 128.617C44.5834 126.356 44.5282 124.101 47.3615 123.831C49.1509 123.399 49.7639 122.521 50.816 121.775C57.576 125.967 67.8569 117.094 71.9134 109.334C75.8955 97.1981 75.8513 84.6031 92.6823 79.9608C103.504 77.565 100.978 86.5816 109.671 77.9934C125.353 75.9568 123.881 84.2936 138.837 68.2252C157.212 89.1487 161.072 69.7035 172.107 81.4005C174.484 84.9596 181.073 71.8451 197.244 87.0762C204.626 94.8023 202.334 107.038 209.414 114.248C212.09 118.036 221.305 125.414 225.961 122.167C234.223 123.297 235.38 129.233 226.822 130.335C226.822 130.335 226.822 130.341 226.822 130.344C206.76 127.663 201.925 115.176 199.572 96.908L199.575 96.9024ZM102.347 66.1638C108.326 68.9077 112.068 68.9602 116.362 63.2016C118.458 63.5801 121.305 65.1939 123.519 64.9314C127.001 64.5942 128.835 62.1045 130.727 60.1758C135.83 65.0889 143.565 61.3557 148.046 60.7644C150.684 65.6581 156.778 65.7686 160.815 63.0662C164.56 66.1444 167.341 70.4109 174.311 66.4539C175.396 65.9123 175.219 66.1527 175.647 66.3683C182.076 78.4051 190.263 68.7474 190.642 72.8537C192.014 78.1592 197.888 76.877 200.917 78.1564C201.977 88.7591 209.058 80.6102 208.71 90.8398C211.06 93.8573 213.192 94.9571 214.166 98.5328C222.652 104.946 215.558 101.371 210.894 110.603C206.161 108.019 208.829 96.0458 199.953 85.1558C193.845 78.1536 181.924 73.0609 174.026 79.1512C170.226 78.2946 170.975 72.4337 158.217 74.8432C145.407 76.8466 142.877 60.8583 133.811 69.1454C122.15 81.6658 115.326 68.076 105.611 78.1592C104.714 79.4966 104.766 79.3031 103.974 79.0793C93.8006 72.7183 74.8461 76.3299 69.094 107.878C67.335 112.41 66.8434 110.304 65.6256 108.003C63.6319 105.626 59.8183 104.018 59.2495 101.542C62.9664 100.268 64.2422 98.6157 64.8883 94.8742C70.309 91.8595 68.9421 90.0274 69.9252 85.4818C75.5834 84.7882 76.0749 82.3372 77.3342 77.7447C80.7031 77.916 83.9754 77.3965 85.9692 75.2467C88.8908 66.2246 94.48 80.0686 102.35 66.1638H102.347ZM87.3554 63.699C87.2395 55.6634 97.4568 53.1267 100.574 60.6815C102.723 69.2669 88.7168 75.8877 87.3554 63.699ZM103.529 59.8469C108.273 46.0555 124.038 62.0824 109.03 65.7023C105.606 65.7023 102.543 62.6185 103.529 59.8469ZM118.093 57.0422C118.231 49.8273 129.387 48.3711 129.481 56.6885C128.951 63.9366 117.764 64.1549 118.093 57.0422ZM146.218 56.0751C145.823 61.1871 133.648 62.2178 131.989 57.1003C130.144 47.6941 144.937 44.0797 146.218 56.0751ZM148.483 56.2851C148.466 48.5617 160.304 50.228 159.794 57.1224C159.556 64.8347 148.411 63.4475 148.483 56.2851ZM168.274 54.5967C175.051 54.2651 177.472 64.959 169.448 65.6305C161.522 66.1002 159.934 54.7017 168.274 54.5967ZM190.493 63.0744C190.338 73.9037 177.834 71.6682 177.097 62.9418C176.873 54.6188 189.631 53.2317 190.493 63.0744ZM210.298 87.0376C210.833 83.1358 218.701 76.4929 218.789 86.4821C217.654 93.534 210.187 92.5945 210.298 87.0376ZM222.796 88.3694C226.775 89.5245 223.55 89.5742 220.667 98.7013C219.076 101.365 215.862 96.872 216.066 95.3716C219.849 92.8073 220.173 92.4922 222.796 88.3694ZM202.516 76.1143C202.944 69.0873 212.013 69.7091 212.211 76.2884C211.897 83.752 202.734 84.2135 202.516 76.1143ZM198.169 74.3652C192.091 75.103 188.595 64.8485 195.115 62.9805C202.731 61.469 206.644 73.7655 198.169 74.3652ZM75.0007 69.7091C74.4429 63.4751 83.76 60.0321 86.0796 66.2605C88.0127 74.1745 75.6939 78.2144 75.0007 69.7091ZM75.2741 75.9624C75.4232 83.6746 66.559 84.1748 65.7002 77.0124C65.656 69.5129 74.9704 68.9326 75.2741 75.9624ZM67.6001 87.1232C67.589 92.951 60.2657 92.589 59.2219 87.5294C58.6751 77.6065 65.7002 81.0634 67.6001 87.1232ZM61.7182 95.6313C57.5788 105.988 55.7535 92.1137 52.9423 89.5742C56.0462 86.3329 56.118 92.2353 61.7182 95.6313ZM55.6762 102.813C58.8905 106.408 63.6291 108.356 65.0651 112.518C66.6833 114.983 53.7846 124.317 53.039 119.564C52.2244 108.237 66.6087 120.365 58.3106 112.156C51.8598 111.993 53.05 110.047 50.8243 104.739C47.3615 111.335 58.0013 114.925 47.3338 113.919C45.3401 115.585 53.2516 116.273 47.3946 121.17C34.7168 120.365 48.1236 102.437 50.6807 96.7145C53.1522 91.3123 54.2513 101.959 55.6789 102.813H55.6762ZM230.953 114.22C219.855 114.046 229.735 112.465 227.383 105.096C225.557 106.447 226.198 109.627 224.362 111.175C222.222 112.468 215.459 111.948 217.566 115.615C221.114 114.082 223.354 112.595 224.762 117.265C227.623 126.818 207.191 114.839 214.583 109.29C231.285 99.5027 219.747 83.694 233.273 107.635C234.93 110.426 235.675 113.214 235.659 115.933C235.175 125.16 223.536 120.531 230.953 114.22ZM222.028 62.1322C219.935 68.1727 217.146 74.332 218.604 80.5991C212.73 80.9722 217.823 76.0563 212.057 70.795C218.358 64.2737 216.456 54.9974 222.028 62.1294V62.1322ZM70.7895 31.6975C80.2088 26.8424 84.8287 38.5946 74.0094 39.0588C69.743 34.0518 70.5907 43.889 77.7401 41.1285C87.8083 37.1909 79.0794 30.1722 88.8383 24.7423C95.0102 21.9487 87.3582 29.6002 95.4548 30.7303C108.679 35.3229 112.029 14.3441 113.749 19.8734C112.747 27.7653 127.22 27.699 128.791 20.8931C129.473 7.86978 131.053 13.96 138.315 5.84706C139.917 5.3027 140.091 7.94715 146.969 11.4869C150.664 15.9689 145.887 22.9849 153.876 25.4359C157.822 25.9471 161.45 26.3809 163.577 23.1617C165.927 9.54709 166.786 33.6705 180.082 31.0757C182.636 30.6253 184.79 30.3297 186.182 28.412C185.997 20.4178 190.868 25.0214 193.613 29.5946C195.358 33.0211 193.544 36.4393 196.413 38.9483C207.727 47.1939 208.238 32.4878 204.073 39.1887C196.112 39.2606 195.077 29.5394 203.919 30.6917C212.054 30.4347 217.823 47.8488 207.854 46.7214C193.85 42.9661 173.095 41.2474 157.317 40.5289C154.837 40.4847 152.954 40.4267 153.873 38.6858C154.577 22.1531 157.816 40.0011 194.836 40.2692C175.186 36.8206 180.963 37.6081 158.421 29.7549C155.961 28.6026 153.959 30.1832 151.984 29.2133C148.259 25.0988 142.391 23.7752 140.121 19.2158C138.461 16.2066 139.141 19.984 125.795 29.2769C112.678 29.1304 101.604 38.7549 88.7555 39.1611C86.7672 39.4098 84.5277 39.5314 83.2243 39.932C97.0978 42.477 110.919 33.4383 123.798 32.1507C121.258 43.8393 134.259 38.5697 99.3208 41.9492C88.2363 42.8501 77.9776 45.2209 67.5642 46.9508C61.7624 42.9965 65.6091 34.3033 70.784 31.6975H70.7895ZM141.118 40.2388C133.187 39.7193 125.872 43.1457 128.233 33.4743C130.387 27.8869 136.283 25.3337 139.008 20.5781C141.888 25.6514 146.279 27.2818 149.054 32.007C151.802 41.684 148.571 40.1614 141.121 40.2388H141.118ZM78.632 47.169C118.242 39.8491 158.703 40.0066 197.89 46.8955C214.1 50.4684 221.219 49.5151 210.306 68.6093C206.443 72.0661 209.593 66.2356 209.552 64.8043C210.24 60.5543 207.542 59.8525 209.102 56.9427C205.794 61.0103 205.352 55.4589 205.924 53.4721C203.587 58.9738 201.972 54.9808 201.558 52.469C200.735 60.3664 171.773 38.8792 97.1309 50.5872C93.9083 50.5568 82.9924 55.6357 83.691 50.4463C81.7801 55.4008 79.1125 55.9424 77.3286 50.0788C74.9814 60.5267 76.0059 52.5823 69.3315 59.9685C65.7499 64.2074 72.4989 71.7567 67.9922 69.3498C59.0644 52.8227 59.4704 50.5872 78.632 47.169ZM65.4296 69.9274C66.3878 71.8644 61.315 74.3569 62.6875 78.7367C62.5853 81.312 58.78 80.823 59.1721 79.5767C60.9284 73.0858 57.6727 67.6007 55.6706 62.4831C61.1355 54.2209 60.0613 65.3873 65.4296 69.9246V69.9274ZM49.659 61.4524C48.3142 53.0106 67.7961 81.7404 50.8574 88.4883C48.3307 90.5828 49.9158 93.1444 48.7284 95.25C44.5669 99.7514 43.4871 107.027 37.8925 108.171C45.1302 112.042 32.6678 111.968 32.7617 113.742C38.4641 112.476 39.9884 113.394 38.152 118.42C32.4662 120.053 31.5052 125.646 29.7821 123.582C14.8234 104.769 52.553 91.5085 49.6617 61.4524H49.659ZM18.3028 130.338C21.5282 120.716 22.34 128.489 27.41 131.399C26.3662 135.182 26.3275 138.376 25.4908 141.786C21.1719 145.05 15.9721 136.185 18.3028 130.341V130.338ZM24.4498 173.453C14.0308 178.604 -3.52366 157.788 3.99299 148.612C3.86872 162.27 21.8623 168.924 26.4822 153.351C28.5174 145.862 27.4432 141.585 31.4224 143.964C26.4767 139.515 29.9202 138.479 35.015 139.402C33.5846 137.697 30.2792 138.247 30.0003 136.412C30.6658 132.375 37.3429 117.486 42.482 123.214C46.892 125.204 38.1852 130.067 51.6693 133.01C39.5024 146.208 45.0197 132.463 39.1075 145.774C38.2349 150.858 38.5138 150.527 36.7106 153.585C36.625 161.179 37.4672 160.521 30.4863 164.625C27.5371 167.217 26.0045 170.342 24.447 173.453H24.4498ZM31.1849 200.254C26.7279 199.696 26.1591 192.606 28.9702 190.807C35.5867 194.272 34.2639 194.087 31.1849 200.254ZM62.7758 228.948C58.3133 234.646 34.4683 242.856 39.7261 237.97C66.1641 222.316 20.7826 200.622 39.1848 195.024C43.9014 194.33 41.463 196.267 42.9183 198.936C43.5755 202.225 47.3891 203.725 46.29 206.814C51.2827 203.778 48.7118 209.755 48.8416 212.203C54.4418 200.89 50.33 215.24 52.0034 219.255C53.4311 217.887 52.7131 208.704 54.9803 208.486C64.7033 211.191 71.872 202.299 70.9884 205.775C63.4137 214.737 61.1687 216.096 62.7758 228.951V228.948ZM139.955 277.839C138.76 278.897 138.174 278.179 137.6 277.305C129.128 265.006 107.42 271.967 101.146 258.675C98.2963 240.869 105.976 232.015 90.3488 215.568C89.8573 214.762 90.3488 214.4 90.8128 214.018C99.7074 208.735 94.56 213.311 96.4323 218.29C97.1006 222.963 100.823 220.766 101.759 225.536C112.631 248.551 88.7113 263.804 134.96 265.13C146.158 265.172 156.8 265.785 166.838 260.969C180.126 256.763 165.446 231.54 180.51 220.661C182.407 217.544 181.308 214.123 181.775 211.352C196.493 217.445 177.917 214.455 177.177 239.454C181.711 280.107 158.438 257.788 139.953 277.842L139.955 277.839ZM77.348 194.946C78.7232 185.805 84.0224 196.292 86.9909 199.652C86.3972 200.959 85.5853 201.921 84.3427 202.335C78.331 204.59 81.9182 198.726 78.1543 196.579C77.5744 196.248 77.2486 195.607 77.348 194.946ZM70.0578 185.977C71.1706 176.236 75.5116 181.763 77.9997 186.593C78.3835 187.336 78.2206 188.248 77.6103 188.82C73.609 192.572 70.1931 194.57 70.0578 185.977ZM86.1459 208.511C87.9933 203.178 92.1659 200.243 94.861 206.549C95.0267 206.933 95.0985 207.359 95.0571 207.773C94.7892 210.357 92.3564 210.443 90.4842 211.667C84.0141 215.765 82.5312 216.497 86.1459 208.511ZM125.154 214.612C126.529 214.833 127.297 216.317 126.828 217.63C125.276 221.982 120.333 229.012 121.109 221.952C120.899 218.285 122.649 214.209 125.151 214.612H125.154ZM121.098 229.285C130.633 219.898 124.486 224.159 129.995 230.065C130.133 230.211 130.332 230.288 130.531 230.277C136.241 230.004 137.76 214.585 138.622 233.883C139.544 238.705 139.983 228.092 140.265 226.577C140.585 221.258 143.333 227.909 144.799 229.053C145.061 229.258 145.299 229.487 145.531 229.722C146.547 230.753 147.988 230.664 148.604 229.482C150.764 226.577 150.01 221.062 152.821 225.215C161.365 236.243 158.095 220.332 160.089 221.255C168.915 225.342 159.299 227.882 161.45 235.481C160.155 230.907 156.571 236.666 154.975 243.027C152.103 254.478 154.191 259.75 147.801 244.268C144.592 241.101 140.654 252.635 139.254 254.533C137.282 254.185 136.393 247.948 133.198 244.854C129.335 240.64 128.921 248.943 127.222 251.251C125.173 255.951 124.853 251.353 124.718 249.092C124.687 248.59 124.613 248.092 124.494 247.603C123.401 243.091 121.031 229.357 116.378 235.718C115.779 231.244 111.899 219.849 118.223 221.634C118.43 224.193 117.878 230.139 121.092 229.28L121.098 229.285ZM133.72 215.546C141.88 215.345 131.682 228.854 130.804 226.489C129.52 222.659 128.832 215.684 133.72 215.546ZM143.995 215.56C144.291 215.582 144.589 215.599 144.885 215.596C149.654 215.557 148.8 223.532 147.519 226.174C145.326 228.945 137.738 215.082 143.995 215.56ZM153.752 214.745C155.466 215.375 157.173 217.914 156.778 223.178C156.764 223.178 156.751 223.178 156.734 223.178C156.681 228.805 152.959 221.462 151.308 218.395C150.278 216.483 151.871 214.057 153.752 214.745ZM166.653 219.431C167.001 224.204 161.428 219.57 159.658 216.699C159.222 215.991 159.31 215.077 159.843 214.438C162.853 210.849 166.667 211.747 166.612 217.279C166.603 217.997 166.601 218.716 166.653 219.431ZM171.306 218.688C178.411 225.961 169.519 226.489 169.674 221.634C170.135 219.224 169.903 217.083 169.674 215.173C174.12 217.525 180.391 224.256 171.309 218.688H171.306ZM178.889 214.764C178.751 220.338 174.976 215.64 173.25 214.419C168.868 209.871 179.527 202.349 178.889 214.764ZM172.162 226.884C172.043 230.957 168.71 227.807 167.713 226.696C167.189 222.805 172.17 225.146 172.162 226.884ZM170.812 231.145C170.141 235.428 167.252 231.993 165.935 231.093C165.223 225.522 169.964 229.155 170.812 231.145ZM163.359 238.12C163.383 232.049 172.308 242.629 166.962 241.267C171.51 258.112 164.148 243.237 163.359 238.12ZM162.638 257.462C158.899 257.23 154.997 256.451 156.165 252.174C156.524 250.096 158.96 234.519 161.359 240.151C167.435 253.213 170.306 257.57 162.641 257.462H162.638ZM164.444 234.864C163.903 229.929 169.539 233.969 169.674 235.917C169.249 240.181 165.988 235.959 164.444 234.864ZM146.674 259.808C138.531 260.295 142.562 251.411 146.033 248.501C148.063 251.629 153.337 260.096 146.674 259.808ZM136.123 256.948C136.081 260.289 128.995 261.497 127.918 258.322C130.376 246.42 133.159 245.964 136.123 256.948ZM108.555 240.623C110.535 237.832 114.81 233.579 114.909 238.592C114.18 241.402 112.454 242.825 111.96 245.075C108.453 254.948 107.671 248.377 109.254 244.036C109.378 243.696 109.571 243.384 109.817 243.118C115.409 237.103 107.892 244.472 108.555 240.62V240.623ZM108.271 236.033C108.588 234.397 110.408 233.56 111.568 232.822C112.051 232.516 112.661 232.452 113.167 232.717C116.061 234.251 107.856 240.736 108.271 236.03V236.033ZM114.641 254.417C109.143 252.665 111.847 251.648 115.017 251.394C109.174 251.72 114.467 245.066 115.287 242.347C119.292 232.217 120.893 248.957 121.606 251.914C124.682 261.154 101.828 256.539 114.641 254.42V254.417ZM112.595 221.648C110.38 222.723 111.374 216.527 111.673 215.024C112.222 212.264 113.586 211.805 114.6 212.178C122.694 214.574 117.129 218.575 112.595 221.648ZM112.424 230.518C111.559 232.936 107.02 234.613 107.218 231.421C108.596 227.882 112.316 227.147 112.424 230.518ZM107.351 229.001C103.905 228.313 106.666 225.472 107.917 224.591C113.006 225.011 109.337 228.36 107.351 229.001ZM107.177 218.694C107.216 218.763 107.285 218.829 107.387 218.89C111.325 225.486 101.436 227.111 104.291 221.623C105.258 220.694 104.932 221.029 105.614 220.321C106.28 219.633 106.793 219.1 107.177 218.694ZM108.196 217.074C108.121 217.304 107.986 217.508 107.807 217.666C107.652 217.801 107.522 217.926 107.417 218.042C105.794 219.241 101.922 222.272 102.016 220.296C107.981 214.983 110.17 211.028 108.199 217.074H108.196ZM105.714 212.087C105.037 216.093 97.1033 222.612 99.0612 214.43C99.1192 214.181 99.1661 213.93 99.1993 213.676C99.9228 208.221 103.272 205.496 105.606 211.172C105.722 211.457 105.763 211.774 105.711 212.084L105.714 212.087ZM198.418 197.737C197.103 199.395 198.064 202.855 195.966 203.02C186.163 200.937 194.781 195.272 197.432 191.094C201.03 192.114 202.555 195.982 198.418 197.737ZM199.442 188.491C201.29 184.075 207.542 175.711 207.625 186.253C207.578 195.322 204.049 193.078 199.442 188.491ZM193.812 214.748C191.1 213.618 184.445 211.178 182.926 208.301C182.534 207.558 182.611 206.646 183.067 205.941C188.468 197.563 193.003 209.564 193.812 214.748ZM208.583 230.338C202.535 234.594 206.821 230.161 203.921 227.633C198.167 220.683 183.89 228.589 188.689 243.491C180.09 246.379 193.801 242.977 194.527 246.351C194.013 248.62 183.65 252.165 182.001 251.248C179.93 243.342 180.698 234.328 183.597 227.18C191.501 207.11 194.985 223.715 196.91 218.578C197.247 217.677 197.346 216.69 197.148 215.748C194.16 201.517 189.496 206.812 197.454 205.317C198.553 205.109 199.357 203.239 199.603 202.15C201.218 194.988 201.364 199.901 202.673 195.772C205.001 191.022 209.839 201.564 209.82 186.654C209.911 182.37 212.548 188.58 212.717 183.133C211.096 161.082 198.247 188.928 187.695 199.298C173.57 207.11 158.021 209.918 142.272 210.843C130.536 211.716 103.979 208.019 90.2494 199.218C84.2709 195.518 66.8131 160.295 65.2943 181.845C64.985 184.203 65.6063 186.386 67.4206 185.211C70.6211 191.475 64.2698 195.344 74.9124 194.778C74.8986 197.472 77.0414 197.723 77.787 199.329C78.0604 210.879 86.9164 200.066 82.3848 209.68C82.0562 210.376 81.8077 211.111 81.6475 211.866C77.8809 229.769 86.5629 208.707 91.0834 221.073C94.9494 227.124 97.327 234.508 96.8741 241.272C96.5234 253.331 98.1002 253.881 84.0279 247.575C83.0752 246.863 83.5944 245.967 84.2764 245.76C93.2953 243.149 91.3043 230.098 84.0997 226.392C78.6569 223.112 72.706 225.994 72.5292 232.04C54.6379 222.808 77.6075 209.337 74.2855 203.056C70.5051 196.941 70.2952 195.363 65.6643 201.835C53.9503 208.354 45.6714 201.025 44.9203 189.936C36.6691 196.576 25.7532 184.421 28.1529 175.371C28.3103 170.671 38.8093 159.922 36.8238 168.8C35.9291 170.709 36.8238 171.939 37.8069 173.202C43.3739 178.027 50.6503 179.063 57.2474 180.036C58.0897 182.672 57.4324 185.128 59.266 187.226C60.1828 188.505 62.1932 189.218 63.3171 189.044C60.1525 184.758 59.3958 183.774 61.1521 178.9C72.521 145.542 73.7415 175.805 93.3892 189.315C94.132 189.384 94.3999 190.298 95.1731 190.309C99.7405 192.791 103.742 193.802 108.447 194.742C111.587 196.958 111.333 202.598 115.779 203.559C121.412 206.825 156.414 207.489 162.983 203.078C169.216 199.544 166.12 194.529 170.08 194.545C204.095 190.815 202.555 139.349 216.591 178.021C218.314 183.542 218.289 184.18 214.481 188.925C216.516 189.652 217.817 188.046 218.819 187.071C220.3 185.186 220.289 182.268 220.313 180.467C227.01 178.43 236.258 178.179 240.82 172.163C242.761 168.153 237.998 167.059 242.261 165.224C248.171 167.045 255.044 185.518 245.13 181.608C247.113 183.009 249.643 184.039 247.108 186.104C244.816 184.349 241.419 181.207 238.84 182.887C241.287 183.396 247.627 186.681 244.708 189.055C240.527 192.503 236.871 192.501 232.574 190.069C234.477 203.612 214.854 210.31 209.464 197.767C190.277 205.002 222.252 216.315 208.577 230.338H208.583ZM229.724 223.104C228.288 230.308 234.322 235.707 239.105 238.99C232.834 240.242 224.262 234.845 218.963 232.115C216.931 230.33 213.473 229.012 215.31 226.052C218.184 216.223 210.427 211.973 207.003 205.062C209.665 205.248 210.905 207.936 214.1 208.298C219.143 209.625 219.333 207.527 221.705 211.91C221.785 205.176 224.668 209.426 226.344 212.556C230.368 216.859 225.693 208.856 226.344 207.77C231.263 204.576 235.098 202.332 235.714 195.698C236.747 193.852 242.502 194.579 242.684 198.013C245.006 206.685 231.439 212.943 229.724 223.107V223.104ZM243.94 194.446C247.097 190.517 250.49 189.157 250.692 195.347C248.864 202.661 245.63 200.417 243.94 194.446ZM253.489 173.583C250.954 168.474 247.917 163.575 242.562 162.002C240.72 159.388 240.842 157.017 241.408 154.799C239.79 149.681 238.271 145.238 236.404 140.156C228.311 137.15 234.366 140.924 227.927 134.754C223.02 131.659 231.376 133.018 232.975 130.236C234.852 128.92 234.413 126.284 233.96 124.776C237.815 119.241 240.077 121.86 243.388 126.854C243.015 127.368 242.653 127.904 241.913 127.937C239.82 129.064 238.279 130.88 237.034 132.317C238.575 131.573 247.839 125.113 243.902 130.703C248.378 130.656 246.243 133.463 244.44 135.055C253.307 129.871 244.592 176.767 270.735 157.852C275.111 154.097 272.709 145.915 274.984 149.866C278.779 160.436 264.516 177.731 253.487 173.586L253.489 173.583Z" fill="#EEE081"/>
<path d="M244.441 135.052C244.082 135.262 243.692 135.558 243.272 135.945C243.573 135.762 243.996 135.442 244.441 135.052Z" fill="#EEE081"/>
<path d="M115.017 251.394C115.11 251.389 115.21 251.383 115.309 251.372C115.213 251.378 115.113 251.386 115.017 251.394Z" fill="#EEE081"/>
<path d="M119.825 181.246C129.973 178.53 121.943 186.612 115.837 184.52C106.796 181.721 109.839 169.718 119.372 174.158C121.448 176.413 118.298 174.352 116.798 175.029C113.092 176.559 116.268 181.735 119.825 181.246Z" fill="#EEE081"/>
<path d="M162.616 173.235C175.65 175.777 159.614 192.506 153.155 181.069C154.02 179.469 158.485 182.299 160.426 180.748C162.39 179.944 164.215 176.656 161.406 175.197C155.041 175.23 159.255 173.564 162.613 173.238L162.616 173.235Z" fill="#EEE081"/>
<path d="M139.759 168.082C138.897 168.281 137.785 167.924 136.721 168.3C135.457 169.248 123.768 166.053 129.95 165.987C137.014 167.526 159.824 164.978 139.759 168.082Z" fill="#EEE081"/>
<path d="M137.743 188.925C135.564 188.955 132.913 188.925 130.4 188.322C133.126 187.85 146.74 185.443 149.233 186.841C148.783 189.342 139.72 188.45 137.746 188.925H137.743Z" fill="#EEE081"/>
<path d="M154.917 169.405C157.217 165.385 172.157 164.003 169.895 170.646C166.99 165.526 159.874 166.982 154.917 169.405Z" fill="#EEE081"/>
<path d="M110.957 168.104C113.528 164.636 125.921 165.324 124.549 169.961C120.918 166.205 115.941 167.029 110.957 168.104Z" fill="#EEE081"/>
<path d="M142.493 164.644C140.052 164.979 137.465 165.313 134.667 164.188C134.146 163.379 140.867 164.277 142.493 164.644Z" fill="#EEE081"/>
<path d="M140.604 183.656C146.674 183.567 139.958 185.523 137.155 184.286C136.956 183.437 139.154 183.918 140.604 183.656Z" fill="#EEE081"/>
<path d="M173.814 118.989C183.78 119.246 187.127 131.435 179.326 137.721C173.913 143.082 162.837 138.606 162.31 130.507C162.395 128.307 162.762 124.939 164.983 123.015C166.579 120.294 170.359 119.103 173.814 118.989ZM176.208 132.51C176.586 141.01 182.377 130.703 181.554 126.815C180.151 121.087 172.878 119.047 167.879 122.767C160.169 127.022 166.325 143.671 173.339 133.637C168.973 140.902 175.606 138.235 176.208 132.51Z" fill="#EEE081"/>
<path d="M103.447 140.084C89.6644 137.282 92.2105 116.464 106.656 119.26C119.836 122.46 117.834 140.537 103.447 140.084ZM105.742 132.897C98.8048 144.638 120.902 134.455 111.336 123.927C107.219 119.166 98.9788 119.893 96.3609 126.185C95.781 128.583 97.6146 137.6 101.563 133.696C98.4817 138.647 104.637 135.826 105.742 132.9V132.897Z" fill="#EEE081"/>
</svg>
