<?xml version="1.0" encoding="UTF-8"?>
<svg id="Layer_2" data-name="Layer 2" xmlns="http://www.w3.org/2000/svg" viewBox="0 0 263 84">
  <g id="Layer_1-2" data-name="Layer 1">
    <g>
      <path d="M29.71,82.64c-3.43,0-6.42-.12-8.87-.35-2.29-.22-4.21-.33-5.7-.33-1.76,0-3.72.03-5.82.1-2.1.07-4.36.21-6.71.41-.07,0-.14,0-.21,0-.81,0-1.56-.41-2.01-1.09-.48-.74-.52-1.69-.09-2.47.87-1.58,1.64-3.37,2.31-5.34.69-2.03,1.29-4.18,1.79-6.38.51-2.23.94-4.53,1.3-6.83.36-2.3.66-4.57.9-6.73.54-5.05.86-10.32.93-15.66-.07-5.3-.33-10.34-.77-14.99-.2-1.95-.45-3.97-.74-5.98-.29-1.97-.63-3.86-1.04-5.62-.39-1.71-.85-3.26-1.38-4.6-.47-1.2-1-2.14-1.58-2.8-.67-.76-.78-1.86-.3-2.75.42-.76,1.22-1.24,2.09-1.24.13,0,.26.01.39.03,2.48.4,4.87.68,7.09.81,2.25.14,4.27.2,5.99.2,1.1,0,2.17-.03,3.19-.1,1.08-.07,2.2-.14,3.35-.21,1.16-.07,2.39-.14,3.7-.21,1.34-.07,2.87-.11,4.54-.11,2.45,0,5.08.17,7.79.52,2.81.35,5.6,1.06,8.29,2.1,2.73,1.06,5.37,2.56,7.83,4.48,2.52,1.95,4.76,4.54,6.64,7.68,1.86,3.09,3.35,6.88,4.43,11.26,1.07,4.34,1.61,9.55,1.61,15.47s-.67,11.07-1.99,15.36c-1.32,4.31-3.11,8.05-5.31,11.09-2.22,3.07-4.78,5.57-7.62,7.45-2.76,1.83-5.61,3.27-8.48,4.29-2.85,1.01-5.68,1.7-8.42,2.03-2.66.32-5.06.49-7.13.49ZM15.14,78.9c1.59,0,3.6.12,5.99.34,2.36.22,5.24.34,8.58.34,1.95,0,4.22-.16,6.76-.47,2.52-.31,5.13-.94,7.77-1.88,2.64-.94,5.27-2.27,7.82-3.96,2.53-1.67,4.83-3.93,6.83-6.69,2-2.77,3.64-6.2,4.86-10.2,1.23-4,1.85-8.87,1.85-14.46s-.51-10.63-1.52-14.73c-1.01-4.08-2.38-7.59-4.08-10.42-1.69-2.81-3.67-5.11-5.9-6.83-2.24-1.73-4.61-3.09-7.07-4.04-2.46-.95-5.01-1.6-7.57-1.92-2.59-.33-5.08-.49-7.41-.49-1.62,0-3.09.03-4.38.1-1.3.07-2.53.14-3.68.21-1.15.07-2.26.14-3.34.21-1.08.07-2.22.11-3.38.11-1.78,0-3.86-.07-6.18-.21-1.85-.11-3.8-.31-5.83-.6.42.69.81,1.48,1.16,2.37.58,1.49,1.09,3.18,1.52,5.04.42,1.84.78,3.81,1.08,5.86.3,2.06.55,4.12.76,6.12.45,4.75.72,9.89.79,15.28v.02s0,.02,0,.02c-.07,5.44-.39,10.81-.94,15.97-.25,2.21-.55,4.52-.92,6.86-.37,2.37-.82,4.73-1.34,7.03-.52,2.31-1.15,4.56-1.87,6.69-.58,1.71-1.23,3.3-1.96,4.76,1.97-.16,3.88-.26,5.67-.32,2.14-.07,4.13-.1,5.92-.1ZM3.7,3.05s0,0,0,0c0,0,0,0,0,0ZM35.14,64.78c-1.06,0-1.99-.43-2.76-1.29-.72-.8-1.3-2.08-1.77-3.92-.44-1.73-.78-4.07-1.01-6.94-.23-2.84-.34-6.44-.34-10.71s.12-7.55.37-10.4c.24-2.86.6-5.25,1.06-7.09.48-1.92,1.06-3.3,1.77-4.2.77-.98,1.68-1.48,2.69-1.48,1.08,0,2.05.42,2.87,1.24.79.79,1.41,2.04,1.92,3.82.48,1.69.85,3.94,1.09,6.69.24,2.74.37,6.19.37,10.27,0,8.12-.52,14.14-1.54,17.92-1.11,4.1-2.65,6.09-4.71,6.09ZM35.17,21.81s-.15.1-.32.31c-.24.31-.72,1.11-1.2,3.05-.42,1.68-.75,3.91-.98,6.61-.24,2.76-.36,6.17-.36,10.13,0,4.18.11,7.7.33,10.46.21,2.7.53,4.86.93,6.43.46,1.8.9,2.43,1.08,2.62.23.26.36.28.46.28.11-.06.93-.64,1.79-3.83.95-3.51,1.43-9.27,1.43-17.12,0-3.99-.12-7.35-.36-9.99-.23-2.56-.56-4.62-.99-6.13-.48-1.7-.96-2.31-1.14-2.49-.28-.29-.49-.34-.68-.34Z"/>
      <path d="M105.04,82.95c-.66,0-1.29-.28-1.74-.75-.56-.6-.78-1.43-.58-2.23.24-.94.51-1.8.81-2.54.22-.55.43-1.18.61-1.86.18-.68.34-1.5.46-2.45.12-.94.19-2.19.19-3.71s-.11-3.02-.34-4.41c-.21-1.32-.53-2.5-.94-3.49-.36-.86-.79-1.54-1.27-2.01-.33-.32-.58-.36-.81-.36-.59,0-.87.18-1.06.35-.43.38-.79.93-1.08,1.66-.36.89-.63,1.95-.79,3.15-.18,1.28-.27,2.67-.27,4.12s.09,2.66.25,3.65c.17,1.02.37,1.91.6,2.64.25.8.49,1.5.71,2.09.3.79.52,1.59.65,2.37.12.74-.11,1.51-.63,2.05-.51.54-1.26.82-2.01.73-2.35-.27-4.68-.48-6.94-.62-2.26-.14-4.54-.2-6.78-.2s-4.51.07-6.78.2c-2.26.14-4.64.34-7.06.62-.08,0-.18.02-.27.02-.73,0-1.41-.33-1.87-.9-.52-.65-.67-1.5-.4-2.28,2.13-6.2,4.02-12.43,5.61-18.52,1.6-6.09,2.98-12.31,4.11-18.46,1.13-6.16,2.06-12.48,2.77-18.78.71-6.31,1.24-12.87,1.58-19.49.03-.67.35-1.3.86-1.72.51-.42,1.17-.62,1.84-.53,2.51.34,5.29.59,8.29.74,3.02.15,6.17.23,9.36.23,2.7,0,5.35-.07,7.89-.21,2.46-.13,4.76-.42,6.83-.84.69-.14,1.41.03,1.96.46.56.44.89,1.09.92,1.8.24,6.54.86,13.07,1.85,19.4.99,6.36,2.26,12.75,3.75,19,1.5,6.26,3.23,12.53,5.15,18.63,1.93,6.14,4,12.32,6.14,18.37.28.78.12,1.67-.39,2.31-.52.65-1.34.98-2.17.87-2.08-.27-4.12-.46-6.06-.56-1.95-.1-3.96-.15-5.96-.15-5.37,0-10.95.53-16.59,1.58-.14.03-.29.04-.44.04ZM104.92,79.9s0,0,0,0c0,0,0,0,0,0ZM101.43,56.07c1.11,0,2.1.42,2.94,1.23.77.76,1.43,1.77,1.95,3.02.51,1.21.89,2.62,1.14,4.18.25,1.55.37,3.2.37,4.9s-.07,3.04-.21,4.12c-.14,1.07-.32,2.03-.54,2.83-.22.81-.46,1.56-.73,2.22-.14.35-.27.73-.4,1.14,5.47-.96,10.88-1.45,16.11-1.45,2.06,0,4.12.05,6.12.16,1.68.09,3.44.24,5.23.45-2.02-5.76-3.98-11.63-5.81-17.46-1.94-6.17-3.7-12.51-5.21-18.84-1.51-6.33-2.79-12.8-3.8-19.24-.97-6.2-1.59-12.58-1.86-18.99-2.01.38-4.2.63-6.51.75-2.59.14-5.3.21-8.05.21-3.24,0-6.44-.08-9.51-.24-2.8-.14-5.43-.37-7.83-.67-.35,6.44-.87,12.81-1.56,18.95-.71,6.38-1.66,12.77-2.8,19-1.15,6.23-2.55,12.52-4.16,18.68-1.53,5.84-3.33,11.8-5.34,17.75,2.12-.22,4.19-.4,6.18-.52,2.32-.14,4.66-.21,6.96-.21s4.64.07,6.96.21c2.02.12,4.1.3,6.19.53-.08-.3-.18-.61-.3-.91-.24-.64-.5-1.4-.77-2.26-.27-.87-.51-1.9-.7-3.05-.2-1.16-.3-2.56-.3-4.17s.1-3.12.29-4.54c.2-1.44.53-2.75.98-3.87.47-1.17,1.11-2.12,1.9-2.81.83-.73,1.87-1.11,3.07-1.11ZM69.92,78.9s0,0,0,0c0,0,0,0,0,0ZM101.23,45.2c-1.21,0-2.3-.56-3.25-1.67-.92-1.08-1.39-2.59-1.39-4.49,0-.89.12-1.84.36-2.83.22-.94.5-1.99.81-3.13.31-1.11.64-2.39.99-3.8.14-.59.29-1.22.42-1.89l1.01-5.02,1.91,4.75c.68,1.68,1.23,3.15,1.64,4.36.63,1.83,1.1,3.33,1.42,4.45.35,1.3.56,2.27.64,2.97l.02.13v.13c-.09,1.66-.54,3.07-1.32,4.2-.86,1.23-1.95,1.85-3.26,1.85ZM100.99,32.89c-.09.35-.18.69-.27,1.01-.31,1.11-.57,2.13-.79,3.03-.18.75-.27,1.46-.27,2.11,0,1.13.23,2,.65,2.5.51.6.81.6.92.6.15,0,.37,0,.75-.55.44-.62.69-1.45.76-2.47-.06-.4-.2-1.13-.54-2.39-.27-.96-.68-2.26-1.22-3.84Z"/>
      <path d="M158.96,84c-3.89,0-7.34-.49-10.24-1.46-2.96-.99-5.45-2.36-7.4-4.09-2-1.76-3.49-3.84-4.45-6.18-.93-2.29-1.41-4.73-1.41-7.27,0-2.03.43-3.96,1.28-5.74.83-1.74,1.95-3.27,3.34-4.54,1.37-1.25,2.97-2.25,4.74-2.96.96-.39,1.95-.67,2.94-.85-.66-.44-1.3-.94-1.92-1.49-1.99-1.77-3.63-4.23-4.88-7.3-1.22-2.99-1.91-6.85-2.06-11.48v-.04c0-.2-.01-.86-.03-2.01-.02-1.13-.09-2.54-.2-4.21-.12-1.69-.31-3.55-.56-5.55-.25-1.96-.6-3.92-1.05-5.82-.44-1.85-.99-3.58-1.65-5.14-.58-1.37-1.27-2.44-2.07-3.18-.78-.73-.98-1.86-.51-2.82.46-.94,1.49-1.48,2.54-1.3,3.61.62,6.88,1.06,9.72,1.31,2.82.25,5.32.38,7.44.38,1.65,0,3.09-.04,4.3-.13,1.19-.08,2.17-.19,2.93-.31h.04c.86-.13,1.6-.28,2.18-.46.75-.23,1.62-.05,2.23.46.62.52.93,1.32.83,2.13-.17,1.43-.36,2.94-.55,4.52-.19,1.54-.36,3.14-.52,4.76-.15,1.6-.27,3.22-.36,4.79-.08,1.59-.13,3.15-.13,4.64,0,1.67.07,3.24.2,4.67.12,1.36.33,2.55.62,3.52.29,1.01.62,1.54.84,1.8.07.09.11.1.11.11h0s.02,0,.07,0c.06,0,.24-.13.46-.49.53-.84.98-2,1.34-3.46.39-1.59.66-3.43.83-5.46.17-2.09.25-4.21.25-6.3,0-2.43-.09-4.78-.28-7-.18-2.18-.41-3.95-.67-5.25-.17-.86.14-1.74.81-2.31.66-.55,1.6-.71,2.41-.4.31.12.89.29,1.91.43.05,0,.1.02.15.03.76.15,1.81.28,3.12.38,1.35.1,3.05.15,5.07.15,1.63,0,3.51-.05,5.6-.15,2.09-.1,4.48-.29,7.1-.57.08,0,.16-.01.25-.01.75,0,1.46.36,1.91.96.5.67.62,1.57.3,2.34-.41,1-.77,2.18-1.09,3.49-.33,1.36-.63,2.82-.88,4.33-.25,1.52-.47,3.11-.63,4.7-.17,1.61-.31,3.19-.41,4.7-.28,3.62-.45,7.37-.52,11.19,0,1.68.02,3.43.05,5.17.03,1.83.05,3.68.05,5.52,0,2.97-.11,6.01-.32,9.02-.22,3.09-.7,6.11-1.43,8.96-.75,2.92-1.87,5.69-3.32,8.24-1.51,2.65-3.58,4.97-6.15,6.9-2.53,1.91-5.67,3.43-9.32,4.52-3.6,1.07-7.97,1.62-12.98,1.62ZM150.39,53.73c-1.51,0-3,.29-4.43.87-1.43.58-2.72,1.38-3.82,2.39-1.1,1-1.99,2.21-2.64,3.59-.65,1.37-.98,2.86-.98,4.43,0,2.14.4,4.19,1.18,6.11.77,1.9,2,3.6,3.64,5.04,1.65,1.45,3.79,2.62,6.35,3.48,2.58.86,5.7,1.3,9.27,1.3,4.72,0,8.79-.5,12.11-1.49,3.3-.99,6.11-2.34,8.36-4.03,2.23-1.68,4.03-3.69,5.33-5.98,1.32-2.31,2.34-4.82,3.01-7.48.68-2.67,1.13-5.5,1.34-8.41.21-2.94.31-5.9.31-8.8,0-1.81-.02-3.65-.05-5.46-.03-1.76-.05-3.53-.05-5.26.07-3.9.25-7.72.52-11.38.1-1.54.25-3.16.42-4.8.17-1.65.39-3.29.66-4.88.26-1.59.58-3.12.92-4.55.25-1.04.54-2.01.85-2.9-2.26.22-4.35.38-6.2.47-2.14.1-4.07.16-5.75.16-2.09,0-3.88-.05-5.3-.16-1.42-.11-2.6-.25-3.48-.43-.55-.08-1.05-.17-1.5-.28.2,1.25.38,2.76.52,4.52.19,2.3.29,4.74.29,7.25,0,2.17-.09,4.37-.26,6.54-.18,2.19-.48,4.19-.9,5.94-.43,1.79-1.02,3.27-1.73,4.39-1,1.57-2.21,1.9-3.04,1.9-1,0-1.85-.41-2.52-1.21-.6-.71-1.08-1.69-1.43-2.91-.34-1.17-.59-2.55-.73-4.1-.14-1.53-.21-3.19-.21-4.95,0-1.55.04-3.16.13-4.8.08-1.62.21-3.27.37-4.92.16-1.64.34-3.27.52-4.83.15-1.23.29-2.42.43-3.56-.5.11-1.05.21-1.64.3-.85.14-1.93.26-3.21.34-1.28.09-2.79.13-4.51.13-2.2,0-4.8-.13-7.71-.4-2.43-.22-5.15-.57-8.13-1.04.58.8,1.09,1.73,1.54,2.79.73,1.72,1.33,3.62,1.81,5.63.47,2.01.85,4.07,1.11,6.14.26,2.05.45,3.97.58,5.72.12,1.72.19,3.2.21,4.38.02,1.13.03,1.8.03,2.03.14,4.25.75,7.75,1.83,10.4,1.07,2.63,2.44,4.71,4.08,6.17,1.64,1.46,3.48,2.47,5.47,3,2.04.54,4.1.82,6.12.82.58,0,1.3-.03,2.14-.1.84-.07,1.72-.21,2.61-.43.9-.22,1.79-.52,2.66-.9.32-.14.64-.31.93-.5l2.35-1.51v3.22c0,1.69-.11,3.49-.32,5.34-.22,1.89-.65,3.64-1.3,5.23-.66,1.63-1.63,3-2.87,4.07-1.3,1.13-2.96,1.68-5.05,1.68-1.69,0-3.08-.36-4.11-1.06-1.11-.76-1.67-1.77-1.67-3.01,0-2.52,1.57-3.91,4.42-3.91.25,0,.51.01.8.03-1.21-1.7-2.57-2.98-4.05-3.82-1.81-1.02-3.7-1.54-5.63-1.54ZM159.27,62.12c-1.37,0-1.37.23-1.37.85,0,.13,0,.25.33.48.51.35,1.33.53,2.39.53,1.33,0,2.33-.31,3.05-.93.87-.76,1.56-1.74,2.04-2.92.54-1.32.91-2.81,1.09-4.42.11-1.01.2-2,.25-2.96-.7.26-1.4.48-2.11.65-1.05.25-2.09.42-3.08.5-.89.07-1.68.11-2.32.11,1.45,1.21,2.76,2.77,3.92,4.68.49.81.46,1.83-.07,2.61-.45.65-1.19,1.04-1.97,1.04-.14,0-.29-.01-.43-.04-.31-.06-.63-.1-.92-.13-.29-.03-.56-.04-.79-.04ZM161.52,59.27h0s0,0,0,0ZM171.97,5.57s0,0,0,0c0,0,0,0,0,0ZM171.93,5.56s0,0,0,0c0,0,0,0,0,0ZM193.76,5.41s0,0,0,0c0,0,0,0,0,0ZM162.86,4.29s0,0,0,0c0,0,0,0,0,0Z"/>
      <path d="M231.26,82.95c-.66,0-1.29-.28-1.74-.75-.56-.6-.78-1.43-.58-2.23.24-.94.51-1.8.81-2.54.22-.55.43-1.18.61-1.86.18-.68.34-1.5.46-2.45.12-.94.19-2.19.19-3.71s-.11-3.02-.34-4.41c-.21-1.32-.53-2.5-.94-3.49-.36-.86-.79-1.54-1.27-2.01-.33-.32-.58-.36-.81-.36-.59,0-.87.18-1.06.35-.43.38-.79.93-1.08,1.66-.36.89-.63,1.95-.79,3.14-.18,1.28-.27,2.67-.27,4.12s.09,2.66.25,3.65c.17,1.02.37,1.91.6,2.64.25.8.49,1.5.71,2.09.3.8.52,1.59.65,2.37.12.74-.11,1.51-.63,2.05-.51.54-1.26.82-2.01.73-2.35-.27-4.68-.48-6.94-.62-2.26-.14-4.54-.2-6.78-.2s-4.51.07-6.78.2c-2.26.14-4.64.34-7.06.62-.08,0-.18.02-.27.02-.73,0-1.41-.33-1.87-.9-.52-.65-.67-1.5-.4-2.28,2.13-6.2,4.02-12.43,5.61-18.52,1.6-6.1,2.98-12.31,4.11-18.46,1.13-6.16,2.06-12.48,2.77-18.78.7-6.31,1.24-12.87,1.58-19.49.04-.67.35-1.3.86-1.72.51-.42,1.17-.62,1.84-.53,2.5.34,5.29.59,8.29.74,3.02.15,6.17.23,9.36.23,2.7,0,5.35-.07,7.89-.21,2.46-.13,4.76-.42,6.83-.84.16-.03.32-.05.48-.05h0c.53,0,1.06.18,1.48.51.56.44.89,1.09.92,1.8.24,6.54.86,13.07,1.85,19.4.99,6.36,2.25,12.75,3.75,19,1.5,6.26,3.23,12.52,5.15,18.63,1.93,6.14,4,12.32,6.14,18.37.28.78.12,1.67-.39,2.31-.52.65-1.34.98-2.17.87-2.08-.27-4.12-.46-6.06-.56-1.95-.1-3.96-.15-5.96-.15-5.37,0-10.95.53-16.59,1.58-.14.03-.29.04-.44.04ZM227.66,56.07c1.11,0,2.1.42,2.94,1.23.78.76,1.43,1.77,1.95,3.02.51,1.21.89,2.62,1.14,4.18.25,1.55.37,3.2.37,4.9s-.07,3.04-.21,4.12c-.14,1.08-.32,2.03-.54,2.83-.21.8-.46,1.55-.73,2.22-.14.35-.27.73-.4,1.14,5.47-.96,10.88-1.45,16.11-1.45,2.06,0,4.12.05,6.12.16,1.68.09,3.44.24,5.23.45-2.02-5.76-3.98-11.63-5.81-17.46-1.94-6.17-3.7-12.51-5.21-18.84-1.51-6.33-2.79-12.8-3.8-19.24-.97-6.2-1.59-12.58-1.86-18.99-2.01.38-4.2.63-6.51.75-2.59.14-5.3.21-8.05.21-3.24,0-6.44-.08-9.51-.24-2.8-.14-5.43-.37-7.83-.67-.35,6.44-.87,12.81-1.56,18.95-.71,6.37-1.65,12.77-2.8,19-1.15,6.23-2.55,12.51-4.16,18.68-1.53,5.84-3.33,11.8-5.34,17.75,2.12-.22,4.19-.4,6.18-.52,2.32-.14,4.66-.21,6.96-.21s4.63.07,6.96.21c2.02.12,4.1.3,6.19.53-.08-.3-.18-.61-.3-.91-.24-.64-.5-1.4-.77-2.26-.27-.87-.51-1.89-.7-3.05-.2-1.16-.3-2.56-.3-4.17s.1-3.12.29-4.54c.2-1.44.53-2.75.98-3.87.47-1.17,1.11-2.12,1.9-2.81.83-.73,1.87-1.11,3.07-1.11ZM196.14,78.9s0,0,0,0c0,0,0,0,0,0ZM227.45,45.2c-1.21,0-2.3-.56-3.25-1.67-.92-1.08-1.39-2.59-1.39-4.49,0-.89.12-1.84.36-2.83.22-.94.5-1.99.81-3.13.31-1.11.64-2.39.99-3.8.15-.59.29-1.23.42-1.89l1.01-5.02,1.91,4.75c.68,1.69,1.23,3.15,1.64,4.36.63,1.83,1.11,3.33,1.42,4.45.35,1.3.56,2.27.64,2.97v.13s0,.13,0,.13c-.09,1.66-.53,3.07-1.32,4.2-.86,1.23-1.95,1.85-3.26,1.85ZM227.21,32.89c-.09.35-.18.68-.27,1.01-.31,1.11-.57,2.13-.79,3.03-.18.75-.27,1.46-.27,2.11,0,1.13.23,2,.65,2.5.51.6.81.6.92.6.15,0,.37,0,.75-.55.44-.62.69-1.45.76-2.47-.06-.4-.2-1.13-.54-2.39-.27-.96-.68-2.26-1.22-3.84Z"/>
    </g>
  </g>
</svg>