<svg viewBox="0 0 238 76" fill="none" xmlns="http://www.w3.org/2000/svg" width={Astro.props.width || "100%"}>
<path d="M26.8844 74.7694C23.7788 74.7694 21.0771 74.6613 18.8592 74.4507C16.7852 74.2539 15.0485 74.1513 13.699 74.1513C12.1089 74.1513 10.3363 74.1818 8.4282 74.2456C6.52562 74.3066 4.482 74.4313 2.35542 74.617C2.28905 74.6225 2.22821 74.6253 2.16738 74.6253C1.43178 74.6253 0.751501 74.2567 0.350521 73.6386C-0.0864092 72.9651 -0.116829 72.1087 0.270325 71.4075C1.05569 69.9801 1.7581 68.3532 2.36095 66.5738C2.9804 64.739 3.52518 62.7961 3.9787 60.7978C4.43775 58.7773 4.8332 56.6986 5.15675 54.6227C5.4803 52.5384 5.75408 50.4902 5.96978 48.5362C6.46201 43.9631 6.74408 39.1959 6.80769 34.3678C6.74408 29.573 6.50902 25.0081 6.10804 20.8008C5.92553 19.0353 5.69877 17.2116 5.43606 15.3879C5.17611 13.603 4.86086 11.8929 4.49859 10.302C4.14462 8.75546 3.72429 7.35306 3.24588 6.13632C2.82001 5.05263 2.33883 4.19897 1.81617 3.60308C1.21332 2.91572 1.10547 1.91792 1.54793 1.1197C1.92955 0.426803 2.65685 0 3.44498 0C3.56389 0 3.68281 0.0110823 3.79895 0.0304835C6.04721 0.396335 8.20697 0.643011 10.2146 0.76219C12.2527 0.88414 14.0779 0.947865 15.6375 0.947865C16.6359 0.947865 17.6065 0.91739 18.5218 0.856415C19.5008 0.792668 20.5129 0.728937 21.5555 0.66519C22.6008 0.601444 23.7152 0.537679 24.9016 0.473933C26.1183 0.410186 27.501 0.376933 29.0109 0.376933C31.2315 0.376933 33.6042 0.534898 36.0627 0.845317C38.604 1.16682 41.1288 1.80706 43.5679 2.7494C46.0374 3.70561 48.4239 5.06926 50.6583 6.79874C52.9398 8.56702 54.964 10.9035 56.6703 13.7443C58.3516 16.5409 59.6984 19.9694 60.6745 23.9355C61.6424 27.8629 62.1319 32.5746 62.1319 37.9321C62.1319 43.2896 61.5263 47.9487 60.3344 51.8344C59.137 55.7396 57.5192 59.1154 55.5282 61.8704C53.5233 64.6448 51.2031 66.9147 48.6341 68.6137C46.1369 70.2656 43.5541 71.571 40.9574 72.4939C38.38 73.4113 35.8138 74.0294 33.336 74.3315C30.9301 74.6253 28.7593 74.7749 26.8844 74.7749V74.7694ZM13.699 71.3797C15.1342 71.3797 16.9594 71.485 19.1192 71.6901C21.2513 71.8925 23.8646 71.9951 26.8844 71.9951C28.6487 71.9951 30.7061 71.8537 33.0041 71.5738C35.2828 71.2966 37.65 70.7257 40.0365 69.8748C42.4203 69.0267 44.804 67.821 47.1131 66.2911C49.4056 64.775 51.4824 62.7379 53.291 60.2351C55.1023 57.7268 56.5845 54.6226 57.6935 51.0085C58.8051 47.3888 59.3693 42.9847 59.3693 37.9238C59.3693 32.8628 58.9047 28.3036 57.9921 24.5924C57.0823 20.8978 55.8407 17.7244 54.3031 15.1662C52.7739 12.6219 50.9791 10.5404 48.9687 8.9855C46.9444 7.41955 44.793 6.18897 42.5724 5.32978C40.3435 4.46781 38.0371 3.883 35.7197 3.58921C33.3747 3.29265 31.1182 3.14298 29.0137 3.14298C27.5508 3.14298 26.2179 3.17346 25.0509 3.23721C23.8729 3.30096 22.7639 3.36472 21.7242 3.42569C20.6844 3.48944 19.6778 3.55317 18.7016 3.61414C17.7282 3.67789 16.6967 3.71117 15.6375 3.71117C14.0226 3.71117 12.1421 3.64741 10.0487 3.51992C8.37842 3.42014 6.60858 3.23722 4.77513 2.97392C5.15675 3.59753 5.50796 4.31537 5.82321 5.11913C6.3514 6.46613 6.81322 8.00159 7.19761 9.68118C7.57646 11.3414 7.90554 13.1263 8.17655 14.986C8.44479 16.8485 8.67708 18.711 8.86513 20.5237C9.27441 24.8224 9.51499 29.4704 9.5786 34.3484V34.3678V34.3844C9.51499 39.3068 9.22739 44.1682 8.72409 48.8383C8.50286 50.8367 8.22356 52.9264 7.89448 55.0495C7.56263 57.1892 7.15336 59.3316 6.68048 61.4131C6.2076 63.5029 5.63516 65.54 4.9853 67.4635C4.46264 69.0072 3.86809 70.4513 3.20993 71.7705C4.9936 71.6292 6.71919 71.5322 8.34524 71.4795C10.281 71.4158 12.084 71.3853 13.7045 71.3853L13.699 71.3797ZM3.3482 2.75495C3.3482 2.75495 3.35096 2.75495 3.35372 2.75495C3.35372 2.75495 3.35096 2.75495 3.3482 2.75495ZM31.8012 58.6082C30.8388 58.6082 29.9982 58.2147 29.3013 57.4386C28.6459 56.7124 28.1232 55.5539 27.7001 53.8937C27.2992 52.325 26.9922 50.2103 26.7848 47.6133C26.5802 45.044 26.4751 41.7846 26.4751 37.9265C26.4751 34.0685 26.5885 31.0946 26.8069 28.5198C27.0282 25.9283 27.3517 23.7692 27.7665 22.1007C28.2007 20.3602 28.7233 19.1157 29.3649 18.2981C30.0645 17.4084 30.8831 16.9566 31.7957 16.9566C32.7746 16.9566 33.6485 17.3336 34.3924 18.0791C35.1031 18.7942 35.67 19.9222 36.129 21.5381C36.5632 23.068 36.895 25.1051 37.119 27.594C37.3403 30.0691 37.4536 33.1954 37.4536 36.8844C37.4536 44.2292 36.9863 49.6837 36.0627 53.0983C35.0588 56.8067 33.6651 58.611 31.7984 58.611L31.8012 58.6082ZM31.8289 19.7282C31.7957 19.7476 31.6961 19.8169 31.5413 20.0137C31.3228 20.2936 30.8886 21.0226 30.4517 22.7714C30.0701 24.2958 29.7714 26.308 29.564 28.7553C29.3511 31.2525 29.2405 34.3373 29.2405 37.9238C29.2405 41.707 29.3428 44.8916 29.5419 47.3888C29.7355 49.8306 30.0175 51.7873 30.3798 53.2064C30.7946 54.8333 31.1983 55.4098 31.3532 55.5789C31.5606 55.8117 31.6768 55.8311 31.7735 55.8338C31.8731 55.7756 32.617 55.2573 33.3968 52.3693C34.2569 49.1903 34.691 43.9797 34.691 36.8816C34.691 33.273 34.5832 30.2326 34.3675 27.8379C34.1601 25.5209 33.8586 23.6556 33.4715 22.2919C33.0346 20.7509 32.6032 20.2022 32.44 20.0359C32.1828 19.7781 31.992 19.731 31.8261 19.7254L31.8289 19.7282Z" fill="#EEE081"/>
<path d="M95.0565 75.0521C94.4619 75.0521 93.8867 74.8027 93.4802 74.3703C92.9714 73.8271 92.775 73.076 92.9548 72.3554C93.1677 71.5017 93.4138 70.7285 93.6876 70.0522C93.8895 69.5561 94.0748 68.9879 94.2407 68.3671C94.4039 67.7518 94.5449 67.0062 94.6583 66.1525C94.7717 65.3017 94.827 64.1709 94.827 62.7934C94.827 61.4159 94.7246 60.0606 94.5228 58.8023C94.3292 57.6049 94.0444 56.5434 93.671 55.6482C93.3447 54.8666 92.9603 54.2569 92.5262 53.83C92.2303 53.5418 92.0007 53.5002 91.7961 53.5002C91.2624 53.5002 91.0052 53.6665 90.8393 53.8134C90.4521 54.1543 90.123 54.6587 89.8603 55.3156C89.534 56.1249 89.2934 57.0811 89.1469 58.162C88.9865 59.3206 88.9063 60.5761 88.9063 61.8926C88.9063 63.2091 88.9837 64.3011 89.1358 65.1991C89.2907 66.1193 89.4732 66.9258 89.6833 67.591C89.9073 68.3116 90.1258 68.9491 90.3277 69.4812C90.5987 70.1991 90.795 70.9197 90.9112 71.6237C91.0218 72.2944 90.8089 72.9873 90.3443 73.4779C89.8797 73.9657 89.2049 74.2179 88.5247 74.1375C86.4008 73.8909 84.2853 73.7024 82.2417 73.5804C80.1926 73.4585 78.1296 73.3947 76.1081 73.3947C74.0866 73.3947 72.0236 73.4557 69.9745 73.5804C67.9253 73.7024 65.7766 73.8909 63.5892 74.1403C63.5146 74.1486 63.4288 74.1541 63.3459 74.1541C62.6849 74.1541 62.0683 73.8576 61.6562 73.3421C61.1889 72.7573 61.0534 71.984 61.2995 71.2772C63.227 65.6675 64.936 60.0301 66.3795 54.5229C67.8258 49.0074 69.0757 43.3866 70.1017 37.8185C71.1276 32.2476 71.9683 26.5298 72.6071 20.8231C73.2459 15.1108 73.7271 9.17681 74.0368 3.19016C74.0672 2.58595 74.3521 2.01777 74.8167 1.63252C75.2785 1.25004 75.8786 1.07266 76.4842 1.15027C78.7518 1.45791 81.2738 1.68239 83.9894 1.82097C86.7272 1.95955 89.5755 2.03162 92.457 2.03162C94.9016 2.03162 97.302 1.96786 99.5945 1.84591C101.823 1.72673 103.9 1.46897 105.772 1.08372C106.395 0.956224 107.053 1.11144 107.548 1.50223C108.051 1.89857 108.352 2.49169 108.375 3.13193C108.59 9.0493 109.154 14.9556 110.05 20.6845C110.949 26.4356 112.091 32.2199 113.444 37.8739C114.799 43.5363 116.367 49.207 118.106 54.7308C119.854 60.2879 121.723 65.8809 123.659 71.3548C123.908 72.0616 123.772 72.8626 123.302 73.4446C122.832 74.0294 122.094 74.3315 121.339 74.2345C119.453 73.9906 117.608 73.8188 115.855 73.7273C114.091 73.6359 112.277 73.5888 110.462 73.5888C105.606 73.5888 100.554 74.071 95.4519 75.0217C95.322 75.0466 95.1892 75.0577 95.0565 75.0577V75.0521ZM91.7961 50.7286C92.8055 50.7286 93.6987 51.1055 94.4592 51.8456C95.1616 52.5329 95.7534 53.4503 96.2235 54.5783C96.6798 55.6759 97.0282 56.9481 97.255 58.3616C97.479 59.764 97.5923 61.2551 97.5923 62.7906C97.5923 64.3261 97.526 65.5456 97.3988 66.5156C97.2688 67.4857 97.1056 68.3477 96.9121 69.0794C96.7185 69.8111 96.4945 70.4873 96.2511 71.0916C96.1239 71.4047 96.0022 71.7484 95.8889 72.1198C100.839 71.2523 105.736 70.8116 110.465 70.8116C112.326 70.8116 114.19 70.8587 116.001 70.9557C117.525 71.0361 119.11 71.1719 120.73 71.3604C118.9 66.147 117.13 60.8366 115.471 55.5595C113.712 49.9747 112.127 44.2403 110.758 38.5142C109.389 32.788 108.234 26.9316 107.324 21.1085C106.447 15.496 105.88 9.7228 105.642 3.93015C103.823 4.27106 101.843 4.49836 99.7466 4.61199C97.4071 4.73948 94.9542 4.80322 92.4598 4.80322C89.5313 4.80322 86.6359 4.73115 83.8512 4.5898C81.3125 4.4623 78.9343 4.25722 76.7663 3.98283C76.451 9.80596 75.9781 15.5709 75.3559 21.1335C74.7116 26.904 73.8571 32.6855 72.8201 38.3229C71.783 43.9604 70.5165 49.6477 69.0536 55.2297C67.6682 60.5124 66.0449 65.9087 64.2197 71.2883C66.1361 71.086 68.0083 70.928 69.8113 70.8199C71.913 70.6924 74.0341 70.6287 76.1081 70.6287C78.1821 70.6287 80.3032 70.6924 82.4049 70.8199C84.2328 70.9308 86.1132 71.0888 88.0075 71.2966C87.9329 71.0223 87.8444 70.7479 87.7393 70.4679C87.5181 69.8859 87.2858 69.1986 87.0424 68.4225C86.7963 67.6354 86.5834 66.7069 86.4091 65.6647C86.2322 64.6143 86.1409 63.3449 86.1409 61.8954C86.1409 60.4458 86.2294 59.0684 86.4064 57.7879C86.5834 56.4825 86.8848 55.3045 87.2941 54.2818C87.7199 53.2203 88.3007 52.3638 89.0141 51.7347C89.7691 51.0695 90.7038 50.7341 91.7961 50.7341V50.7286ZM63.2767 71.3853C63.2767 71.3853 63.2712 71.3853 63.2684 71.3853C63.2712 71.3853 63.274 71.3853 63.2767 71.3853ZM91.6081 40.8922C90.5157 40.8922 89.5257 40.3822 88.6712 39.3789C87.8388 38.4033 87.4185 37.0369 87.4185 35.3185C87.4185 34.5147 87.5264 33.6528 87.7421 32.7603C87.9439 31.915 88.1928 30.9588 88.4804 29.925C88.757 28.9244 89.0584 27.7659 89.3736 26.4827C89.5036 25.9533 89.6308 25.3768 89.7525 24.7698L90.6651 20.2272L92.3907 24.5259C93.0018 26.0503 93.5023 27.3751 93.8757 28.4671C94.4426 30.1273 94.874 31.4799 95.1588 32.4943C95.4768 33.6722 95.6649 34.548 95.7395 35.1799L95.7534 35.2963L95.7478 35.4128C95.6704 36.9122 95.2694 38.1927 94.556 39.2126C93.7789 40.324 92.7861 40.8895 91.6081 40.8895V40.8922ZM91.3896 29.7532C91.3066 30.0691 91.2237 30.374 91.1435 30.665C90.8669 31.6683 90.6263 32.594 90.43 33.4116C90.2668 34.0935 90.1811 34.7337 90.1811 35.3213C90.1811 36.3468 90.3858 37.1284 90.7729 37.5829C91.2347 38.1234 91.5057 38.1234 91.6081 38.1234C91.7436 38.1234 91.9454 38.1234 92.2911 37.6273C92.6866 37.0619 92.9161 36.3107 92.9797 35.3933C92.9271 35.0275 92.8027 34.3734 92.4957 33.2343C92.2496 32.3612 91.8791 31.1888 91.3924 29.7559L91.3896 29.7532Z" fill="#EEE081"/>
<path d="M143.851 75.9999C140.326 75.9999 137.212 75.5564 134.587 74.6806C131.911 73.7853 129.657 72.5409 127.887 70.9833C126.078 69.3924 124.726 67.5104 123.861 65.3902C123.017 63.3226 122.588 61.1108 122.588 58.8132C122.588 56.9784 122.978 55.2295 123.744 53.6164C124.491 52.0422 125.509 50.6619 126.77 49.5117C128.011 48.3781 129.452 47.4773 131.059 46.8288C131.93 46.4796 132.82 46.2218 133.722 46.0555C133.122 45.6536 132.544 45.2046 131.988 44.7085C130.185 43.1037 128.697 40.8809 127.569 38.1038C126.468 35.3987 125.841 31.901 125.708 27.7131V27.6743C125.708 27.4941 125.7 26.8955 125.683 25.8533C125.666 24.8362 125.605 23.5529 125.498 22.0424C125.39 20.5152 125.218 18.8273 124.989 17.0258C124.765 15.2492 124.444 13.4781 124.038 11.757C123.642 10.0857 123.139 8.51976 122.544 7.10347C122.022 5.86179 121.391 4.8945 120.675 4.22378C119.97 3.56413 119.784 2.53862 120.213 1.67388C120.633 0.823003 121.56 0.337974 122.511 0.495955C125.782 1.05305 128.739 1.45216 131.302 1.68221C133.857 1.91225 136.119 2.02866 138.033 2.02866C139.524 2.02866 140.832 1.98985 141.924 1.91501C143 1.84295 143.89 1.74597 144.576 1.63234L144.609 1.62679C145.392 1.51592 146.053 1.37735 146.581 1.21937C147.258 1.01427 148.047 1.17223 148.6 1.64063C149.161 2.11457 149.443 2.8352 149.355 3.56413C149.197 4.85847 149.031 6.2221 148.86 7.65779C148.691 9.0519 148.533 10.5014 148.392 11.9648C148.251 13.4171 148.143 14.875 148.069 16.2968C147.991 17.7325 147.953 19.1433 147.953 20.493C147.953 22.0036 148.013 23.4254 148.132 24.7225C148.246 25.9531 148.434 27.0257 148.691 27.9126C148.956 28.8245 149.252 29.304 149.454 29.5423C149.521 29.6199 149.554 29.6365 149.554 29.6365C149.554 29.6365 149.57 29.6421 149.615 29.6421C149.667 29.6421 149.827 29.5229 150.035 29.1986C150.516 28.442 150.923 27.3888 151.243 26.0667C151.592 24.6255 151.843 22.9598 151.993 21.1222C152.145 19.2292 152.222 17.3113 152.222 15.4238C152.222 13.2287 152.137 11.0973 151.971 9.09069C151.805 7.11731 151.603 5.51812 151.368 4.33742C151.213 3.5586 151.492 2.76037 152.101 2.24762C152.695 1.74596 153.552 1.6046 154.28 1.8873C154.559 1.99817 155.087 2.15339 156.011 2.28088C156.055 2.28643 156.105 2.29473 156.149 2.30582C156.835 2.4444 157.786 2.55803 158.97 2.64672C160.187 2.73818 161.732 2.78252 163.56 2.78252C165.032 2.78252 166.738 2.73541 168.629 2.64394C170.524 2.55248 172.686 2.37788 175.056 2.1312C175.125 2.12289 175.203 2.12014 175.28 2.12014C175.958 2.12014 176.605 2.44442 177.011 2.98765C177.465 3.59463 177.57 4.40668 177.285 5.1079C176.917 6.01698 176.583 7.07851 176.295 8.26198C175.993 9.49534 175.728 10.8119 175.498 12.1783C175.269 13.5585 175.075 14.9887 174.926 16.4299C174.774 17.885 174.647 19.3179 174.556 20.6843C174.307 23.9548 174.149 27.3583 174.088 30.8062C174.088 32.3278 174.105 33.9104 174.135 35.4846C174.166 37.1393 174.182 38.8188 174.182 40.4763C174.182 43.1675 174.085 45.9114 173.892 48.6331C173.695 51.4324 173.261 54.1597 172.6 56.74C171.923 59.3841 170.911 61.8924 169.592 64.1956C168.223 66.5903 166.351 68.6912 164.028 70.44C161.738 72.1668 158.898 73.5415 155.593 74.5282C152.336 75.4982 148.381 75.9915 143.846 75.9915L143.851 75.9999ZM136.1 48.6137C134.737 48.6137 133.387 48.877 132.093 49.4008C130.796 49.9247 129.632 50.6508 128.634 51.5599C127.641 52.4662 126.836 53.5582 126.242 54.8082C125.653 56.0471 125.354 57.3941 125.354 58.8132C125.354 60.7477 125.713 62.6075 126.421 64.3398C127.121 66.0609 128.23 67.5936 129.712 68.899C131.203 70.2128 133.138 71.2715 135.461 72.0503C137.801 72.8319 140.622 73.2283 143.849 73.2283C148.118 73.2283 151.805 72.7737 154.808 71.8785C157.797 70.986 160.341 69.761 162.368 68.2311C164.387 66.7095 166.013 64.8885 167.194 62.8237C168.389 60.7339 169.307 58.4584 169.921 56.0582C170.54 53.6386 170.947 51.0776 171.132 48.4446C171.32 45.7866 171.414 43.1093 171.414 40.4818C171.414 38.841 171.397 37.1781 171.367 35.5428C171.337 33.9519 171.32 32.3499 171.32 30.7868C171.384 27.2585 171.541 23.8023 171.796 20.4903C171.89 19.0989 172.017 17.6355 172.174 16.1444C172.332 14.6478 172.531 13.1622 172.769 11.7293C173.007 10.2963 173.289 8.91054 173.604 7.61066C173.834 6.66832 174.091 5.7925 174.37 4.98874C172.321 5.18829 170.438 5.33239 168.756 5.41554C166.821 5.50978 165.07 5.5569 163.552 5.5569C161.655 5.5569 160.043 5.50981 158.757 5.4128C157.468 5.31857 156.409 5.1883 155.604 5.02755C155.107 4.95826 154.653 4.8751 154.247 4.77532C154.429 5.90613 154.587 7.2753 154.719 8.86065C154.894 10.9421 154.982 13.1511 154.982 15.4238C154.982 17.3833 154.902 19.3761 154.744 21.3439C154.584 23.3284 154.307 25.1355 153.926 26.7181C153.533 28.3395 153.008 29.6754 152.361 30.6898C151.454 32.1116 150.364 32.4109 149.612 32.4109C148.705 32.4109 147.939 32.0423 147.333 31.3189C146.794 30.6759 146.357 29.789 146.036 28.6859C145.726 27.6299 145.505 26.3799 145.378 24.972C145.251 23.5917 145.187 22.0839 145.187 20.4903C145.187 19.0934 145.226 17.63 145.306 16.1472C145.383 14.6838 145.494 13.1843 145.638 11.6932C145.782 10.2076 145.942 8.73592 146.111 7.31963C146.246 6.20268 146.376 5.12733 146.501 4.09629C146.05 4.19607 145.552 4.28752 145.016 4.36513C144.244 4.49262 143.268 4.59794 142.115 4.67555C140.962 4.75592 139.587 4.79471 138.033 4.79471C136.039 4.79471 133.691 4.67555 131.056 4.43719C128.86 4.24041 126.391 3.92167 123.697 3.49484C124.22 4.221 124.687 5.06357 125.091 6.02254C125.747 7.58018 126.3 9.2958 126.728 11.1167C127.157 12.9321 127.494 14.8029 127.732 16.6738C127.967 18.528 128.144 20.2658 128.255 21.8456C128.365 23.406 128.429 24.7392 128.446 25.809C128.459 26.8345 128.468 27.4359 128.47 27.6438C128.595 31.4935 129.151 34.6587 130.127 37.0561C131.095 39.4369 132.339 41.3161 133.821 42.6354C135.304 43.9546 136.968 44.8665 138.774 45.346C140.622 45.8366 142.485 46.0832 144.316 46.0832C144.839 46.0832 145.491 46.0527 146.252 45.9918C147.01 45.9308 147.806 45.8005 148.616 45.6037C149.429 45.4069 150.237 45.1326 151.019 44.7861C151.312 44.6559 151.595 44.5034 151.86 44.3343L153.989 42.968V45.8781C153.989 47.4081 153.893 49.0322 153.702 50.7062C153.508 52.4108 153.113 54.0045 152.526 55.4374C151.926 56.9091 151.053 58.148 149.93 59.1208C148.752 60.1435 147.256 60.6396 145.356 60.6396C143.821 60.6396 142.571 60.3182 141.639 59.6835C140.635 58.9989 140.124 58.0843 140.124 56.9618C140.124 54.6807 141.545 53.4252 144.125 53.4252C144.349 53.4252 144.59 53.4335 144.847 53.4529C143.752 51.9174 142.524 50.7562 141.186 49.9995C139.551 49.0766 137.837 48.6082 136.092 48.6082L136.1 48.6137ZM144.136 56.1996C142.9 56.1996 142.9 56.4074 142.9 56.9645C142.9 57.0837 142.9 57.189 143.202 57.3941C143.661 57.7073 144.407 57.8708 145.364 57.8708C146.57 57.8708 147.474 57.5937 148.13 57.0283C148.92 56.3409 149.543 55.454 149.977 54.3897C150.466 53.1924 150.798 51.8481 150.964 50.3931C151.069 49.4812 151.141 48.5832 151.185 47.7129C150.555 47.9485 149.916 48.1425 149.274 48.2977C148.323 48.5278 147.383 48.6802 146.484 48.7523C145.677 48.8188 144.969 48.8521 144.382 48.8548C145.693 49.9496 146.882 51.3631 147.928 53.0843C148.37 53.8132 148.345 54.7389 147.864 55.4402C147.46 56.0305 146.791 56.3825 146.078 56.3825C145.948 56.3825 145.815 56.3714 145.688 56.3464C145.403 56.2938 145.121 56.255 144.855 56.2301C144.593 56.2051 144.352 56.194 144.142 56.194L144.136 56.1996ZM146.174 53.6275H146.18C146.18 53.6275 146.177 53.6275 146.174 53.6275ZM155.596 5.02477C155.596 5.02477 155.596 5.02477 155.599 5.02477C155.599 5.02477 155.599 5.02477 155.596 5.02477ZM175.349 4.89174C175.349 4.89174 175.344 4.89174 175.341 4.89174C175.341 4.89174 175.346 4.89174 175.349 4.89174ZM147.383 3.87455C147.383 3.87455 147.383 3.87455 147.38 3.87455C147.38 3.87455 147.38 3.87455 147.383 3.87455Z" fill="#EEE081"/>
<path d="M209.283 75.0521C208.689 75.0521 208.113 74.8027 207.704 74.3703C207.195 73.8271 206.999 73.0732 207.179 72.3554C207.392 71.5017 207.638 70.7285 207.912 70.0522C208.113 69.5533 208.299 68.9851 208.465 68.367C208.628 67.7518 208.769 67.0062 208.882 66.1525C208.996 65.3017 209.051 64.1709 209.051 62.7934C209.051 61.4159 208.949 60.0578 208.747 58.8023C208.553 57.6049 208.268 56.5434 207.895 55.6482C207.569 54.8666 207.184 54.2569 206.75 53.83C206.454 53.5418 206.225 53.5002 206.02 53.5002C205.486 53.5002 205.229 53.6665 205.063 53.8134C204.676 54.1543 204.347 54.6587 204.084 55.3156C203.758 56.1249 203.517 57.0839 203.371 58.162C203.21 59.3206 203.13 60.5761 203.13 61.8926C203.13 63.2091 203.208 64.3011 203.36 65.1991C203.515 66.1221 203.697 66.9258 203.905 67.591C204.129 68.3116 204.347 68.9491 204.549 69.4812C204.82 70.2019 205.016 70.9225 205.132 71.6237C205.243 72.2916 205.03 72.9846 204.565 73.4779C204.101 73.9657 203.423 74.2179 202.746 74.1375C200.622 73.8909 198.506 73.7024 196.463 73.5804C194.414 73.4585 192.351 73.3947 190.329 73.3947C188.308 73.3947 186.245 73.4557 184.196 73.5804C182.147 73.7024 179.998 73.8909 177.81 74.1403C177.736 74.1486 177.65 74.1541 177.567 74.1541C176.906 74.1541 176.292 73.8576 175.877 73.3421C175.407 72.7573 175.275 71.984 175.518 71.2745C177.445 65.6675 179.154 60.0301 180.598 54.5202C182.044 49.0047 183.294 43.3839 184.32 37.8157C185.346 32.242 186.189 26.5242 186.826 20.8203C187.464 15.1108 187.946 9.17681 188.255 3.18738C188.288 2.58318 188.573 2.015 189.038 1.62975C189.497 1.24727 190.1 1.06989 190.705 1.14749C192.973 1.45514 195.495 1.67962 198.211 1.8182C200.948 1.95678 203.797 2.02884 206.678 2.02884C209.123 2.02884 211.523 1.96512 213.816 1.84317C216.045 1.72399 218.121 1.46623 219.991 1.08098C220.137 1.05049 220.284 1.03662 220.428 1.03662C220.909 1.03662 221.384 1.20012 221.763 1.49946C222.267 1.8958 222.568 2.48892 222.593 3.12916C222.809 9.04929 223.373 14.9556 224.269 20.6817C225.168 26.4328 226.31 32.2171 227.662 37.8712C229.014 43.5308 230.585 49.2015 232.324 54.728C234.072 60.2851 235.941 65.8782 237.877 71.3521C238.126 72.0588 237.991 72.8598 237.52 73.4419C237.05 74.0267 236.312 74.3288 235.557 74.2318C233.671 73.9879 231.827 73.816 230.073 73.7246C228.309 73.6331 226.495 73.586 224.681 73.586C219.825 73.586 214.772 74.0682 209.67 75.0189C209.54 75.0438 209.408 75.0549 209.275 75.0549L209.283 75.0521ZM206.023 50.7286C207.032 50.7286 207.925 51.1055 208.686 51.8456C209.388 52.5329 209.98 53.4503 210.45 54.5783C210.906 55.6759 211.255 56.9481 211.482 58.3616C211.706 59.764 211.819 61.2524 211.819 62.7906C211.819 64.3288 211.753 65.5428 211.625 66.5156C211.495 67.4885 211.332 68.3504 211.139 69.0794C210.945 69.8083 210.724 70.4846 210.478 71.0916C210.351 71.4047 210.229 71.7484 210.116 72.1198C215.066 71.2523 219.963 70.8116 224.692 70.8116C226.553 70.8116 228.417 70.8587 230.228 70.9557C231.752 71.0361 233.336 71.1719 234.957 71.3604C233.126 66.147 231.356 60.8366 229.697 55.5595C227.938 49.972 226.351 44.2375 224.985 38.5142C223.616 32.788 222.46 26.9316 221.55 21.1085C220.671 15.4988 220.107 9.7228 219.869 3.93015C218.049 4.27106 216.069 4.49835 213.973 4.61199C211.634 4.73948 209.181 4.80321 206.686 4.80321C203.758 4.80321 200.863 4.73115 198.078 4.5898C195.539 4.4623 193.158 4.25722 190.993 3.98283C190.678 9.80596 190.205 15.5737 189.583 21.1335C188.938 26.9012 188.087 32.6855 187.047 38.3229C186.01 43.9576 184.743 49.6477 183.28 55.2297C181.895 60.5124 180.269 65.9114 178.444 71.2883C180.357 71.086 182.232 70.928 184.035 70.8199C186.137 70.6924 188.255 70.6287 190.332 70.6287C192.409 70.6287 194.527 70.6924 196.629 70.8199C198.457 70.9308 200.337 71.0888 202.231 71.2966C202.157 71.0223 202.068 70.7479 201.963 70.4679C201.742 69.8859 201.51 69.1985 201.266 68.4225C201.02 67.6354 200.807 66.7096 200.633 65.6647C200.456 64.6143 200.365 63.3449 200.365 61.8954C200.365 60.4458 200.453 59.0711 200.63 57.7879C200.807 56.4825 201.109 55.3045 201.518 54.2818C201.944 53.2203 202.525 52.3638 203.238 51.7347C203.993 51.0695 204.928 50.7341 206.02 50.7341L206.023 50.7286ZM177.503 71.3853C177.503 71.3853 177.498 71.3853 177.495 71.3853C177.495 71.3853 177.501 71.3853 177.503 71.3853ZM205.832 40.8922C204.737 40.8922 203.75 40.3822 202.895 39.3789C202.063 38.4033 201.642 37.0369 201.642 35.3185C201.642 34.5147 201.75 33.6528 201.966 32.7603C202.168 31.915 202.417 30.9588 202.704 29.925C202.981 28.9217 203.282 27.7631 203.598 26.4827C203.73 25.9477 203.858 25.3713 203.979 24.7698L204.892 20.2244L206.617 24.5259C207.231 26.0531 207.729 27.3779 208.102 28.4671C208.669 30.1273 209.103 31.4826 209.385 32.4943C209.704 33.675 209.892 34.548 209.966 35.1799L209.98 35.2963L209.975 35.4128C209.897 36.9122 209.496 38.1927 208.783 39.2126C208.006 40.324 207.013 40.8894 205.835 40.8894L205.832 40.8922ZM205.616 29.7532C205.533 30.0691 205.45 30.374 205.37 30.665C205.094 31.6711 204.853 32.594 204.657 33.4116C204.494 34.0935 204.411 34.7337 204.411 35.3185C204.411 36.344 204.615 37.1256 205.002 37.5774C205.464 38.1206 205.735 38.1206 205.838 38.1206C205.973 38.1206 206.175 38.1206 206.521 37.6245C206.916 37.0591 207.146 36.308 207.209 35.3906C207.159 35.0247 207.032 34.3706 206.725 33.2315C206.482 32.3612 206.109 31.1888 205.622 29.7532H205.616Z" fill="#EEE081"/>
</svg>
