<svg width="100%" height="100%" viewBox="0 0 30 30" fill="none" xmlns="http://www.w3.org/2000/svg">
<path d="M22.4823 8.37318C23.0421 8.2989 23.7965 7.76243 24.3524 7.54372C25.8969 6.94122 27.509 7.18882 28.9106 8.03892C30.3995 8.93854 30.2288 9.87529 29.2004 11.0885C27.6916 12.8754 25.5833 13.6264 23.3598 12.8217C22.9627 12.6773 22.5974 12.4627 22.2202 12.2729L22.113 13.8204C22.113 14.6705 22.2083 15.3927 22.4664 16.1932C22.9826 17.8068 24.0665 19.1521 24.1856 20.8977C24.3802 23.7121 23.1374 25.957 20.906 27.4426C20.1277 27.9584 19.2423 28.5279 18.4403 29.0025C16.0063 30.4468 13.0761 30.2529 10.6501 28.8704C10.0386 28.5238 9.78848 28.1813 9.2882 27.7727C8.93879 27.488 8.10895 27.4178 7.60866 27.1826C4.26151 25.6227 3.73343 20.9183 6.04428 18.1617C6.3103 17.8439 6.69147 17.5839 6.91382 17.2414C7.19573 16.8122 7.42602 16.1313 7.53322 15.6238C7.76351 14.5591 7.6166 13.4573 7.58484 12.3761C6.08001 13.2468 4.25754 13.3871 2.69315 12.5907C1.84346 12.1573 0.652297 11.0266 0.163922 10.1848C-0.368129 9.26454 0.505387 8.4846 1.20817 8.06781C2.33977 7.39103 3.61431 7.04439 4.91665 7.325C6.01251 7.56022 6.91779 8.50936 8.10895 8.36493L7.30293 7.98115C5.19855 6.88757 4.29327 4.40744 5.21841 2.12951C5.55193 1.3083 6.85426 -0.67251 7.8469 0.231233C8.02954 0.396301 8.01763 0.553115 8.04145 0.796589C8.09704 1.37845 8.06528 1.84889 8.22013 2.43488C8.58541 3.82145 9.50261 4.37442 10.7771 4.71694C11.1821 3.89573 11.6427 3.14467 12.5162 2.81866C13.497 2.45552 14.6722 2.64534 15.5894 3.12817C15.7363 3.20657 16.2247 3.57385 16.3121 3.58623C16.4828 3.60686 16.7488 3.44179 16.9315 3.39227C17.9916 3.11991 18.9008 3.75129 19.3813 4.70043C20.6876 4.39093 21.6087 3.66051 21.9185 2.26569C22.0376 1.73335 22.0098 1.21338 22.0852 0.689295C22.2162 -0.214449 23.0501 -0.00398771 23.5861 0.396301C24.2412 0.887376 24.8566 1.97682 25.0393 2.78978C25.5555 5.06358 24.6184 7.14755 22.5617 8.07606L21.8351 8.3608C22.0415 8.34017 22.2837 8.38556 22.4862 8.3608L22.4823 8.37318ZM6.9575 1.51463L6.74706 1.71684C6.03236 2.65772 5.79413 3.97001 6.13957 5.11723C6.485 6.26444 7.67219 6.99487 8.68865 7.27136C8.93085 6.97836 9.07776 6.62347 9.32393 6.33047C9.52643 6.08287 9.78451 5.89304 10.0069 5.67433C8.12086 5.28229 7.02897 3.42116 6.95353 1.51463H6.9575ZM19.9054 5.78162C20.4573 6.14477 20.8504 6.71838 21.1839 7.30437C22.2798 7.03613 23.5861 6.2892 23.9236 5.09247C24.003 4.81185 24.0665 4.37855 24.0824 4.08968C24.134 3.13229 23.7489 2.22855 23.1533 1.51876C23.0461 2.07999 22.9905 2.65772 22.8118 3.20245C22.3909 4.47759 21.2236 5.52164 19.9292 5.71147L19.9094 5.78162H19.9054ZM17.0625 7.71704C17.8765 7.42404 18.5276 6.61934 18.4681 5.69084C18.4284 5.03469 17.8844 4.43632 17.2213 4.54774C17.0546 4.57663 16.8243 4.77059 16.6496 4.82836C16.1096 4.99755 15.8316 4.60552 15.4028 4.35792C14.0727 3.58623 12.4209 3.47068 11.8333 5.22039C11.611 5.88066 11.7102 6.60696 11.6586 7.30024C11.6586 7.34976 11.6388 7.38278 11.6229 7.42817C12.1232 7.34564 12.5718 6.92884 12.9054 6.55331C13.1237 6.30571 13.362 5.81051 13.7431 5.82702C13.9456 5.83527 14.1402 6.05811 14.1759 6.25206C14.2236 6.50792 14.2911 7.3704 14.2831 7.63038C14.2831 7.75418 14.2117 7.88623 14.2196 8.01416C14.5968 7.89448 14.9263 7.62625 15.1844 7.32088C15.5497 6.8917 16.0381 5.81464 16.6337 6.65235C16.86 6.96598 16.9116 7.3704 17.0625 7.72116V7.71704ZM16.046 8.00591C15.9944 7.99353 15.9865 8.01828 15.9587 8.04305C15.8634 8.12145 15.7284 8.33604 15.6093 8.44746C14.9263 9.09535 12.8895 10.2715 13.0999 8.35667C13.1237 8.14209 13.35 7.91099 13.1515 7.75418C12.7545 8.39794 11.2735 9.04996 10.658 8.52174C10.3761 8.27827 10.5588 7.40754 10.5707 7.04439C10.5786 6.8917 10.5627 6.73901 10.5707 6.58633C9.62966 7.49832 9.09364 8.92616 8.86335 10.2261C8.54571 11.9964 8.89511 13.7007 8.63703 15.4958C8.58541 15.8672 8.52586 16.251 8.43056 16.6142C8.94673 16.5151 9.46687 16.3872 9.99098 16.3583C11.4482 16.2758 12.7386 16.8411 14.168 16.9072C15.5974 16.9732 17.0744 16.3418 18.5872 16.4326C19.7744 16.5069 20.906 16.936 21.8351 17.7077C21.5373 17.0475 21.3467 16.3872 21.2157 15.6733C21.0052 14.5178 21.1085 13.7585 21.1363 12.6237C21.172 11.039 20.9655 9.19852 20.1794 7.81608C20.1238 7.72116 19.4408 6.68124 19.3813 6.73489C19.1272 7.83258 17.7494 8.9633 16.6615 8.84775C16.189 8.79823 16.185 8.39794 16.046 8.01003V8.00591ZM22.4823 9.50389C22.3234 9.5204 22.1368 9.49151 21.974 9.50389L22.1567 10.8079C22.7801 11.2288 23.4193 11.6704 24.1578 11.8478C25.8572 12.2605 27.5765 11.4723 28.5889 10.0445C29.0456 9.40072 28.8232 9.31406 28.2237 8.97155C27.239 8.40619 26.0875 8.24938 25.0036 8.57951C24.1936 8.82712 23.3359 9.40485 22.4862 9.49976L22.4823 9.50389ZM7.86675 9.46675C6.72324 9.66483 5.78619 8.69919 4.71018 8.49698C3.63416 8.29477 2.2286 8.59189 1.41464 9.30168C1.14067 9.54103 1.15655 9.61531 1.34714 9.91243C2.25639 11.3196 4.03519 12.2069 5.65913 11.8891C6.3778 11.7488 7.00514 11.3568 7.62455 10.9771L7.87072 9.46262L7.86675 9.46675ZM21.6127 18.9994C20.366 17.7119 18.6706 17.4601 16.9831 17.7201C16.3002 17.8274 15.6331 18.0379 14.9383 18.075C12.4726 18.2153 10.666 16.8783 8.13277 18.0049C5.01988 19.3914 4.88091 24.6323 8.01763 26.1014C9.7051 26.8937 10.9717 26.0148 12.6195 25.8414C14.4975 25.6434 16.1493 26.5595 17.7931 25.1275C18.2219 24.752 18.5634 24.2692 18.9763 23.8771C19.4289 23.5759 19.8736 24.232 19.7347 24.6653C19.6672 24.8758 18.9247 25.664 18.7261 25.8414C18.1703 26.349 17.4397 26.8236 16.7131 26.9969C15.3671 27.3105 14.0886 26.8772 12.7584 27.0093C12.0358 27.0794 11.3449 27.327 10.6342 27.4467C10.5826 27.4921 10.8605 27.6778 10.8963 27.7026C12.9451 29.1345 16.0421 29.1345 18.1663 27.8883C18.5951 27.6365 18.9604 27.2981 19.3733 27.0258C20.0205 26.6007 20.6241 26.3119 21.2117 25.763C23.1017 23.9968 23.4789 20.9307 21.6048 18.9911L21.6127 18.9994Z" />
<path d="M18.3157 18.9577C18.8478 18.8835 19.3362 19.193 19.5466 19.7005C19.9476 20.6621 19.4831 21.995 18.7803 22.6883C17.4939 23.9551 15.3815 23.4063 16.0605 21.2852C16.3384 20.4186 17.4065 19.0857 18.3157 18.9577Z" />
<path d="M8.7708 19.0324C10.4464 18.76 12.114 22.2017 10.5814 23.1756C9.40211 23.9225 8.22287 22.3998 7.95684 21.3227C7.76625 20.5551 7.81787 19.1892 8.7708 19.0324Z" />
<path d="M17.542 10.5312C17.8437 10.4775 18.1098 10.5807 18.3401 10.7788C19.5193 11.8022 19.2811 15.4626 17.538 15.2604C15.6838 15.0458 16.0649 10.7953 17.542 10.5312ZM17.1092 12.1777C16.9186 12.3717 16.8908 12.8628 17.0973 13.0608C17.4785 13.424 17.7405 12.5986 17.5182 12.2561C17.4189 12.0952 17.2521 12.0333 17.1092 12.1777Z" />
<path d="M11.1214 10.6052C12.5389 10.3535 12.7573 12.8336 12.6024 13.8199C12.4476 14.8062 11.6575 15.7223 10.6926 14.9341C9.72778 14.1459 9.68013 10.857 11.1214 10.6052ZM10.9467 12.0248C10.4981 12.128 10.5497 13.1762 11.0778 13.0771C11.4033 13.0152 11.4986 11.901 10.9467 12.0248Z" />
</svg>
