<svg width="30" height="30" viewBox="0 0 30 30" fill="none" xmlns="http://www.w3.org/2000/svg">
<path d="M26.7311 11.1023C26.3237 11.5422 25.5058 11.5659 24.9821 11.3831C25.0306 11.9144 25.1178 12.4458 25.1728 12.9771C25.2084 13.3155 25.189 13.7114 25.2439 14.0431C25.2892 14.3003 25.6513 14.7267 25.7935 14.9771C27.4262 17.8232 26.8701 21.4679 24.7881 23.8808C22.3052 26.7539 18.0668 28.1381 14.42 27.9891C9.15996 27.7759 2.47743 24.2801 3.16282 17.813C3.318 16.3443 3.83527 15.6201 4.4463 14.395C4.65644 13.9686 4.59179 13.8908 4.63381 13.4508C4.69847 12.7605 4.79546 12.0735 4.88922 11.3865C4.35255 11.5422 3.79324 11.5625 3.2986 11.2579C2.58735 10.818 2.7878 9.81289 2.74577 9.08868C2.65525 7.60304 1.33296 5.56578 2.43863 4.14444C3.20484 3.16304 4.43014 3.8128 5.44529 3.67066C6.67704 3.50145 7.65016 2.60804 8.94658 3.20027C9.3507 3.38639 9.80331 3.82972 10.0943 4.17828C10.3852 4.52685 10.5728 4.92618 10.867 5.24429C11.4586 5.05816 12.0567 4.87542 12.6677 4.75697C14.2583 4.44902 16.1561 4.45917 17.737 4.83142C18.1767 4.93295 18.5937 5.09539 19.0302 5.21383C19.583 4.37118 20.249 3.33563 21.2609 3.08859C22.5315 2.77386 23.427 3.63682 24.6426 3.70789C25.661 3.7688 26.9315 3.11905 27.5684 4.43548C28.3411 6.02603 27.1869 7.60981 27.0932 9.15637C27.0544 9.81289 27.2193 10.5845 26.7311 11.109V11.1023ZM8.7914 5.55902C9.12763 5.91435 8.80757 6.77731 8.63622 7.16987C7.9185 8.81795 6.60915 9.8535 6.02075 11.576C5.72979 12.4322 5.77505 13.2749 5.66189 14.1514C5.5746 14.8248 4.97651 15.5016 4.69524 16.1582C2.99147 20.1548 5.42589 23.7014 8.82373 25.4003C12.907 27.4409 17.5107 27.4477 21.5131 25.1769C24.6038 23.4239 26.7117 20.0229 25.2245 16.3172C24.9788 15.7081 24.6458 15.3324 24.371 14.7944C24.0736 14.2157 24.1221 12.9162 23.9831 12.1818C23.6436 10.3916 22.5606 9.54216 21.7038 8.09374C21.387 7.55905 20.7436 6.40167 20.9312 5.78237C21.0184 5.49133 21.3191 5.32213 21.5745 5.51502C21.8849 5.74853 22.011 6.36106 22.1597 6.71301C22.5864 7.72149 23.469 9.02777 24.2967 9.70798C24.5876 9.94487 25.6351 10.7537 25.9649 10.3476C26.1039 10.175 26.0263 9.32896 26.0425 9.05484C26.1201 7.82978 26.8378 6.61487 26.8119 5.43042C26.799 4.72652 26.3173 4.70959 25.7677 4.74344C25.189 4.78066 24.843 4.87203 24.2352 4.77051C23.2977 4.61484 22.1338 3.88386 21.2351 4.3238C20.4947 4.68252 20.1843 5.67746 19.6832 6.21892C19.2662 6.66902 18.9784 6.38136 18.5388 6.24261C16.2498 5.50825 14.1516 5.50825 11.8433 6.12755C11.4748 6.22569 10.8185 6.53365 10.4725 6.43889C10.1492 6.35091 9.63197 5.33905 9.38303 5.03109C9.10823 4.69267 8.63622 4.24597 8.20623 4.18505C7.44002 4.07676 6.38931 4.67237 5.58754 4.78066C5.0153 4.8585 4.57239 4.78066 4.01955 4.74682C3.35679 4.7096 2.99794 4.8145 3.04643 5.59963C3.11432 6.76039 3.73828 7.86024 3.81264 8.99054C3.82881 9.25112 3.74152 10.2664 3.90963 10.3983C4.21999 10.6488 5.0056 10.1208 5.27717 9.92118C6.23089 9.22405 7.16845 7.911 7.6534 6.80777C7.79565 6.48627 8.03812 5.52179 8.41314 5.45749C8.54893 5.4338 8.70411 5.46426 8.8011 5.56917L8.7914 5.55902Z" />
<path d="M14.694 12.4661C16.8375 12.3206 19.1232 14.7876 19.6308 16.835C20.2095 19.1532 18.6415 21.0212 16.3817 20.8385C16.0842 20.8148 15.7545 20.7099 15.4473 20.6761C13.8276 20.4933 12.7446 21.38 11.196 20.1955C8.28632 17.9755 11.7068 12.6658 14.6908 12.4627L14.694 12.4661ZM14.6908 13.5389C12.4471 13.8062 9.3435 18.5576 12.334 19.61C13.2037 19.9146 13.7824 19.5559 14.6165 19.4984C15.8126 19.4171 16.7793 20.1312 17.9432 19.3935C18.9001 18.7877 18.8678 17.522 18.4507 16.5609C17.8947 15.2716 16.1618 13.3663 14.6908 13.5423V13.5389Z" />
<path d="M8.64176 19.6679C8.42515 19.7694 8.30553 19.871 8.04689 19.8371C7.6945 19.7931 7.58458 19.3024 7.77532 19.0148C7.92081 18.7948 8.14711 18.7576 8.33139 18.6222C8.60943 18.4226 8.73875 18.0706 9.18166 18.2127C9.57931 18.3413 9.4597 18.9268 9.52759 19.2246C9.65691 19.7796 10.7529 20.7373 11.2249 21.0351C13.5946 22.5241 17.0216 22.3549 19.2232 20.5986C19.5433 20.3414 20.3386 19.4953 20.3677 19.0791C20.3871 18.8016 20.2319 18.585 20.4776 18.3244C20.8623 17.9149 21.2341 18.453 21.5251 18.6391C21.635 18.7102 21.7643 18.7407 21.8839 18.832C22.5467 19.3464 21.926 20.1586 21.2762 19.7018L21.2341 19.7119C20.4033 21.1908 19.068 22.1383 17.5098 22.6257C15.6055 23.2179 13.669 23.1671 11.8068 22.4395C10.5169 21.9387 9.29158 20.937 8.64176 19.6645V19.6679Z" />
<path d="M10.2375 10.7199C11.5339 10.5371 12.0932 11.6235 11.9704 12.8384C11.8475 14.0533 10.5252 14.7707 9.58769 13.9991C8.65013 13.2275 8.9023 10.9094 10.2375 10.7233V10.7199Z" />
<path d="M19.0487 10.7199C21.3667 10.3916 21.3797 14.3782 19.3009 14.3206C17.484 14.2699 17.4161 10.95 19.0487 10.7199Z" />
<path d="M12.7999 23.9655C12.9324 23.9519 13.6696 24.287 13.8959 24.3445C14.5618 24.5137 15.3442 24.5171 16.0037 24.3377C16.2365 24.2734 16.9122 23.9486 17.0771 23.9655C17.4004 23.9993 17.4327 24.446 17.229 24.6795C16.3723 25.6609 13.246 25.7354 12.5574 24.5746C12.4119 24.331 12.5122 23.9959 12.7999 23.9655Z" />
<path d="M13.2496 15.6168C13.5438 15.5559 13.7475 15.6236 13.9318 15.8605C14.4749 16.5644 14.255 18.2328 13.4436 18.6321C12.3476 19.1702 12.3767 17.4578 12.506 16.781C12.5771 16.4087 12.8552 15.7014 13.2528 15.6168H13.2496Z" />
<path d="M16.23 15.6171C17.0156 15.4479 17.3518 16.5816 17.3939 17.2009C17.4359 17.8202 17.4003 18.9505 16.5404 18.6967C15.4897 18.3853 15.2407 15.8303 16.23 15.6171Z" />
</svg>
