<svg width="30" height="30" viewBox="0 0 30 30" fill="none" xmlns="http://www.w3.org/2000/svg">
<path d="M17.3479 4.46432C20.0107 5.08874 21.7106 6.99022 22.4436 9.6128C23.3827 12.9928 23.5333 17.3919 25.8236 20.1837C26.3704 20.8524 27.3927 21.4849 26.8419 22.4759C26.3743 23.3139 25.1737 23.4468 24.3218 23.3219C24.8567 24.3814 25.5343 25.9445 24.718 27.0282C24.0207 27.9548 22.7408 27.842 21.7977 27.3948C21.4688 27.2377 21.1835 27 20.8547 26.8469C20.5377 28.3012 19.7056 29.7394 18.1325 29.961C16.8685 30.1382 15.7867 29.2681 15.0339 28.3375C14.2057 29.4655 12.906 30.3598 11.4716 29.8562C10.1759 29.401 9.44682 28.0797 9.17737 26.7784C8.23431 27.568 6.55424 28.2005 5.50816 27.2699C4.35509 26.2467 5.15946 24.4177 5.71024 23.2857C4.87813 23.4025 3.64581 23.3179 3.17032 22.4961C2.60766 21.5252 3.57449 20.9008 4.10942 20.2522C6.30461 17.5732 6.61764 13.3593 7.41409 10.0801C7.88562 8.14238 8.85245 6.20868 10.6474 5.24586C10.3938 4.84703 10.1799 4.35555 10.1442 3.87615C10.0293 2.19222 11.539 0.915172 13.0328 1.95856C13.1755 1.64031 13.2904 1.31803 13.4806 1.02394C14.4593 -0.462591 16.2503 -0.309506 16.9319 1.34623C17.3162 2.28085 17.443 3.46524 17.3479 4.46432ZM15.0735 1.08034C14.4514 1.15688 14.0591 1.97871 14.0155 2.54673C13.9759 3.01807 14.2176 3.97284 13.4647 3.88824C13.124 3.84795 13.0526 3.42496 12.8624 3.17921C12.062 2.14388 10.9248 2.75622 11.1903 3.99701C11.436 5.14917 12.7198 5.45937 13.5796 6.04351C14.2533 6.49874 14.6653 7.02245 15.0339 7.75161C15.3588 7.51393 15.6005 7.10302 15.7748 6.74448C16.286 5.68497 16.4445 4.50058 16.3494 3.32827C16.2979 2.64745 16.0205 0.963514 15.0735 1.08034ZM17.2172 5.51577C17.0349 6.57125 16.3692 8.20281 15.4261 8.76278C14.3285 9.4154 14.1106 7.87247 13.5479 7.29639C12.9853 6.72031 12.0858 6.42622 11.4161 6.00725C8.42451 7.39307 8.29375 11.1718 7.65976 14.0281C7.07332 16.6628 6.40763 19.1202 4.62453 21.1828C4.27584 21.5897 3.60223 22.0247 4.58095 22.2463C5.11191 22.3672 5.61911 22.3108 6.1263 22.1335C6.40367 22.0368 6.63745 21.8274 6.94652 21.9764C7.17238 22.0852 7.24767 22.3229 7.18031 22.5565C7.04558 23.0238 6.58198 23.7006 6.37197 24.2122C6.0946 24.885 5.48438 26.3474 6.50273 26.6656C7.16842 26.8751 7.83014 26.4964 8.37696 26.146C8.63056 25.9848 9.05454 25.594 9.27247 25.4974C9.58154 25.3644 9.83118 25.449 9.95401 25.7713C10.1006 26.15 10.1402 26.7099 10.2789 27.137C11.0556 29.4816 13.0209 29.4856 14.3642 27.5922C14.5742 27.2941 14.8001 26.6374 15.2835 27C15.5371 27.1893 15.8382 27.7856 16.0997 28.0676C17.6055 29.6991 19.1587 28.97 19.7888 27.0322C19.9076 26.6656 19.9592 26.0533 20.1058 25.7592C20.4465 25.0582 21.1598 25.8358 21.5283 26.0775C22.1504 26.4924 23.3431 27.1652 23.9256 26.3514C24.298 25.8317 23.9176 24.8488 23.6997 24.3089C23.4501 23.7006 23.1014 23.1487 22.824 22.5525C22.7408 22.3349 22.824 22.0489 23.0459 21.9603C23.3629 21.8314 23.8344 22.1537 24.1712 22.2342C24.619 22.343 25.1182 22.3712 25.5581 22.2141C25.7403 22.1496 25.9702 22.0489 25.9107 21.8233C25.8592 21.6219 25.2015 20.9733 25.0271 20.7558C22.8834 18.0647 22.4912 14.5115 21.7819 11.2363C21.3856 9.41943 20.9498 7.81607 19.452 6.61556C18.814 6.10394 18.0215 5.67288 17.2211 5.51174L17.2172 5.51577Z" />
<path d="M15.0788 23.5918C14.7063 24.6272 13.5651 25.2637 12.5032 25.0743C11.6117 24.9132 10.8746 24.2525 10.6567 23.3542C10.2644 21.7186 11.4333 20.0588 12.3051 18.7979C11.4611 18.0768 9.91574 17.3073 10.9896 16.0303C11.4135 15.5227 12.0119 15.0554 12.4755 14.5558C12.8519 14.1489 13.1808 13.6897 13.5572 13.2828C15.4552 11.2323 16.2992 13.1619 17.5593 14.5397C18.0308 15.0554 18.645 15.5267 19.0769 16.0504C20.1111 17.3073 18.6212 18.0889 17.7772 18.7979C18.8074 20.2361 20.0952 22.4115 18.9659 24.1438C18.1853 25.3402 16.4617 25.4047 15.5424 24.325C15.3522 24.0994 15.2452 23.8295 15.0748 23.5959L15.0788 23.5918ZM11.7424 16.6386C12.5587 16.6144 13.3868 16.8118 14.0684 17.2751C14.2982 17.4322 14.8846 18.0083 15.1263 17.9922C15.3086 17.9801 15.9862 17.3436 16.216 17.1985C16.8658 16.7876 17.4206 16.7151 18.1655 16.6708C18.2012 16.6708 18.4152 16.6587 18.4152 16.6225C18.1774 16.2397 17.7931 15.986 17.48 15.6717C16.8658 15.0594 16.3507 14.3302 15.7643 13.7541C15.2135 13.2103 15.0075 13.174 14.4289 13.6857C14.0327 14.0361 13.7395 14.4752 13.3789 14.858C12.9589 15.3092 12.4794 15.716 12.0673 16.1672C12.0198 16.2196 11.6909 16.5862 11.7464 16.6386H11.7424ZM18.0467 17.5208C17.0362 17.4443 16.43 18.2863 15.6692 18.7133C14.7816 19.2088 14.2863 18.4313 13.5968 17.9962C13.1293 17.6981 12.6062 17.4725 12.0436 17.4725C12.8004 17.9076 13.4423 18.5199 14.1476 19.0275C14.5676 19.3296 14.9124 19.6398 15.4433 19.4384C15.9069 19.2612 17.3176 18.1412 17.7772 17.7746C17.8683 17.7021 17.9833 17.6215 18.0467 17.5249V17.5208ZM14.6073 20.3408C14.0208 20.1756 13.5414 19.7124 13.054 19.3578C13.0064 19.3498 12.9866 19.3981 12.9629 19.4263C12.6538 19.7647 12.107 20.7678 11.9128 21.2069C11.5007 22.1456 11.2075 23.608 12.4002 24.0954C13.8901 24.7037 14.6033 22.7942 14.5795 21.6138L14.6073 20.3448V20.3408ZM15.586 20.3771C15.6058 21.4205 15.5741 23.2172 16.4855 23.9141C17.0085 24.313 17.8525 24.1115 18.1972 23.5596C18.9778 22.3188 17.8049 20.4536 17.0957 19.4263C16.5806 19.7204 16.1724 20.2038 15.586 20.3811V20.3771Z" />
<path d="M18.3753 8.95225C20.9747 8.72262 21.1966 14.2699 18.6329 14.4391C16.0692 14.6083 15.8195 9.17785 18.3753 8.95225ZM18.0147 13.5206C18.304 13.6576 18.51 13.6979 18.8151 13.573C19.9563 13.0976 19.9246 10.3502 18.8231 9.87076C17.8483 9.44776 17.3609 10.7852 17.3134 11.5386C17.3134 11.5909 17.2896 11.7722 17.349 11.7924C17.4481 10.7933 18.621 10.0359 19.0014 11.3533C19.2035 12.0583 19.148 13.1822 18.3515 13.4763L18.0147 13.5246V13.5206Z" />
<path d="M11.4374 8.94769C14.1952 8.84697 13.9614 14.2251 11.6276 14.4346C8.7865 14.6884 9.00047 9.04034 11.4374 8.94769ZM12.6103 11.248C12.5904 10.5631 12.1466 9.71311 11.3621 9.79368C9.96731 9.93871 9.84447 13.9109 11.6157 13.649C11.7504 13.6289 11.8495 13.5563 11.9763 13.5201C12.004 13.4073 11.8495 13.4637 11.7663 13.4435C10.839 13.2059 10.7955 11.3004 11.5087 10.7928C11.794 10.5913 12.1466 10.6276 12.3884 10.8774L12.6063 11.248H12.6103Z" />
</svg>
