<svg width="30" height="30" viewBox="0 0 30 30" fill="none" xmlns="http://www.w3.org/2000/svg">
<path d="M21.4327 21.4157C19.8046 23.1681 17.7028 23.9353 15.4355 24.1291C15.1497 24.1534 14.785 24.1291 14.5068 24.1614C14.3714 24.1776 14.3564 24.327 14.3601 24.4602C14.3714 24.7792 14.5632 25.5504 14.6384 25.9057C14.8752 27.0363 15.2061 28.1467 15.4844 29.2652C15.5257 29.9597 14.7775 30.2867 14.3977 29.6851C14.127 29.2571 13.924 28.1144 13.8112 27.5774C13.5668 26.4145 13.3901 25.2355 13.1344 24.0726L12.9764 23.8788C10.461 23.4548 8.24262 22.1143 7.00559 19.6714C5.30231 16.3039 5.94903 12.8113 7.55831 9.58509C9.0247 6.64559 11.4311 4.50558 13.6683 2.28077C14.1984 1.75182 15.5032 0.221504 16.116 0.0398043C16.8793 -0.190348 17.1162 0.629318 17.4809 1.17038C18.9811 3.39519 20.8875 5.41811 22.1471 7.78424C24.482 12.1693 24.9896 17.5799 21.4327 21.4117V21.4157ZM15.0219 23.0309C15.7852 22.9582 16.556 22.8492 17.3004 22.6513C19.4286 22.086 21.2221 20.3619 22.1471 18.2542C24.1361 13.7198 22.1019 9.4478 19.5376 5.82593C18.5901 4.48942 17.4922 3.29828 16.5597 1.94563C16.5184 1.94563 16.3416 2.66839 16.3191 2.75318C15.74 5.01837 15.27 7.31586 14.8527 9.62143C15.24 9.22573 15.6573 8.85829 16.0446 8.46663C16.3604 8.14764 16.65 7.77617 16.9696 7.4693C17.2064 7.24318 17.996 6.46389 18.2968 6.82729C18.6578 7.26337 17.7027 8.03458 17.4508 8.30108C16.5823 9.22976 15.5784 10.2432 14.8188 11.2729C14.4015 11.8382 14.3977 11.9068 14.2924 12.6296C14.2398 12.9809 14.1984 13.3402 14.1571 13.6955C14.048 14.6686 13.9954 15.6579 13.8864 16.6229C13.9503 16.6431 13.9503 16.5947 13.9804 16.5624C14.33 16.1828 14.6572 15.6821 15.0106 15.2864C15.5445 14.6929 16.1687 14.1034 16.7703 13.5825C17.323 13.106 19.1955 11.5232 19.8008 11.4303C20.2144 11.3698 20.44 11.612 20.2257 12.0279C20.049 12.3752 19.0751 13.0091 18.7255 13.2958C17.1049 14.6323 15.5257 16.0738 14.3789 17.9069C14.2436 18.125 13.8751 18.6822 13.8563 18.9083C13.8187 19.3403 13.8751 19.7966 13.8901 20.2246C13.9164 20.9433 13.9353 21.6661 14.0405 22.3767C14.112 22.3 14.2511 22.2435 14.3188 22.1789C14.9128 21.6176 15.4468 20.911 16.0747 20.3336C16.8605 19.6109 17.8231 18.7266 18.6804 18.1169C18.906 17.9554 19.0789 17.8827 19.3346 17.7939C19.8948 17.9796 19.6015 18.5247 19.3195 18.8397C18.4961 19.7603 17.3117 20.6203 16.4056 21.5046C15.9205 21.981 15.4355 22.4736 15.0144 23.0147L15.0219 23.0309ZM15.5182 2.05465C15.4956 2.02639 15.3716 2.15963 15.3528 2.17982C14.048 3.4396 12.717 4.75995 11.4612 6.07223C8.60358 9.06018 5.79864 14.0509 7.58839 18.4076C7.99447 19.3969 8.85174 20.5799 9.64134 21.2502C10.6039 22.0699 11.8485 22.4212 13.0178 22.7442C13.0592 21.9608 12.8373 21.1977 12.8035 20.4144C12.7734 19.736 12.8411 19.0496 12.7847 18.3713C12.0665 17.3295 11.3033 16.316 10.5174 15.3308C10.1301 14.8463 8.73143 13.3725 8.66751 12.8395C8.59983 12.2783 9.14878 12.246 9.4759 12.5044C10.555 13.7036 11.5176 15.032 12.5892 16.2353C12.623 16.2757 12.7997 16.4856 12.8373 16.4493C13.0103 14.7332 13.1983 13.0212 13.4314 11.3133C13.0855 10.5501 12.608 9.85966 12.2357 9.11267C12.0289 8.69678 11.5702 7.7156 11.6191 7.26741C11.6379 7.11397 11.7432 6.86767 11.8823 6.80307C12.3222 6.60925 12.4087 7.27145 12.5516 7.55813C12.8787 8.22436 13.2998 9.10459 13.6871 9.7143C13.7059 9.7466 13.6833 9.7789 13.7623 9.75871L15.5182 2.04254V2.05465Z" />
</svg>
