<svg width="30" height="30" viewBox="0 0 30 30" fill="none" xmlns="http://www.w3.org/2000/svg">
<path d="M13.3518 25.6416C13.4405 25.6622 13.4109 25.6293 13.4368 25.5882C13.7547 25.0413 14.0172 24.2724 14.3314 23.6762C14.8084 22.7715 15.374 21.9327 15.9137 21.0733C15.4701 20.0001 15.1226 18.9187 14.9414 17.7468C13.5181 8.60615 20.2318 3.90628 27.171 1.96547C27.5813 1.85034 28.3983 1.57896 28.7865 1.72287C29.1118 1.84212 29.2375 2.33554 29.3152 2.67272C29.4852 3.43752 29.6109 4.5025 29.7145 5.30431C30.3281 9.97951 30.1581 14.9837 27.1229 18.6186C24.9417 21.2337 21.278 22.5002 18.1171 22.3192C17.6624 22.2946 17.204 22.1424 16.7529 22.1712C15.9359 23.4048 15.1928 24.6753 14.6161 26.0693C14.3647 26.6778 14.0468 27.4755 13.9248 28.1252C13.8176 28.6968 13.8841 29.6219 13.3739 29.9221C13.1041 30.0783 12.8305 29.9879 12.6272 29.7535C12.2907 29.3752 12.4534 28.5405 12.4201 28.0306C12.3832 27.4385 12.2242 26.6449 12.1022 26.0569C11.8064 24.5849 11.3517 23.1046 10.7972 21.7312C10.701 21.649 10.0726 21.7066 9.89511 21.6942C3.31825 21.2707 -0.245615 16.3817 0.0131711 9.16125C0.112989 6.3734 0.808015 3.67601 1.57328 1.04853C1.69898 0.612669 1.91711 0 2.42359 0C2.93007 0 4.33121 0.736025 4.85987 0.995073C7.2444 2.16284 9.66591 3.56088 11.4478 5.71961C14.4978 9.40796 14.7936 14.005 12.9488 18.487C12.6198 19.2888 12.1909 19.9837 11.8323 20.7567C12.4164 22.3562 12.9562 23.9763 13.3555 25.6457L13.3518 25.6416ZM9.31469 14.9631C9.51433 13.8981 9.68809 12.792 9.95427 11.7476C10.0837 11.2377 10.409 9.88494 11.0449 9.98774C11.544 10.07 11.3406 10.9746 11.2704 11.3447C11.0264 12.6646 9.95796 16.32 10.3535 17.4508L11.1669 19.2477C11.2038 19.3299 11.2667 19.2271 11.2963 19.186C11.5772 18.7871 11.9063 17.8414 12.0726 17.348C13.1263 14.1818 13.2741 11.2336 11.5957 8.29776C9.73615 5.04527 6.56787 3.3594 3.48831 1.87913L6.85252 9.39974C6.90428 9.37507 6.91167 9.19003 6.92277 9.12424C7.01889 8.38822 7.17046 6.08968 7.61779 5.62093C7.86919 5.35777 8.24627 5.39889 8.37936 5.76896C8.44961 5.96221 8.43113 6.41452 8.42004 6.63656C8.33131 8.25253 7.74718 10.0165 7.93943 11.6613C7.98009 12.0108 8.35719 12.7098 8.50137 13.0716C8.73428 13.6432 8.97087 14.3833 9.23336 14.9179C9.25554 14.9672 9.23336 14.9878 9.31469 14.9713V14.9631ZM5.50314 9.10368L2.47904 2.49591C2.12044 3.69657 1.77292 4.90546 1.56219 6.15136C0.86347 10.3126 1.01135 14.9014 4.04654 17.8908C5.42181 19.2436 7.70282 20.1194 9.52172 20.2798C9.75093 20.3003 9.99863 20.2345 10.2131 20.3209C10.2611 20.251 10.006 19.6177 9.95797 19.5026C9.73245 18.9393 9.1927 17.57 8.81191 17.2041C7.63259 16.0733 5.36266 15.2674 3.95043 14.3833C3.73231 14.2476 3.23692 13.9475 3.1408 13.7049C3.00401 13.3636 3.15558 12.9483 3.51418 12.9195C3.92824 12.8866 5.38484 13.672 5.83217 13.9064C6.60853 14.3134 7.35161 14.7863 8.12427 15.2016C7.61409 14.079 7.17786 12.8989 6.66029 11.7805C5.97265 10.292 4.06133 9.90961 2.85612 9.02967C2.60473 8.84464 2.05389 8.32654 2.32746 7.95236C2.60104 7.57818 3.41806 7.98937 3.736 8.13328C4.346 8.40878 4.89684 8.81585 5.50314 9.09546V9.10368ZM27.4002 3.3265C24.5498 4.24345 21.5738 5.31665 19.2928 7.50005C16.753 9.93428 15.6291 13.3348 16.0468 17.0519C16.1577 18.047 16.4276 19.001 16.716 19.9467C17.0043 19.4574 17.5256 18.9269 17.6698 18.3677C18.0247 16.9656 17.8214 14.3463 17.8768 12.7797C17.8879 12.4137 17.7585 11.4639 18.2022 11.3529C18.8306 11.1925 18.9304 12.1753 18.96 12.6522C19.0155 13.5486 18.9785 14.4573 18.96 15.3496C18.9526 15.658 18.9526 15.9787 18.9785 16.2871L21.0266 13.2032C21.4037 11.4886 21.23 9.64234 21.4259 7.91535C21.4444 7.74677 21.4776 7.45482 21.559 7.31502C21.7216 7.02719 22.0655 7.02308 22.2429 7.29857C22.657 7.94825 22.4536 9.96307 22.3982 10.7813C22.3945 10.8471 22.3797 10.9581 22.4167 11.0075L27.4039 3.31828L27.4002 3.3265ZM28.2948 4.1571C28.2578 4.11187 28.1358 4.26812 28.11 4.30513C27.7588 4.76155 27.3928 5.39066 27.0711 5.89231C25.9657 7.60285 24.9158 9.36273 23.8141 11.0774C23.8548 11.1267 23.9509 11.0568 23.999 11.0322C24.7975 10.6744 25.6145 10.2098 26.4205 9.90139C26.731 9.78214 27.3447 9.54365 27.5665 9.93428C27.9029 10.5182 26.8271 11.0239 26.4796 11.2131C25.2855 11.8669 23.9731 12.3274 22.8455 13.1128C22.1838 13.5733 21.9619 13.8899 21.5035 14.5725C21.0081 15.3126 20.5645 16.1021 20.0765 16.8505C20.0987 16.908 20.1467 16.8505 20.1763 16.8381C21.3741 16.2337 23.0045 15.547 24.2799 15.2139C24.5757 15.1358 25.1487 14.9672 25.3594 15.2962C25.7144 15.8513 25.0748 16.1843 24.7051 16.3529C22.9195 17.1671 20.9712 17.6523 19.2632 18.7378C18.7086 19.0914 18.0765 19.959 17.7252 20.5594C17.6698 20.6539 17.5922 20.7403 17.607 20.8636C18.4794 21.0158 19.4332 20.9459 20.3094 20.8184C26.3502 19.9302 29.2154 14.6629 28.8161 8.17029C28.7311 6.8216 28.5129 5.48524 28.2948 4.16121V4.1571Z" />
</svg>
