<svg width="201" height="201" viewBox="0 0 201 201" fill="none" xmlns="http://www.w3.org/2000/svg">
<rect width="201" height="201" rx="100.5" transform="matrix(1 0 0 -1 0 201)" fill="#1A5D61"/>
<path d="M190.163 104.295C186.442 100.481 183.681 96.9565 186.453 104.094C187.725 111.812 176.014 116.165 175.813 104.058C182.645 102.015 183.795 91.6071 177.911 88.0444C177.339 83.9741 177.12 79.5496 174.869 76.0972C167.604 64.8708 157.356 58.3164 162.433 42.4578C161.209 40.0459 156.847 46.5101 156.262 46.707C155.186 46.3366 153.169 45.1605 152.559 44.4866C152.917 42.2789 151.868 40.2411 149.889 39.5509C151.47 34.1202 152.693 31.1881 145.989 26.6841C143.227 25.284 140.513 25.7953 138.099 26.7817C136.522 22.7511 126.339 19.1306 126.96 21.3582C128.336 22.4458 130.333 23.658 129.878 25.3689C123.77 28.4257 122.835 24.8305 119.861 20.0791C119.029 18.4658 112.632 14.9085 112.93 17.2626C120.339 23.0203 109.088 25.2984 108.503 20.1116C108.131 11.0171 104.558 16.0196 100.59 8C98.371 13.2681 97.4177 11.3983 93.8845 15.0784C92.4618 17.1126 93.3844 19.6979 92.4221 21.5479C91.2305 23.4756 85.3719 23.6635 86.0074 20.8126C85.9911 18.8831 92.8193 13.0802 82.893 18.6717C79.7263 20.6753 80.109 25.3129 76.4278 26.2523C64.7214 26.6263 77.5146 20.603 73.3965 20.5922C69.5346 21.8171 65.2738 22.6481 63.5009 26.4944C55.7538 23.4376 45.9467 31.4771 51.9624 39.1228C50.5397 40.2085 49.4167 40.438 48.904 42.0621C48.5591 46.5263 48.5808 44.1145 45.5459 46.6618C43.9354 46.5209 37.8909 37.8672 39.1926 43.9248C45.7481 62.4933 24.2599 69.1308 23.7273 85.6253C24.4512 89.085 20.7718 88.9802 20.0965 91.9991C18.3633 97.2184 21.0372 102.447 25.6555 104.185C24.8448 112.687 18.3092 114.674 14.8409 106.815C14.0574 104.29 16.0668 101.661 15.9693 100.087C9.63406 103.525 8.89203 107.892 11.1903 115.285C14.8662 127.772 26.2512 122.049 25.7295 126.506C29.2537 134.139 26.3957 128.928 25.5128 135.68C25.65 138.563 27.8707 140.175 30.2322 140.536C36.5603 150.978 47.1581 156.609 29.8784 164.295C33.1733 167.798 48.1565 162.14 51.975 158.398C55.2771 160.445 57.8282 162.541 61.5817 161.451C59.1335 158.183 60.6483 156.629 64.335 157.775C68.1607 162.087 67.0883 167.724 60.3107 166.759C58.2344 167.413 66.8463 174.741 72.6129 174.941C73.8586 177.857 73.9363 179.915 76.7852 181.61C84.5739 187.196 93.9296 182.8 99.7593 192.621C100.391 193.607 101.552 192.755 101.834 192.186C107.315 181.539 125.478 188.636 128.263 175.796C128.931 173.091 132.737 177.294 141.34 167.596C141.714 165.7 138.04 167.438 136.57 166.255C134.055 165.178 134.451 159.892 136.726 158.084C140.824 156.001 141.945 158.55 139.668 161.444C143.147 162.383 146.159 160.741 148.591 158.765C149.88 156.675 156.569 167.4 171.661 164.781C155.919 155.981 162.354 154.089 170.205 141.658C171.531 139.036 173.791 141.437 175.383 137.398C177.062 131.349 171.942 133.839 175.315 126.948C175.842 121.288 182.569 128.881 189.255 117.577C190.87 113.184 192.651 108.405 190.163 104.297V104.295ZM179.854 94.5266C180.236 97.8779 174.605 107.466 173.629 93.3595C177.066 91.4083 177.92 85.759 179.854 94.5266ZM159.079 47.5976C156.423 66.1372 181.17 75.1089 172.314 88.16C170.7 89.6794 170.045 86.0029 167.051 85.199C165.466 84.2938 166.461 81.8766 165.771 80.7149C165.055 76.3067 158.945 71.3042 159.319 66.952C158.183 62.6396 149.732 66.1535 155.807 50.5822C156.704 48.9544 159.165 44.9076 159.079 47.5994V47.5976ZM167.096 113.762C165.636 118.192 162.778 115.064 166.008 118.721C165.993 121.476 153.094 126.153 152.875 123.353C157.446 123.252 161.924 118.085 164.316 114.544C162.245 114.755 151.474 126.209 151.106 119.427C156.114 117.471 162.493 113.388 163.305 108.194C159.149 111.74 155.567 116.417 150.153 117.458C147.54 115.073 158.447 114.34 161.213 103.31C157.39 108.412 156.643 110.215 148.652 115.178C147.219 114.719 154.079 110.51 153.317 106.152C151.427 106.427 148.768 114.6 145.884 113.469C146.101 111.238 147.719 109.316 147.663 106.868C147.464 101.063 145.058 112.557 143.247 113.364C140.484 116.296 142.617 105.699 142.539 104.832C139.811 106.416 140.688 120.905 137.904 118.237C137.374 115.812 138.145 113.923 138.031 111.697C138.071 110.378 137.583 111.473 137.466 111.657C135.539 114.786 136.401 117.57 135.962 120.788C132.912 129.799 133.463 122.522 133.45 118.21C132.149 112.13 132.277 125.478 130.39 126.719C127.819 131.123 129.688 119.982 128.755 119.106C127.224 124.578 128.847 129.31 123.311 132.552C121.99 132.939 119.401 134.303 119.245 132.327C119.309 130.65 121.712 130.861 122.652 129.667C126.362 126.733 126.565 119.832 124.263 116.37C123.47 114.611 125.6 116.266 125.953 116.365C128.016 113.328 127.854 114.84 129.572 116.322C131.262 115.933 127.796 112.766 132.856 113.547C132.402 109.946 133.515 111.4 135.44 110.483C136.148 107.901 136.171 107.941 138.074 107.066C138.582 105.204 139.074 103.771 140.755 103.766C141.394 102.373 141.97 101.058 143.658 100.862C146.101 101.892 145.718 98.2789 148.109 101.468C149.392 102.915 150.324 99.4587 151.651 102.129C152.482 105.265 153.993 99.1859 156.533 105.29C157.383 101.531 155.025 101.444 160.214 100.727C162.408 99.9139 163.191 98.3711 163.827 101.155C164.569 103.18 165.764 104.331 164.97 106.257C168.618 109.402 164.728 108.992 167.095 113.764L167.096 113.762ZM156.768 100.324C155.069 102.456 152.711 101.33 151.153 100.019C149.212 99.9772 148.549 100.183 147.016 99.1407C139.19 100.414 142.866 100.138 137.897 103.746C136.704 108.257 136.875 105.119 134.954 107.697C134.012 110.481 134.729 109.198 132.68 110.147C129.323 115.276 128.375 111.697 126.135 114.226C122.242 115.424 119.547 111.137 115.579 111.59C110.327 112.26 117.944 112.233 119.244 113.932C124.331 117.333 124.597 125.496 119.96 128.867C116.877 130.587 114.864 131.008 111.933 129.622C114.36 135.107 86.7512 134.388 89.528 130.001C75.5503 133.383 73.6059 113.234 87.7298 112.148C84.5973 110.367 81.2158 112.817 78.7207 114.255C77.3142 113.782 76.5271 114.654 75.4998 114.483C73.9525 111.968 70.3814 114.121 69.5744 111.319C69.2548 110.199 68.3124 109.97 67.137 109.735C66.2686 107.811 66.4473 107.149 64.5191 106.472C62.7534 101.836 62.6939 104.317 60.354 100.785C58.7183 99.9519 54.6218 98.6565 53.5674 99.4822C51.1842 101.202 50.8502 98.3765 48.7397 101.428C42.8161 101.672 46.3764 100.039 42.112 99.9031C37.7356 98.8318 46.8386 94.7741 48.8462 94.5609C53.4934 93.5149 58.2417 94.6747 62.5115 95.3938C64.084 99.0648 65.207 102.734 68.8666 104.83C72.6671 107.661 77.4821 108.114 81.4974 106.219C83.4346 108.383 84.0124 109.021 86.7332 109.379C90.5192 109.572 94.186 107.897 97.5982 107.581C103.092 111.167 94.4008 110.813 92.3697 111.216C96.9357 112.712 100.695 114.784 108.842 111.173C106.667 110.41 99.2881 111.964 103.033 107.802C106.481 106.779 116.008 112.887 119.263 106.503C124.499 107.325 125.891 108.176 131.042 105.832C134.991 103.616 137.569 99.9284 138.459 95.6918C151.353 90.7706 167.212 99.5183 156.771 100.326L156.768 100.324ZM100.565 137.931C106.55 137.924 114.187 138.814 116.207 132.271C117.68 131.98 117.153 134.717 117.081 135.441C116.205 140.285 109.971 139.801 106.6 140.502C106.6 140.484 106.597 140.465 106.597 140.449C101.258 141.425 78.9987 141.313 85.0433 132.141C87.1845 139.121 94.7998 137.784 100.565 137.931ZM87.7586 133.042C95.0706 135.631 105.907 136.699 113.282 132.809C115.21 136.092 106.042 137.705 104.221 137.517C103.847 137.58 103.336 137.251 102.829 137.535C99.0245 137.452 87.9897 138.166 87.7586 133.042ZM70.8869 126.782C68.5019 122.405 68.5308 106.718 67.7021 125.223C63.2355 121.958 66.9691 114.056 63.277 111.063C63.221 112.716 64.4758 122.546 61.6918 117.066C60.549 112.844 61.4048 108.053 58.7418 104.665C60.9119 118.656 57.7488 115.001 54.1451 105.121C51.6193 105.496 60.6952 123.669 48.9401 106.64C45.6325 104.432 50.9676 113.731 52.3253 114.094C56.0878 117.78 42.2113 109.494 40.3715 102.918C39.7613 108.902 47.7413 112.978 51.5507 116.533C51.2276 120.858 38.9272 109.019 37.9667 108.107C37.9883 112.311 45.9503 118.273 50.1046 119.191C50.2292 126.497 39.1637 114.811 37.259 114.652C39.5464 118.566 43.6249 122.789 48.1981 123.33C49.0249 125.875 40.6351 122.753 39.5807 122.2C36.7227 120.598 33.547 119.892 36.9177 116.723C34.3468 115.57 33.3267 113.924 35.1719 111.55C34.9841 108.476 33.7997 108.342 36.3346 106.241C35.7623 103.93 37.2716 100.671 38.3982 99.605C42.7457 101.609 45.7842 100.156 44.468 104.427C44.5854 106.505 45.7589 102.767 46.3186 102.687C48.8227 101.433 48.6332 105.05 50.0739 101.623C52.6557 99.9013 51.3864 104.113 54.0675 100.44C55.575 99.6845 55.8459 100.649 56.2106 100.94C61.2008 100.803 58.8429 103.451 62.1107 104.201C63.6562 106.519 62.2226 106.685 65.0481 108.06C66.321 111.16 65.4471 110.409 68.1228 111.046C68.9876 111.527 68.2961 112.661 68.399 113.283C70.8905 113.543 71.73 113.194 71.1866 116.056C72.8151 116.94 73.3315 112.582 74.8318 115.653C75.0954 116.472 75.4276 116.296 75.7814 116.192C80.3997 113.391 71.7138 120.258 77.641 128.699C78.8543 130.276 80.4521 130.677 81.826 131.534C83.1963 135.546 75.6117 132.524 73.9995 127.868C72.8422 124.894 73.6907 121.752 72.5641 119.062C71.517 120.546 73.4957 131.149 70.8905 126.78L70.8869 126.782ZM64.7015 84.6263C64.7015 84.2938 64.7484 83.965 64.8459 83.6471C65.2124 82.4529 65.3388 80.2018 66.0574 80.3409C73.3712 83.1737 79.0438 74.1948 86.5328 80.9371C88.6939 82.5035 90.4867 84.5468 89.6273 87.0544C89.221 89.8149 93.2309 91.3415 94.4171 88.8538C95.1086 86.8809 93.583 85.7915 93.3808 87.7915C91.1673 89.4481 90.8441 85.6018 92.1531 84.5341C94.5579 81.2334 98.8296 86.8863 96.8616 91.5908C93.8448 96.326 87.7424 93.8238 87.5582 88.8086C85.8973 80.5613 75.628 78.5 70.1936 84.9298C66.7091 90.8501 68.6464 104.703 83.5719 100.134C84.1767 104.557 65.0626 109.131 64.2357 90.2015C64.1906 88.216 64.6979 86.3389 64.7015 84.6317V84.6263ZM68.7366 73.1018C68.8179 74.5561 68.928 75.4703 69.8018 76.444C74.9383 80.032 81.3259 68.1372 88.4989 77.9038C89.7952 83.1864 82.902 76.5687 80.5496 77.2335C76.8611 76.4188 66.4022 83.4321 65.745 77.2064C65.476 75.5462 67.3266 71.0513 68.7384 73.1036L68.7366 73.1018ZM116.209 79.873C122.158 75.5227 128.477 82.3192 134.619 80.6806C136.783 78.9282 136.816 88.2504 137.161 90.2015C137.146 90.2015 137.134 90.2015 137.119 90.2033C137.839 100.507 125.445 109.467 117.855 100.882C117.028 98.353 121.683 101.437 122.522 101.151C131.026 102.817 136.198 89.3127 130.044 83.7988C126.846 80.7113 118.966 79.7791 115.849 84.3227C113.224 87.1772 114.551 91.9413 110.962 93.5474C99.2791 97.0414 104.728 77.9201 109.754 85.32C110.397 86.8882 109.828 88.7345 108.196 88.001C107.225 85.7229 106.694 86.5648 106.748 88.1329C107.158 91.0271 111.146 90.4743 111.605 88.1185C111.103 83.5712 112.466 82.7781 116.209 79.8712V79.873ZM119.35 73.9509C120.874 73.9509 121.645 74.2942 122.838 74.8217C136.384 82.3752 130.524 68.6141 134.489 73.3312C139.417 84.7292 126.453 77.3311 121.284 77.2137C119.527 77.3853 117.924 77.5894 116.637 78.4476C109.94 83.6669 112.09 74.3953 119.35 73.9509ZM100.601 105.412C95.0995 105.563 78.2151 111.274 85.473 99.6809C85.6987 99.3196 86.0399 99.0341 86.4479 98.9113C88.656 98.2464 83.4762 105.796 97.9377 102.008C103.85 100.295 113.426 107.265 114.492 98.8498C120.742 101.453 115.27 110.118 114.627 105.253C114.542 105.243 114.551 105.243 114.466 105.234C113.011 108.772 112.108 106.734 112.863 104.481C110.693 109.359 107.992 105.209 100.602 105.412H100.601ZM69.8867 90.9802C70.8995 79.5099 86.4262 81.0527 87.2062 91.981C87.338 100.709 71.0277 105.366 69.8867 90.9802ZM107.135 99.2527C109.935 98.6656 108.368 95.7641 109.899 95.9755C117.328 103.63 105.649 101.708 101.155 100.891C97.4249 100.958 94.0668 102.228 90.7629 101.69C87.0888 101.303 91.1673 93.0921 92.3914 97.1534C91.6078 100.864 104.029 98.9835 107.135 99.2545V99.2527ZM122.535 83.1358C122.537 83.1069 122.54 83.0798 122.542 83.0509C134.776 82.7185 133.573 99.6863 123.206 100.311C111.401 99.4279 111.238 84.8882 122.535 83.1358ZM107.86 82.7745C105.387 82.5812 103.161 84.9424 102.964 86.9749C99.9291 96.7415 115.68 98.4289 95.3559 96.9294C97.0404 93.1535 99.2051 94.2881 98.5966 88.0534C98.2933 80.4999 88.0818 84.1601 92.4925 80.0627C93.7509 78.7348 90.9759 80.7023 90.985 79.6526C91.328 72.2364 94.0127 72.4821 100.016 68.0197C101.243 67.4236 107.478 71.633 109.361 74.5417C110.72 76.5434 111.047 83.2785 107.86 82.7745ZM145.365 92.411C143.411 92.1382 140.483 94.0478 139.114 93.2168C139.704 90.1365 137.18 67.7686 131.808 71.2843C128.996 83.04 122.555 66.1878 112.93 75.7774C111.576 76.977 111.527 75.286 111.13 74.7007C108.992 70.4822 104.428 68.8291 100.732 66.7407C96.0763 68.8797 91.3063 71.4198 89.3167 76.267C85.7618 74.0467 84.2832 71.5607 78.7748 73.3059C72.9451 75.5172 71.5964 78.238 69.4083 71.2247C64.1851 68.7243 61.5745 88.7363 62.3292 92.841C62.47 94.523 57.274 91.9323 51.5724 92.1129C60.6176 85.8656 61.2622 81.9561 63.6489 70.97C66.1224 65.812 75.572 68.0794 79.4591 70.6141C81.0424 71.2843 81.2501 67.6566 82.4597 67.046C84.8393 64.8292 84.8375 65.682 86.4605 67.3712C87.3145 62.197 92.8608 68.3991 100.68 60.6234C107.315 68.5473 117.297 61.3533 120.413 69.6927C120.616 70.9971 121.488 70.867 122.248 70.4208C139.811 62.8618 137.702 72.9934 139.809 80.4439C143.406 91.5727 156.045 92.3424 145.368 92.411H145.365ZM140.304 70.923C136.661 63.4165 128.489 63.7543 122.343 67.3983C119.484 59.0318 109.68 65.4561 101.657 59.7093C99.9652 58.5855 99.2773 60.338 97.8763 60.721C94.8847 62.2801 91.467 62.3506 88.5151 62.636C82.077 62.2945 81.5714 63.5231 78.6286 67.3965C72.584 63.3045 60.3667 61.776 59.5506 79.5171C58.1279 86.3949 46.9686 96.0857 40.1332 91.6577C38.9705 90.1798 38.9344 88.7056 40.7868 88.5286C41.9567 88.2467 42.3575 87.6722 43.0454 87.1844C47.4651 89.9251 54.1867 84.124 56.8388 79.051C59.4423 71.1163 59.4134 62.8817 70.4175 59.8466C77.493 58.2802 75.841 64.1752 81.5245 58.5602C91.7775 57.2288 90.8152 62.6794 100.593 52.1738C112.607 65.8536 115.131 53.1404 122.345 60.7878C123.9 63.1148 128.208 54.5405 138.78 64.4986C143.606 69.55 142.108 77.5497 146.737 82.2632C148.486 84.7401 154.511 89.5638 157.555 87.441C162.957 88.1799 163.713 92.0605 158.118 92.7814C158.118 92.7814 158.118 92.785 158.118 92.7868C145.002 91.0344 141.84 82.8702 140.302 70.9266L140.304 70.923ZM76.7365 50.8261C80.6453 52.6201 83.0916 52.6544 85.8991 48.8894C87.2694 49.1369 89.1308 50.192 90.5787 50.0203C92.8554 49.7999 94.0542 48.1722 95.2909 46.9111C98.6273 50.1233 103.684 47.6826 106.615 47.2959C108.339 50.4955 112.323 50.5677 114.963 48.8009C117.411 50.8134 119.229 53.6029 123.786 51.0158C124.496 50.6617 124.38 50.8189 124.66 50.9598C128.863 58.8294 134.216 52.5153 134.463 55.1999C135.361 58.6686 139.201 57.8304 141.181 58.6668C141.875 65.5989 146.504 60.2711 146.276 66.9593C147.813 68.9321 149.206 69.6511 149.844 71.9889C155.392 76.1821 150.754 73.8443 147.704 79.8803C144.61 78.1911 146.354 70.3629 140.551 63.243C136.558 58.665 128.764 55.3354 123.6 59.3172C121.116 58.7572 121.605 54.9253 113.264 56.5007C104.889 57.8105 103.235 47.3574 97.3076 52.7754C89.6832 60.9613 85.222 52.0763 78.8705 58.6686C78.2838 59.5431 78.3181 59.4166 77.7999 59.2703C71.1487 55.1114 58.7562 57.4727 54.9955 78.0989C53.8454 81.0618 53.5241 79.6851 52.7279 78.1802C51.4244 76.6265 48.9311 75.5751 48.5591 73.9563C50.9893 73.1235 51.8234 72.0431 52.2458 69.5969C55.7899 67.6259 54.8962 66.4281 55.5389 63.4562C59.2383 63.0027 59.5596 61.4003 60.3829 58.3977C62.5855 58.5097 64.725 58.17 66.0285 56.7645C67.9386 50.8658 71.5928 59.917 76.7383 50.8261H76.7365ZM66.9348 49.2146C66.859 43.9609 73.5391 42.3024 75.5774 47.2417C76.982 52.8549 67.8249 57.1836 66.9348 49.2146ZM77.5092 46.6961C80.611 37.6793 90.9182 48.1577 81.1056 50.5244C78.8669 50.5244 76.8647 48.5082 77.5092 46.6961ZM87.0311 44.8624C87.1213 40.1453 94.4153 39.1932 94.4767 44.6312C94.13 49.3699 86.8162 49.5127 87.0311 44.8624ZM105.419 44.2301C105.161 47.5723 97.2011 48.2462 96.116 44.9003C94.91 38.7506 104.582 36.3875 105.419 44.2301ZM106.9 44.3674C106.889 39.3179 114.629 40.4073 114.295 44.9148C114.14 49.9571 106.853 49.0502 106.9 44.3674ZM119.839 43.2635C124.27 43.0468 125.853 50.0384 120.607 50.4774C115.425 50.7845 114.387 43.3322 119.839 43.2635ZM134.366 48.8063C134.265 55.8864 126.09 54.4249 125.608 48.7196C125.461 43.278 133.803 42.3711 134.366 48.8063ZM147.314 64.4733C147.665 61.9224 152.808 57.5793 152.866 64.1102C152.124 68.7207 147.242 68.1065 147.314 64.4733ZM155.486 65.3441C158.087 66.0993 155.979 66.1318 154.094 72.0991C153.054 73.8407 150.952 70.9031 151.086 69.9221C153.559 68.2456 153.771 68.0396 155.486 65.3441ZM142.227 57.3317C142.507 52.7375 148.436 53.144 148.566 57.4456C148.36 62.3253 142.369 62.627 142.227 57.3317ZM139.385 56.1881C135.411 56.6705 133.126 49.9661 137.388 48.7448C142.368 47.7566 144.926 55.7961 139.385 56.1881ZM58.8573 53.144C58.4926 49.0682 64.5841 46.8172 66.1007 50.8893C67.3645 56.0635 59.3105 58.7048 58.8573 53.144ZM59.0361 57.2324C59.1335 62.2747 53.3381 62.6017 52.7766 57.9189C52.7477 53.0157 58.8375 52.6363 59.0361 57.2324ZM54.0188 64.5293C54.0115 68.3395 49.2235 68.1029 48.5411 64.7949C48.1836 58.3073 52.7766 60.5674 54.0188 64.5293ZM50.1732 70.0919C47.4669 76.8632 46.2735 67.7921 44.4355 66.1318C46.4648 64.0126 46.5118 67.8716 50.1732 70.0919ZM46.2229 74.7874C48.3244 77.1378 51.4226 78.4115 52.3614 81.1322C53.4194 82.7438 44.9862 88.8465 44.4987 85.7391C43.9661 78.3338 53.3706 86.2631 47.9453 80.8956C43.7278 80.789 44.506 79.5171 43.0508 76.0466C40.7868 80.359 47.7431 82.7058 40.7687 82.0482C39.4652 83.1376 44.6377 83.5874 40.8084 86.7888C32.5197 86.2631 41.2851 74.5417 42.9569 70.8001C44.5728 67.2682 45.2913 74.2291 46.2247 74.7874H46.2229ZM160.819 82.2451C153.563 82.1313 160.023 81.0979 158.485 76.2796C157.291 77.1631 157.71 79.2425 156.509 80.2542C155.11 81.0997 150.689 80.7601 152.066 83.1575C154.386 82.1548 155.85 81.1828 156.771 84.236C158.642 90.4815 145.283 82.6498 150.116 79.0221C161.036 72.623 153.493 62.2873 162.336 77.9399C163.419 79.7646 163.906 81.5875 163.895 83.3652C163.58 89.3976 155.97 86.3715 160.819 82.2451ZM154.984 48.1902C153.615 52.1395 151.792 56.1665 152.745 60.2639C148.905 60.5078 152.234 57.2938 148.464 53.854C152.584 49.5904 151.341 43.5255 154.984 48.1884V48.1902ZM56.104 28.292C62.2624 25.1178 65.2828 32.8014 58.2092 33.1049C55.4198 29.8313 55.974 36.2629 60.6483 34.458C67.2309 31.8836 61.5239 27.2948 67.9043 23.7448C71.9395 21.9183 66.9366 26.9208 72.2301 27.6597C80.8764 30.6623 83.0663 16.9464 84.1911 20.5615C83.5358 25.7212 92.998 25.6778 94.0253 21.2281C94.4712 12.7135 95.5039 16.6953 100.252 11.391C101.299 11.0351 101.413 12.7641 105.91 15.0784C108.326 18.0087 105.203 22.5957 110.426 24.1982C113.006 24.5324 115.378 24.8161 116.768 22.7114C118.305 13.8101 118.866 29.582 127.559 27.8855C129.229 27.5911 130.638 27.3978 131.548 26.144C131.427 20.9174 134.611 23.9272 136.406 26.9172C137.547 29.1574 136.361 31.3922 138.237 33.0326C145.634 38.4236 145.968 28.8087 143.245 33.1898C138.04 33.2368 137.363 26.8811 143.144 27.6344C148.463 27.4664 152.234 38.8518 145.717 38.1147C136.561 35.6595 122.992 34.5357 112.675 34.066C111.054 34.0371 109.823 33.9992 110.424 32.861C110.884 22.0519 113.002 33.7209 137.206 33.8962C124.358 31.6415 128.135 32.1564 113.398 27.022C111.789 26.2686 110.48 27.302 109.189 26.6679C106.754 23.9778 102.917 23.1124 101.433 20.1315C100.348 18.1641 100.792 20.6337 92.0664 26.7094C83.4906 26.6137 76.2508 32.9062 67.8502 33.1717C66.5503 33.3343 65.0861 33.4138 64.2339 33.6758C73.3044 35.3397 82.3406 29.4302 90.7611 28.5883C89.1001 36.2303 97.6001 32.7851 74.7577 34.9946C67.5107 35.5836 60.8036 37.1337 53.9953 38.2646C50.2021 35.6793 52.717 29.9957 56.1004 28.292H56.104ZM102.085 33.8763C96.8995 33.5367 92.117 35.7769 93.6606 29.4537C95.0688 25.8007 98.9234 24.1314 100.705 21.0222C102.588 24.3391 105.459 25.405 107.274 28.4944C109.07 34.8212 106.958 33.8257 102.087 33.8763H102.085ZM61.2315 38.4073C87.1286 33.6216 113.582 33.7246 139.203 38.2285C149.8 40.5644 154.455 39.9412 147.32 52.4249C144.794 54.685 146.854 50.8731 146.827 49.9372C147.276 47.1586 145.513 46.6998 146.533 44.7974C144.37 47.4567 144.081 43.8272 144.455 42.5282C142.927 46.1252 141.871 43.5147 141.6 41.8724C141.062 47.0358 122.127 32.9875 73.326 40.6421C71.2191 40.6223 64.0822 43.9428 64.539 40.55C63.2897 43.7893 61.5456 44.1434 60.3793 40.3097C58.8447 47.1406 59.5145 41.9465 55.1508 46.7756C52.8091 49.547 57.2216 54.4827 54.2751 52.9091C48.4382 42.1037 48.7036 40.6421 61.2315 38.4073ZM52.5997 53.2867C53.2262 54.5532 49.9096 56.1827 50.8069 59.0462C50.7401 60.73 48.2522 60.4102 48.5086 59.5954C49.6568 55.3517 47.5282 51.7655 46.2193 48.4197C49.7923 43.0178 49.0899 50.3184 52.5997 53.2849V53.2867ZM42.2889 47.7458C41.4096 42.2265 54.147 61.01 43.0724 65.4218C41.4205 66.7912 42.4568 68.466 41.6805 69.8426C38.9597 72.7856 38.2537 77.5425 34.5959 78.2904C39.328 80.8215 31.1801 80.7727 31.2415 81.9326C34.9697 81.1051 35.9663 81.7049 34.7657 84.9912C31.0483 86.0589 30.42 89.7155 29.2934 88.366C19.5134 76.0665 44.181 67.3965 42.2907 47.7458H42.2889ZM21.7882 92.7832C23.897 86.4925 24.4278 91.5745 27.7425 93.4769C27.0601 95.9502 27.0348 98.0387 26.4878 100.268C23.6641 102.402 20.2644 96.606 21.7882 92.785V92.7832ZM25.8071 120.972C18.9952 124.34 7.5181 110.73 12.4325 104.73C12.3512 113.661 24.1154 118.011 27.1359 107.829C28.4665 102.933 27.7642 100.136 30.3658 101.692C27.1323 98.783 29.3837 98.1055 32.7147 98.7089C31.7795 97.5942 29.6184 97.9537 29.436 96.7541C29.8711 94.1147 34.2367 84.3806 37.5966 88.1257C40.4798 89.4265 34.7873 92.6061 43.6032 94.5302C35.6485 103.159 39.2558 94.1725 35.3903 102.875C34.8198 106.199 35.0022 105.982 33.8232 107.982C33.7673 112.947 34.3179 112.517 29.7538 115.2C27.8256 116.894 26.8236 118.938 25.8053 120.972H25.8071ZM30.2106 138.494C27.2966 138.13 26.9247 133.494 28.7626 132.318C33.0884 134.583 32.2236 134.462 30.2106 138.494ZM50.8647 157.254C47.9471 160.98 32.3572 166.347 35.7947 163.153C53.0799 152.919 23.4095 138.735 35.4409 135.075C38.5246 134.621 36.9304 135.887 37.8818 137.633C38.3115 139.783 40.8048 140.764 40.0863 142.783C43.3505 140.798 41.6696 144.706 41.7545 146.306C45.4159 138.91 42.7276 148.292 43.8217 150.917C44.7551 150.023 44.2857 144.019 45.7679 143.876C52.1249 145.645 56.8118 139.831 56.234 142.104C51.2817 147.963 49.8139 148.852 50.8647 157.256V157.254ZM101.325 189.219C100.543 189.911 100.16 189.441 99.7846 188.87C94.2456 180.829 80.0531 185.38 75.9511 176.69C74.0879 165.048 79.1088 159.26 68.8919 148.507C68.5705 147.979 68.8919 147.743 69.1952 147.493C75.0105 144.039 71.6452 147.031 72.8693 150.286C73.3062 153.341 75.7399 151.905 76.3519 155.023C83.4599 170.071 67.8213 180.043 98.0586 180.91C105.38 180.938 112.338 181.339 118.901 178.19C127.588 175.44 117.991 158.949 127.839 151.836C129.08 149.799 128.361 147.562 128.666 145.75C138.289 149.733 126.144 147.779 125.66 164.123C128.625 190.702 113.408 176.11 101.323 189.221L101.325 189.219ZM60.3919 135.024C61.291 129.048 64.7557 135.904 66.6965 138.101C66.3083 138.955 65.7775 139.584 64.9651 139.855C61.0347 141.329 63.3799 137.495 60.9191 136.092C60.54 135.875 60.3269 135.456 60.3919 135.024ZM55.6256 129.16C56.3532 122.791 59.1913 126.405 60.818 129.562C61.069 130.048 60.9624 130.645 60.5634 131.019C57.9474 133.472 55.7141 134.778 55.6256 129.16ZM66.144 143.893C67.3519 140.406 70.0799 138.487 71.842 142.61C71.9503 142.861 71.9972 143.139 71.9702 143.41C71.795 145.099 70.2045 145.155 68.9804 145.956C64.7502 148.635 63.7807 149.114 66.144 143.893ZM91.6475 147.882C92.5467 148.026 93.0486 148.996 92.7416 149.855C91.727 152.7 88.4953 157.296 89.0026 152.68C88.8654 150.283 90.01 147.618 91.6457 147.882H91.6475ZM88.9954 157.475C95.2295 151.338 91.2106 154.124 94.8125 157.984C94.9027 158.08 95.0327 158.131 95.1627 158.123C98.8964 157.945 99.8893 147.864 100.453 160.481C101.056 163.634 101.343 156.694 101.527 155.704C101.736 152.227 103.533 156.575 104.491 157.323C104.663 157.457 104.818 157.607 104.97 157.76C105.634 158.434 106.577 158.376 106.979 157.603C108.391 155.704 107.898 152.098 109.736 154.814C115.322 162.024 113.185 151.621 114.488 152.225C120.258 154.897 113.972 156.557 115.378 161.525C114.531 158.535 112.188 162.3 111.144 166.459C109.267 173.946 110.632 177.393 106.454 167.27C104.356 165.2 101.781 172.741 100.866 173.982C99.577 173.754 98.9957 169.677 96.9068 167.653C94.381 164.898 94.1102 170.327 92.9998 171.836C91.6602 174.909 91.4508 171.903 91.3623 170.425C91.3424 170.096 91.2937 169.771 91.216 169.451C90.5011 166.501 88.952 157.522 85.9099 161.681C85.5181 158.756 82.9815 151.305 87.1159 152.472C87.2513 154.145 86.8902 158.033 88.9918 157.471L88.9954 157.475ZM97.248 148.492C102.583 148.36 95.9156 157.193 95.3415 155.647C94.5019 153.143 94.0524 148.583 97.248 148.492ZM103.966 148.501C104.159 148.516 104.354 148.527 104.547 148.525C107.665 148.5 107.107 153.713 106.27 155.441C104.836 157.253 99.8749 148.189 103.966 148.501ZM110.345 147.968C111.466 148.38 112.582 150.041 112.323 153.482C112.314 153.482 112.305 153.482 112.294 153.482C112.26 157.161 109.826 152.36 108.747 150.355C108.073 149.105 109.115 147.519 110.345 147.968ZM118.78 151.032C119.007 154.152 115.364 151.123 114.206 149.246C113.921 148.783 113.979 148.185 114.327 147.768C116.295 145.421 118.789 146.008 118.752 149.625C118.747 150.095 118.745 150.565 118.78 151.032ZM121.822 150.546C126.467 155.301 120.654 155.647 120.755 152.472C121.056 150.897 120.905 149.497 120.755 148.248C123.661 149.786 127.762 154.187 121.824 150.546H121.822ZM126.779 147.981C126.689 151.625 124.221 148.554 123.093 147.755C120.228 144.782 127.196 139.864 126.779 147.981ZM122.381 155.905C122.304 158.568 120.125 156.508 119.473 155.782C119.13 153.238 122.387 154.769 122.381 155.905ZM121.499 158.691C121.06 161.491 119.171 159.245 118.31 158.656C117.844 155.014 120.944 157.39 121.499 158.691ZM116.626 163.251C116.642 159.281 122.477 166.199 118.982 165.308C121.955 176.322 117.142 166.597 116.626 163.251ZM116.154 175.897C113.71 175.745 111.159 175.236 111.923 172.439C112.157 171.081 113.75 160.897 115.319 164.579C119.29 173.118 121.168 175.967 116.156 175.897H116.154ZM117.335 161.122C116.981 157.896 120.666 160.537 120.755 161.811C120.477 164.598 118.344 161.838 117.335 161.122ZM105.717 177.431C100.393 177.749 103.029 171.941 105.298 170.038C106.625 172.083 110.074 177.619 105.717 177.431ZM98.8187 175.561C98.7916 177.745 94.1589 178.535 93.4548 176.459C95.0616 168.678 96.8815 168.38 98.8187 175.561ZM80.7951 164.887C82.0896 163.063 84.8844 160.282 84.9494 163.56C84.4728 165.397 83.3444 166.327 83.0212 167.798C80.7283 174.253 80.2174 169.957 81.2519 167.119C81.3331 166.896 81.4595 166.692 81.6202 166.519C85.2762 162.586 80.3618 167.404 80.7951 164.886V164.887ZM80.6091 161.887C80.8168 160.817 82.0065 160.27 82.7648 159.787C83.0808 159.587 83.4798 159.545 83.8102 159.719C85.7023 160.721 80.3383 164.962 80.6091 161.885V161.887ZM84.7743 173.906C81.1797 172.761 82.9472 172.096 85.0198 171.93C81.1995 172.143 84.6605 167.793 85.1967 166.015C87.8146 159.392 88.8618 170.336 89.3276 172.269C91.3388 178.311 76.3971 175.294 84.7743 173.908V173.906ZM83.4364 152.481C81.9885 153.184 82.6384 149.134 82.8334 148.151C83.1927 146.346 84.0846 146.046 84.7472 146.29C90.0389 147.856 86.401 150.472 83.4364 152.481ZM83.3245 158.281C82.7594 159.861 79.7913 160.958 79.9213 158.871C80.8222 156.557 83.2541 156.077 83.3245 158.281ZM80.0079 157.289C77.7548 156.839 79.5602 154.982 80.378 154.405C83.7055 154.68 81.306 156.87 80.0079 157.289ZM79.8942 150.55C79.9195 150.595 79.9646 150.639 80.0314 150.678C82.606 154.991 76.1407 156.053 78.0075 152.465C78.6394 151.858 78.4264 152.077 78.8723 151.614C79.3074 151.164 79.6432 150.816 79.8942 150.55ZM80.5604 149.491C80.5117 149.641 80.4232 149.775 80.3058 149.878C80.2047 149.967 80.1199 150.048 80.0513 150.124C78.9897 150.908 76.4585 152.89 76.5198 151.598C80.4196 148.124 81.8513 145.538 80.5622 149.491H80.5604ZM78.9373 146.23C78.495 148.85 73.308 153.112 74.588 147.762C74.626 147.6 74.6566 147.435 74.6783 147.269C75.1513 143.703 77.3413 141.922 78.8669 145.632C78.9427 145.819 78.9698 146.026 78.9355 146.229L78.9373 146.23ZM139.547 136.849C138.688 137.933 139.316 140.194 137.944 140.303C131.535 138.941 137.17 135.237 138.903 132.505C141.255 133.172 142.252 135.701 139.547 136.849ZM140.217 130.804C141.425 127.917 145.513 122.448 145.567 129.34C145.536 135.27 143.229 133.803 140.217 130.804ZM136.536 147.97C134.763 147.231 130.412 145.636 129.419 143.755C129.163 143.269 129.213 142.673 129.511 142.212C133.042 136.735 136.007 144.581 136.536 147.97ZM146.193 158.163C142.239 160.945 145.041 158.048 143.146 156.395C139.383 151.851 130.049 157.02 133.187 166.763C127.565 168.651 136.529 166.427 137.004 168.633C136.668 170.116 129.892 172.434 128.814 171.834C127.46 166.665 127.962 160.772 129.858 156.098C135.025 142.977 137.303 153.833 138.562 150.474C138.782 149.885 138.847 149.24 138.717 148.624C136.763 139.32 133.714 142.782 138.917 141.804C139.636 141.669 140.161 140.446 140.322 139.734C141.378 135.051 141.474 138.263 142.33 135.564C143.852 132.459 147.015 139.351 147.002 129.602C147.062 126.802 148.786 130.861 148.896 127.301C147.836 112.884 139.435 131.089 132.537 137.869C123.302 142.977 113.136 144.812 102.839 145.417C95.1663 145.988 77.8035 143.571 68.8269 137.817C64.9182 135.398 53.5042 112.369 52.5112 126.459C52.309 128 52.7152 129.427 53.9014 128.659C55.9939 132.755 51.8414 135.284 58.7995 134.914C58.7905 136.675 60.1915 136.84 60.679 137.889C60.8577 145.441 66.6478 138.372 63.685 144.657C63.4702 145.112 63.3077 145.593 63.203 146.086C60.7404 157.791 66.4167 144.021 69.3721 152.106C71.8997 156.062 73.4542 160.889 73.1581 165.312C72.9288 173.196 73.9597 173.556 64.7593 169.433C64.1364 168.967 64.4758 168.381 64.9218 168.246C70.8183 166.539 69.5166 158.006 64.8062 155.583C61.2477 153.439 57.357 155.323 57.2415 159.276C45.5441 153.24 60.5616 144.433 58.3897 140.326C55.9181 136.328 55.7809 135.297 52.7532 139.528C45.0945 143.79 39.6818 138.998 39.1908 131.748C33.7961 136.09 26.6593 128.142 28.2282 122.226C28.3311 119.153 35.1953 112.125 33.8972 117.93C33.3123 119.178 33.8972 119.982 34.54 120.808C38.1797 123.962 42.937 124.639 47.2502 125.275C47.8009 126.999 47.3712 128.605 48.57 129.976C49.1694 130.813 50.4837 131.279 51.2185 131.165C49.1495 128.363 48.6548 127.72 49.8031 124.533C57.236 102.723 58.034 122.509 70.8797 131.342C71.3653 131.387 71.5405 131.985 72.046 131.992C75.0322 133.615 77.6482 134.276 80.7247 134.89C82.7775 136.339 82.6114 140.026 85.5181 140.655C89.2012 142.791 112.085 143.224 116.38 140.341C120.455 138.03 118.431 134.751 121.02 134.762C143.259 132.323 142.252 98.6746 151.429 123.958C152.556 127.568 152.539 127.985 150.05 131.087C151.38 131.562 152.231 130.513 152.886 129.875C153.854 128.643 153.846 126.735 153.863 125.557C158.241 124.226 164.287 124.061 167.27 120.128C168.539 117.507 165.425 116.791 168.212 115.592C172.076 116.782 176.57 128.86 170.088 126.303C171.384 127.219 173.038 127.893 171.381 129.243C169.882 128.096 167.662 126.041 165.975 127.14C167.575 127.472 171.72 129.62 169.812 131.172C167.078 133.427 164.688 133.425 161.879 131.835C163.123 140.69 150.293 145.069 146.769 136.868C134.225 141.598 155.13 148.995 146.19 158.163H146.193ZM160.016 153.433C159.077 158.143 163.022 161.673 166.149 163.82C162.049 164.638 156.444 161.11 152.98 159.325C151.651 158.158 149.391 157.296 150.591 155.361C152.471 148.935 147.399 146.156 145.161 141.638C146.901 141.759 147.712 143.517 149.8 143.754C153.097 144.621 153.222 143.249 154.773 146.115C154.825 141.712 156.71 144.491 157.806 146.538C160.436 149.35 157.38 144.118 157.806 143.408C161.021 141.32 163.529 139.853 163.932 135.515C164.607 134.308 168.369 134.784 168.488 137.029C170.007 142.698 161.137 146.79 160.016 153.435V153.433ZM169.31 134.697C171.374 132.128 173.592 131.239 173.724 135.286C172.529 140.068 170.415 138.601 169.31 134.697ZM175.553 121.057C173.896 117.716 171.91 114.513 168.409 113.485C167.205 111.776 167.284 110.226 167.654 108.775C166.596 105.43 165.603 102.525 164.383 99.2021C159.091 97.2365 163.051 99.7044 158.84 95.6702C155.632 93.6467 161.095 94.5356 162.141 92.7163C163.368 91.8564 163.081 90.1329 162.785 89.1464C165.305 85.5278 166.784 87.2404 168.949 90.505C168.705 90.8411 168.469 91.1915 167.985 91.2132C166.616 91.9503 165.609 93.1373 164.795 94.0767C165.802 93.5907 171.859 89.3668 169.285 93.0217C172.211 92.9909 170.816 94.8265 169.637 95.8671C175.434 92.4779 169.736 123.138 186.828 110.772C189.69 108.317 188.119 102.967 189.607 105.551C192.087 112.461 182.762 123.769 175.551 121.059L175.553 121.057Z" fill="#EEE081"/>
<path d="M169.636 95.8652C169.402 96.0025 169.147 96.1958 168.873 96.4488C169.069 96.3295 169.346 96.12 169.636 95.8652Z" fill="#EEE081"/>
<path d="M85.0195 171.93C85.0809 171.926 85.1459 171.922 85.2109 171.915C85.1477 171.919 85.0827 171.924 85.0195 171.93Z" fill="#EEE081"/>
<path d="M88.1632 126.067C94.7982 124.291 89.548 129.575 85.5562 128.208C79.6452 126.377 81.6348 118.529 87.8671 121.433C89.2248 122.907 87.1648 121.559 86.1845 122.002C83.7616 123.003 85.8378 126.386 88.1632 126.067Z" fill="#EEE081"/>
<path d="M116.14 120.829C124.662 122.491 114.177 133.429 109.955 125.951C110.52 124.905 113.439 126.755 114.708 125.741C115.992 125.216 117.185 123.066 115.349 122.112C111.188 122.134 113.943 121.044 116.138 120.831L116.14 120.829Z" fill="#EEE081"/>
<path d="M101.196 117.46C100.633 117.59 99.9052 117.357 99.2101 117.603C98.3832 118.222 90.7408 116.134 94.7832 116.09C99.4015 117.097 114.314 115.431 101.196 117.46Z" fill="#EEE081"/>
<path d="M99.8783 131.087C98.4538 131.107 96.7206 131.087 95.0776 130.693C96.8596 130.384 105.76 128.811 107.391 129.725C107.096 131.36 101.171 130.777 99.8801 131.087H99.8783Z" fill="#EEE081"/>
<path d="M111.106 118.325C112.61 115.697 122.378 114.793 120.899 119.136C119 115.789 114.347 116.741 111.106 118.325Z" fill="#EEE081"/>
<path d="M82.3657 117.474C84.0466 115.207 92.1493 115.657 91.2521 118.688C88.8779 116.233 85.6245 116.772 82.3657 117.474Z" fill="#EEE081"/>
<path d="M102.984 115.213C101.388 115.431 99.6959 115.65 97.867 114.915C97.5258 114.385 101.92 114.972 102.984 115.213Z" fill="#EEE081"/>
<path d="M101.749 127.642C105.717 127.584 101.326 128.863 99.4936 128.054C99.3636 127.499 100.801 127.814 101.749 127.642Z" fill="#EEE081"/>
<path d="M123.461 85.3633C129.977 85.5313 132.165 93.5003 127.065 97.6104C123.526 101.115 116.284 98.1885 115.939 92.8933C115.995 91.4552 116.236 89.253 117.687 87.9955C118.731 86.216 121.202 85.4374 123.461 85.3633ZM125.026 94.2031C125.274 99.7603 129.06 93.0216 128.521 90.4796C127.604 86.7345 122.849 85.4012 119.581 87.8329C114.54 90.6151 118.565 101.5 123.15 94.9402C120.296 99.6898 124.633 97.9464 125.026 94.2031Z" fill="#EEE081"/>
<path d="M77.455 99.1551C68.4441 97.3232 70.1087 83.712 79.5529 85.5403C88.1702 87.6324 86.8613 99.4514 77.455 99.1551ZM78.9553 94.4561C74.42 102.132 88.8671 95.475 82.6131 88.5917C79.9212 85.4789 74.5338 85.9541 72.8222 90.0678C72.4431 91.6359 73.6419 97.5309 76.2237 94.9782C74.2088 98.2156 78.2331 96.3711 78.9553 94.4579V94.4561Z" fill="#EEE081"/>
</svg>
