<svg width="23" height="24" viewBox="0 0 23 24" fill="none" xmlns="http://www.w3.org/2000/svg">
<g clip-path="url(#clip0_124_1956)">
<path d="M0.490854 11.8563C0.490315 13.8728 0.99919 15.8417 1.96681 17.5771L0.398315 23.5066L6.259 21.9156C7.88 22.8292 9.69619 23.308 11.5418 23.3081H11.5467C17.6394 23.3081 22.5991 18.1748 22.6017 11.8653C22.6028 8.80792 21.4539 5.93295 19.3665 3.76997C17.2794 1.60718 14.5037 0.415458 11.5462 0.414062C5.45275 0.414062 0.49346 5.54709 0.490944 11.8563" fill="url(#paint0_linear_124_1956)"/>
<path d="M0.0961328 11.8527C0.0955039 13.9417 0.622617 15.981 1.62473 17.7786L0 23.9207L6.07083 22.2726C7.74354 23.2168 9.62685 23.7147 11.5432 23.7154H11.5482C17.8595 23.7154 22.9973 18.3975 23 11.8621C23.0011 8.69488 21.8108 5.71656 19.6488 3.47609C17.4866 1.23591 14.6116 0.00130233 11.5482 0C5.23573 0 0.0986484 5.31721 0.0961328 11.8527ZM3.71154 17.469L3.48486 17.0965C2.53198 15.5277 2.02903 13.7149 2.02975 11.8534C2.03173 6.4213 6.30146 2.00186 11.5518 2.00186C14.0943 2.00298 16.4838 3.02921 18.281 4.89116C20.0782 6.7533 21.0671 9.22865 21.0665 11.8614C21.0641 17.2935 16.7943 21.7135 11.5482 21.7135H11.5444C9.83618 21.7126 8.16087 21.2376 6.69983 20.34L6.35213 20.1265L2.74958 21.1045L3.71154 17.469Z" fill="url(#paint1_linear_124_1956)"/>
<path d="M8.68588 6.89746C8.47152 6.40416 8.24592 6.39421 8.04206 6.38556C7.87513 6.37811 7.68431 6.37867 7.49366 6.37867C7.30283 6.37867 6.99278 6.453 6.7307 6.74928C6.46836 7.04583 5.72913 7.76249 5.72913 9.22007C5.72913 10.6776 6.75451 12.0864 6.89745 12.2843C7.04058 12.4817 8.87698 15.5686 11.7854 16.7562C14.2026 17.743 14.6945 17.5468 15.2191 17.4973C15.7437 17.448 16.9121 16.7808 17.1504 16.089C17.389 15.3973 17.389 14.8043 17.3174 14.6804C17.2459 14.557 17.0551 14.4829 16.7689 14.3348C16.4828 14.1867 15.0759 13.4698 14.8137 13.371C14.5513 13.2722 14.3606 13.2229 14.1698 13.5195C13.9789 13.8157 13.431 14.4829 13.264 14.6804C13.0971 14.8785 12.9301 14.9031 12.644 14.755C12.3577 14.6063 11.4362 14.2938 10.3429 13.2846C9.49223 12.4993 8.91795 11.5296 8.75102 11.2329C8.58409 10.9367 8.73314 10.7762 8.87662 10.6285C9.00519 10.4958 9.16286 10.2826 9.30607 10.1096C9.44875 9.93663 9.49636 9.81318 9.59178 9.6156C9.68728 9.41783 9.63949 9.24481 9.56806 9.09663C9.49636 8.94844 8.94032 7.48323 8.68588 6.89746Z" fill="white"/>
</g>
<defs>
<linearGradient id="paint0_linear_124_1956" x1="1110.57" y1="2309.67" x2="1110.57" y2="0.414062" gradientUnits="userSpaceOnUse">
<stop stop-color="#1FAF38"/>
<stop offset="1" stop-color="#60D669"/>
</linearGradient>
<linearGradient id="paint1_linear_124_1956" x1="1150" y1="2392.07" x2="1150" y2="0" gradientUnits="userSpaceOnUse">
<stop stop-color="#F9F9F9"/>
<stop offset="1" stop-color="white"/>
</linearGradient>
<clipPath id="clip0_124_1956">
<rect width="23" height="24" fill="white"/>
</clipPath>
</defs>
</svg>
